<?xml version="1.0" standalone="no"?>
<!DOCTYPE svg PUBLIC "-//W3C//DTD SVG 1.1//EN" "http://www.w3.org/Graphics/SVG/1.1/DTD/svg11.dtd" >
<svg>
<metadata>
Created by FontForge 20090914 at Fri Feb 24 07:54:33 2012
 By root
Copyright (c) Typographer Mediengestaltung, 2000.  Adine Kirnberg-Script   1991 by D. Rakowski. All rights reserved. Full character set added by D. Steffmann, Kreuztal. All rights reserved.
</metadata>
<defs>
<font id="AdineKirnberg-Alternate" horiz-adv-x="263" >
  <font-face 
    font-family="Adine Kirnberg Alternate"
    font-weight="400"
    font-stretch="normal"
    units-per-em="1000"
    panose-1="2 0 5 5 2 0 0 2 0 2"
    ascent="800"
    descent="-200"
    x-height="197"
    cap-height="625"
    bbox="-204 -299 1560 773.562"
    underline-thickness="13"
    underline-position="-77"
    unicode-range="U+0006-U+E005"
  />
<missing-glyph horiz-adv-x="500" 
d="M63 0h375v688h-375v-688zM125 63v563h250v-563h-250z" />
    <glyph glyph-name=".notdef" horiz-adv-x="500" 
d="M63 0h375v688h-375v-688zM125 63v563h250v-563h-250z" />
    <glyph glyph-name="dotaccent" horiz-adv-x="248" 
d="M209 438l-249 -437l34 -1l45.5 83t18.5 34q47 77 100 77q25 0 25 -16q0 -17 -27 -59q-31 -47 -36 -59q-13 -33 -13 -35q0 -22 23 -22q19 0 49 11q54 20 71 61q-20 -26 -33 -36q-34 -25 -65 -25q-12 0 -13 6q5 27 39 79q35 51 40 75q-5 30 -38 30q-15 0 -33 -5
q-6 -2 -26 -12q-18 -8 -24 -7q30 57 67 121l82 136z" />
    <glyph glyph-name="fi" horiz-adv-x="241" 
d="M211 195q-31 19 -38 19l-5 -1.5t-16 -3.5q-4 0 -6 -1q-9 0 -14 11l52 91q40 70 57 93q117 156 276 156q11 0 25 -1.5t30 -3.5l30 -18q16 -11 14 -30q8 -2 18 7q4 7 4 15q0 10 -7 25q-19 24 -62 25h-35q-17 0 -34 1q-170 -48 -263 -159q-74 -91 -201 -316
q-116 -210 -202 -302l39 -2q70 93 125.5 183t97.5 178q12 39 50 47q3 0 6 1h4q8 0 52 -19l-55 -97q-36 -42 -97 -80q28 7 59 34q17 14 28 28l-24 -42q-3 -3 -3 -9q0 -21 19 -24q5 -1 10 -1.5t9 -0.5q32 0 64 26q7 7 48 54l-67 -57q-24 -11 -29 -11q-12 0 -16 12l86 172z
M263 280q-19 0 -19 -17q0 -2 2 -6q5 -11 14 -11q3 0 9 2q13 7 12 18q0 14 -18 14z" />
    <glyph glyph-name="fl" horiz-adv-x="258" 
d="M500 579q-170 -48 -263 -159q-74 -91 -201 -316q-116 -210 -202 -302l39 -2q70 93 125.5 183t97.5 178q12 39 50 47q3 0 6 1h4q12 0 26 -6v8q-5 3 -9 3l-5 -1.5t-16 -3.5q-4 0 -6 -1q-9 0 -14 11l52 91q40 70 57 93q117 156 276 156q11 0 25 -1.5t30 -3.5l30 -18
q16 -11 14 -30q8 -2 18 7q4 7 4 15q0 10 -7 25q-19 24 -62 25h-35q-17 0 -34 1zM341 417q-13 -26 -31.5 -58.5l-42.5 -73.5l-74.5 -123t-40.5 -70q-32 -39 -96 -79q28 7 59 34q17 14 28 28l-16.5 -31t-12.5 -25q-9 -19 20 -19q17 0 38 6q45 14 63 40l22 32q-66 -63 -97 -68
q-8 0 -13 6t-1 13l25.5 43l36.5 61l64 104l32.5 55.5l41.5 71.5q27 36 31 54q-4 0 -10 0.5t-14 1.5q-8 0 -12 -3z" />
    <glyph glyph-name="Lslash" horiz-adv-x="564" 
d="M89 66q29 7 72 7q45 0 75 -8q-56 -34 -109 -34q-28 0 -49 8q-3 3 2 13.5t9 13.5zM246 178l6 -14l84 34q-19 -71 -55 -108h-31q-149 0 -214 -41q-3 -27 18 -38q17 -4 40 -4q59 0 114 31q23 26 56 26q22 0 57 -12q21 -7 35 -11t21 -5q13 3 48 -17q34 -19 41 -19q18 0 30 26
q-44 23 -100 39q-13 4 -39 10l-67 15q60 48 83 123l84 34l-6 14l-73 -30l1 3q20 88 20 213q17 58 57 101q43 47 98 58q28 5 36 5q66 0 106 -52q18 -54 18 -75q0 -15 -8 -33q-12 -50 -40 -82q-30 -36 -76 -47h-15q-25 0 -41 6q-30 10 -30 40q0 13 22 23q24 11 25 18l-13 14
q-6 3 -14 3q-15 0 -29 -8q-20 -17 -20 -59q0 -20 43 -45q15 -3 29 -3q67 0 129 53q68 73 68 142q0 26 -9 53q-35 66 -124 66q-55 0 -102 -26q-66 -27 -100 -74q-26 -38 -36 -102q-5 -32 -9 -63.5l-8 -63.5q-6 -45 -15 -80z" />
    <glyph glyph-name="lslash" horiz-adv-x="128" 
d="M5 152l5 -14l48 20l-15 -27q-22 -36 -37 -64.5t-24 -48.5q-9 -18 19 -18q15 0 38 5q45 14 63 40l22 32q-66 -63 -97 -68q-8 0 -13 6t-1 13l26.5 44.5l35.5 59.5l26 43l67 27l-6 14l-48 -20l25 40l33.5 57l40.5 70q27 36 31 54q-4 0 -10 0.5t-14 1.5q-8 0 -12 -3
q-13 -26 -31.5 -58.5l-42.5 -73.5l-63 -105z" />
    <glyph glyph-name="Zcaron" horiz-adv-x="691" 
d="M822 621l-12 4h-16q-61 0 -140 -91l-124 54q-76 32 -148 32h-12q-69 0 -124.5 -35.5t-82.5 -98.5q-5 -25 -5 -42q0 -26 10 -46q13 -29 51 -46q33 -14 69 -14q39 0 72 18q79 52 79 114l-11 21q-8 12 -13 14q-1 1 -17 7h-16q-45 0 -72 -32q6 -1 28 7q21 9 31 9q8 0 20 -4
q23 -8 23 -53v-20q-31 -58 -104 -65q-39 0 -71 22q-12 7 -19.5 13.5t-13 13t-9.5 15.5t-9 23v16q0 25 12 51q1 2 7.5 13.5l19.5 33.5q52 61 129 61q60 0 144 -39l68 -32l69 -32l-58.5 -85l-58.5 -85q-10 2 -17 3t-12 2q-15 -11 -19 -30h21q9 0 16 -7l-76 -138
q-29 -51 -53 -71q-32 -26 -82 -26q-13 0 -31 2t-43 6q-24 4 -42 6t-31 2q-49 0 -81 -19q-28 -6 -28 -32q0 -6 1 -9q41 -32 99 -32q52 0 160 36q91 -27 165 -27q100 0 168 47q71 77 71 126q0 10 -3 25q-7 31 -50 31q-13 0 -23 -3q-20 -11 -36 -30q-17 -23 -17 -43l31 41
q13 9 30 9q20 0 33.5 -15t13.5 -35q0 -37 -28 -68l-21 -22.5l-15 -15.5q-44 -28 -108 -28q-76 0 -170 36q105 76 207 250q-3 0 2 0t18 -1q26 -2 32 21l-41 13l84 165q4 -1 8 -1h9h17q10 0 20 2q18 3 87 35q42 19 50 58zM84 60q9 6 17 7.5t23 1.5q35 0 143 -28
q-43 -20 -92 -20q-55 0 -93 25q-8 5 2 14zM668 534q49 60 105 60q15 0 30 -6q-10 -34 -51 -46l-71 -12q-1 4 -13 4zM641 744q-3 0 -81 -32q-37 30 -43 32l-3 -1l-2 -4q1 -2 4 -8.5t10 -16.5q14 -21 20 -25q1 -1 17 -1q6 0 15 6q66 40 68 43l1 2q0 5 -6 5z" />
    <glyph glyph-name="zcaron" horiz-adv-x="192" 
d="M158 166q-4 -1 -18 -1q-36 0 -49 24l-50 -61.5l-35 -45.5l2 -4l65 81q31 -14 70 -14v-4q-9 -18 -38 -26q-35 -11 -41 -17q-1 -5 2 -7t7.5 -3.5t8.5 -2t4 -1.5q-54 -57 -89 -80l7 -6q18 23 37 23q7 0 32 -11q24 -10 36 -10q11 0 27 10q38 23 55 76l-10 -4q0 -20 -34 -48
q-13 -7 -27 -7l-66 15l42 46q4 3 10 3q3 0 8 -0.5t13 -1.5q16 0 21 17l-19 8l78 77q-6 6 -11 6t-17 -16q-11 -15 -21 -15zM227 304q5 0 5 -5v-2q-3 -3 -68 -43q-9 -6 -16 -6q-16 0 -17 1q-3 3 -8 9t-12 16t-10 16.5t-4 8.5l2 4l3 1q2 -1 13 -8.5t30 -23.5q79 32 82 32z" />
    <glyph glyph-name="space" unicode=" " horiz-adv-x="153" 
 />
    <glyph glyph-name="exclam" unicode="!" horiz-adv-x="196" 
d="M287 443q0 14 -28 14q-27 0 -42 -37l-46 -133q-41 -119 -60 -159h6q28 54 57 103t60 94q53 76 53 118zM79 61q-34 0 -38 -33q-5 -32 27 -32q33 0 38 32q4 33 -27 33z" />
    <glyph glyph-name="quotedbl" unicode="&#x22;" horiz-adv-x="123" 
d="M44 457q24 0 24 -24q0 -6 -14 -29q-25 -40 -43 -48q27 19 27 47q0 8 -4 9q-14 6 -14 21q0 24 24 24zM98 457q24 0 24 -24q0 -6 -14 -29q-25 -40 -43 -48q22 17 23 36q1 18 -1 20q-13 7 -13 21q0 24 24 24z" />
    <glyph glyph-name="numbersign" unicode="#" horiz-adv-x="363" 
d="M323 504l-5 -8l5 4q3 -5 2 -6q0 -4 -9 -5l2 -7q0 -36 -14 -39h8q2 -6 -1 -10l6 2q5 0 7 -5l-12 -8l2 -4q0 -3 -5 -10t-5 -10q0 -2 1 -5l-8 1q-9 -15 -31 -28q-9 -5 -39 -18q-6 5 -14 7q20 -20 20 -32q-4 -4 -15 -4q-3 0 -12 1.5t-12 1.5l-1 -7q11 2 17.5 3t7.5 1
q8 0 14 -6l-8 -6h-6q-14 0 -44 -12q-2 -1 -2.5 -1.5l-0.5 -0.5q-1 0 -3.5 1t-3.5 1l-2 -2l-2 3q15 12 30 18l-21 -8.5t-15 -5.5q-2 2 -2 5q0 7 10 14q-1 -1 -4 -1q-7 0 -10 7q4 9 19 19l13.5 6t11.5 5h9l-16 -17q8 8 13 13.5t9 9.5q14 16 17 29q4 10 40 24q32 12 33 22
q-4 -13 -33 -22q-27 -7 -32 -16q-4 2 -5 2q-3 0 -8 -5h4q2 0 4 -2q-5 -5 -9 -5q-1 0 -9.5 3t-11.5 2q-2 8 -2 7q0 8 13 27q4 13 23 16l29 2q-7 -6 -14 -10.5t-14 -8.5l7 -7l-15 -10l1 -1q3 1 5 1l-2 2q8 3 18 19q10 15 17 19q-15 -4 -19 -4t-10 2q-32 -9 -41 -53
q-18 -20 -24 -21q-4 1 -4 7l2 6q1 0 4.5 4t7.5 8t8 7.5t7 3.5q2 3 0 11l-1.5 7.5t-0.5 3.5l2 2q1 -2 6 -3l-5 25l-24 23.5t-9 8.5q1 -1 5.5 -6t12.5 -13q13 -13 13 -19q-6 -2 -10 5q-2 2 -3 4l-2 4q3 -11 5 -13l3 1q9 -6 7 -12q-4 2 -5 3q-12 -4 -23 -6l-3 3q5 -1 7 5t5 6h2
q-5 2 -7 12.5t-5 11.5l-2 -1l-11 8q16 -20 16 -31q0 -1 -2 -7h-3q1 5 -6 10.5t-8 7.5l1 1h1q2 0 5.5 -3.5t4.5 -3.5l-8 11q-11 10 -29 10q-5 0 -9 -1l11 -5l-5 -3q32 -8 37 -29h-4q11 -11 11 -13h-14q0 -5 10 -9t10 -10l2 9q2 0 5 -2.5t3 -4.5q0 -5 -6 -9q-5 -3 -13 -15.5
t-15 -15.5q-3 1 -8 -1t-10 -5l-9.5 -5.5t-5.5 -2.5l-26 14q-12 8 -14 19v7q0 8 -4.5 25.5t-4.5 26.5q0 2 4.5 7t4.5 7v2q5 0 8 1l-12 8q6 5 16 9l-2 4q0 5 9 5q7 0 11 -1q11 0 15 4q4 -3 9 -3q2 0 10 2.5t11 2.5q5 0 9 -4q-5 6 -11 6q-2 0 -9.5 -2t-9.5 -2q-6 0 -9 4
q-3 -2 -25 -6q-18 -4 -25 -16q-13 -19 -13 -33v-10q-7 -5 -5 -14l7 1q4 -1 4 -5q-6 -8 -6 -10t2 -4l10 9q4 -5 4 -14q-1 -1 -1 -7v-8q-9 3 -19 3h-10h-10h-7t-9 1v-3h11q56 0 73 -23q-5 -8 -9 -13.5l-7 -9.5q-11 -12 -23 -12q15 23 20 26h-7q-4 0 -5 4q4 2 5 3q-2 6 -2 7v4
l-9 2l6 -6q-2 -2 -6 -3l-3 -2l9 -2q-14 -12 -20 -12t-10 4v-4h9l-1 -14l7 1l2 -9q3 -3 6 -3q1 0 5.5 2t6.5 2l0.5 -0.5t2.5 -1.5q-2 -2 -4 -7t-3.5 -11l-3 -11.5t-2.5 -6.5l14 29q6 13 15 18q3 18 9 22q2 1 7 1l9 -1q8 -1 11 -1q4 0 2 0q3 0 11 2h-7h-5q19 18 32 22
q5 -5 10 -5q2 0 5.5 3.5t7.5 7t7.5 7t6.5 3.5q14 0 21 -5q-2 -8 -8 -13t-13.5 -8.5t-15 -5.5l-11.5 -3q7 4 19 4h9l-23 -11q-17 -7 -26 -16q-1 6 14 21q-28 -28 -41 -28q-2 0 -8 2q-5 -21 -39 -33q1 -1 5 -1q7 0 26 17q20 17 27 17h7l-2 -5h3q14 -6 12 -11q-5 -2 -5 -5
q0 -4 1 -7q0 -3 -2 -5q-7 -13 -25 -13q-4 0 -5 1q1 -3 1 -5q0 -5 -3 -9l-1 -3l-2 -6q-7 -16 -33 -16q-21 18 -21 26v-8q18 -22 28 -22q4 0 7 1q1 -1 1 -4q0 -8 -8 -19q-1 -1 -5.5 -4t-3.5 -6q1 -1 2 -1q14 14 14 15t-2 3q1 2 3 11t4 9t5 -3q-1 -2 -1 -4t-1 -4l9 5q1 0 1 -4
q0 -3 -1 -5q-2 -3 0 -6q4 -8 4 -15q0 -9 -11 -34q-10 -21 -10 -34q0 -3 1.5 -11t1.5 -11q0 -10 -6 -28t-6 -27v-9q5 -7 5 -14q0 -2 -2.5 -12t-2.5 -13q0 -16 12 -16q2 0 8 1.5t7 1.5q3 0 6 -3q7 13 7 17q0 16 18 51v8q0 16 20 44q24 31 27 42q11 -3 14 -16q4 -10 5.5 -15
l1.5 -5l-1.5 -6l-0.5 -2v-7q0 -4 1.5 -18.5t1.5 -18.5q0 -9 -3 -19q-3 -2 -3 -5q0 -4 3 -8q27 -27 42 -27h7q0 1 7 7.5t5 9.5q-15 9 -15 20q0 3 2 8t5 11t5 12t2 9q-2 10 -2 12q16 33 16 74q0 40 -18 87q-12 12 -21 37q0 3 -10 42q49 25 60 42q4 3 6 3q4 -5 8 -11t4 -8v-7
q0 -7 -3 -11q-3 2 -5 8v-2q-2 -6 -6 -6q-1 0 -2 1l4 20q-7 -21 -5 -28l10 8q1 0 2.5 -5.5t4.5 -4.5q0 32 -3 47q11 11 16 28q-4 -5 -6.5 -9.5t-4.5 -8.5q-3 1 -3 4q0 1 1.5 6t1.5 6v5q6 7 10 7l4 -2q1 3 1 7q0 12 -10 18q-1 1 -1 5q0 2 1 7t2.5 11t3 10.5t1.5 6.5q0 7 -3 13
zM113 482q5 1 8 1.5t5 0.5q-5 -1 -8 -1t-5 -1zM85 468q1 4 6 4q8 0 8 -9q42 -5 51 -25l-2 -1q-2 8 -12 9.5t-19 2.5l5 -7q-23 3 -26 20v7zM214 428l-10 -33l12 32zM118 419l-9 -5q2 0 2 -1q4 1 5 1h2v-9h6q4 0 6 2q1 4 -5.5 5.5t-6.5 3.5v3zM94 414h-9l9 -4v4zM78 402h9
q7 0 10 -1q-3 6 -12 6q-5 0 -7 -5zM95 389q-1 -1 -1 -3q0 3 8 -7l-4 -5q4 -6 8 -4l-3 2l10 5q-9 0 -10 4q3 2 6 5h-8q-6 0 -6 3zM17 375l17.5 -8.5t14.5 -5.5l-9 -10l10 2l4 3l-4 -1v12l-19 5t-14 3zM171 324v-1l11 9l-1 1zM240 306l4 -14l-6 -4q42 -30 42 -98q0 -22 -4 -39
q-6 -8 -11 -46q-3 -34 -16 -44l-3 -4l10.5 -11t8.5 -14q0 -3 -2 -7l-10 4v-12q-10 -1 -23 12q-12 14 -19 14l-2 6q1 3 4 3q1 -1 3 -2.5l6 -4.5l3 9q-11 0 -11 10q0 2 2 11t2 12t-1 3q-5 8 -5 19q0 12 6 30l-7 -3q-7 8 -7 19q0 9 20 32q21 24 23 31l-23.5 -26.5t-25.5 -22.5
l-56 26l-3 -3q2 -1 8 -3.5t17 -7.5q17 -6 22 -14q0 -9 -8 -23l-3 7q-8 -23 -18 -33l-2 11q-2 -6 -8.5 -21.5t-6.5 -24.5q0 -5 1 -10q-1 -3 -3.5 -8.5t-7.5 -13.5q-10 -16 -10 -24q0 -4 2 -10l-4 -10q-3 4 -7 4q-1 0 -6.5 -4.5t-7.5 -4.5q-3 0 -7 6q-3 3 -3 5q0 6 3 9l5 9
l8 1q-11 2 -13 16q-1 1 -1 23l-2 6q0 4 7 15t7 14q0 1 -2 5q4 4 4 9q0 2 -2 9.5t-2 11.5q0 21 21 57q0 4 -2.5 17t-2.5 17q0 8 3 16l18 17h-4q-9 0 -14 -5q-2 9 6 14q25 13 32 14q9 2 35 12q20 7 36 7h5t8 -1zM165 419l-5 2l1 2l6 -2zM143 466l3 -3l-6 3h3zM102 459
q4 -7 4 -9q-4 0 -4 9zM319 444q8 -1 7 -8h-8zM50 332q5 11 26 14l-12 -10t-14 -4zM172 426q6 0 6 -3v-4zM186 422q4 -2 5 -2v-4q-1 0 -2.5 2.5t-2.5 3.5zM106 241q0 2 -1 3q0 7 8 7q0 -5 -5 -10h-2zM167 251q8 2 11 7h-3q-7 0 -8 -7zM258 118l-11 -14h-3q-4 0 -10 7
q5 -10 10 -8q11 5 14 15zM111 102q-1 -7 7 -7q2 0 3 1q-5 -2 -10 6z" />
    <glyph glyph-name="dollar" unicode="$" horiz-adv-x="367" 
d="M84 158q-8 2 -12 1q-52 -10 -52 -62q0 -8 2 -18q11 -59 85 -73q-14 -39 -14 -42v-1q1 -1 4 -1q7 11 11.5 22t8.5 22q21 1 37 3q46 12 80 49q35 38 35 84q0 36 -24 63q-7 8 -16.5 17t-22.5 20l64 167q48 -22 40 -78q-3 -18 -2 -20q1 -4 7 -3q33 6 33 49q0 53 -73 68l3 8
l9.5 25t4.5 13q-3 2 -4 1q-4 -1 -10.5 -16.5t-10.5 -30.5q-51 0 -92 -32q-43 -34 -43 -85q0 -37 20 -63q19 -24 33 -36l-71 -185q-45 11 -53 52q-3 13 -3 22q0 18 8.5 32zM243 410q7 1 18 0l-61 -162q-25 26 -31 53q-3 16 -3 32q0 61 62 75q5 1 9 1.5t6 0.5zM192 202
q46 -43 46 -91q0 -43 -33 -68.5t-82 -21.5z" />
    <glyph glyph-name="percent" unicode="%" 
d="M14 -4q14 4 28 28l26 52.5l19 38.5l39 71.5l49 85.5q21 36 40.5 75t36.5 81l5 11.5t4 7.5l-2 3q-9 -6 -25 -37q-18 -34 -37.5 -67l-39.5 -65q-41 -64 -99 -184q-42 -86 -42 -88q0 -3 -0.5 -6t-1.5 -7v6v-6zM219 153q-40 0 -76 -41q-35 -41 -35 -81q0 -31 33 -31
q13 0 44 16q13 6 24.5 18.5t20 28.5t13.5 33t5 32q0 25 -29 25zM210 140q19 0 19 -15q0 -34 -24 -73q-27 -43 -58 -42h-5q-12 9 -12 25q0 28 26 66q25 39 54 39zM119 458q-40 0 -76 -41q-35 -41 -35 -81q0 -31 32 -31q12 0 44 15q27 13 45 48q19 34 19 65q0 25 -29 25z
M109 445q20 0 20 -15q0 -35 -25 -73q-26 -44 -58 -42h-4q-12 7 -12 24q0 29 26 67q25 39 53 39z" />
    <glyph glyph-name="ampersand" unicode="&#x26;" horiz-adv-x="458" 
d="M394 435q-7 22 -43 36q-12 4 -28 4q-10 0 -31 -3q-46 -8 -74 -78q-16 -36 -16 -78v-15q0 -7 1 -17l-34 -11q-54 -18 -97 -68q-41 -50 -41 -106q0 -34 21 -59q37 -45 89 -45q48 0 109 52q39 -47 80 -47q6 0 17 2t24 8t28 17t30 29q27 34 36 68l-21 -26.5l-31 -39.5
q-35 -36 -68 -36q-6 0 -22 3t-28 24q-1 2 -4.5 11l-9.5 25l71 127q20 38 30 49q21 28 47 28q8 0 8 -5q0 -3 -2 -9l-4.5 -13t-4.5 -14t-2 -11q0 -10 4 -14q8 -14 24 -14q2 0 4.5 0.5l7.5 1.5q28 6 28 47q0 25 -6 31q-4 4 -27 11h-16q-38 0 -73 -41q-19 -22 -53 -82
q-14 -26 -25 -42.5t-18 -23.5q-17 77 -17 177q81 40 87 45q50 33 54 73q0 17 -4 29zM107 195q21 52 93 73q7 -89 9 -106q7 -62 29 -101q-28 -37 -62 -42q-42 -5 -67 35q-16 39 -16 74q0 31 14 67zM310 463q3 1 10 1q23 0 35 -17t12 -41q0 -31 -41 -63q-33 -26 -69 -36v38
q0 107 53 118z" />
    <glyph glyph-name="quotesingle" unicode="'" horiz-adv-x="88" 
d="M178 457q-24 0 -24 -24q0 -14 13 -21q5 -3 0 -23q-4 -19 -23 -33q9 4 21 18q36 42 36 59q0 24 -23 24z" />
    <glyph glyph-name="parenleft" unicode="(" horiz-adv-x="149" 
d="M273 554q-73 -47 -131 -123q-138 -179 -138 -357q0 -135 69 -222h8q-32 73 -33 93q0 348 225 609z" />
    <glyph glyph-name="parenright" unicode=")" horiz-adv-x="198" 
d="M183 206q20 75 20 140q0 127 -75 219q5 -11 8.5 -19.5l6.5 -15.5q18 -44 18 -135q0 -279 -224 -530q188 128 246 341z" />
    <glyph glyph-name="asterisk" unicode="*" horiz-adv-x="194" 
d="M48 442q0 -8 38 -58q-56 9 -57 9q-16 0 -16 -16t14 -16l59 10q-38 -50 -38 -59q0 -15 16 -15q11 0 19 24l15 49l15 -49q7 -24 19 -24q16 0 16 15q0 12 -39 59l44.5 -7.5t16.5 -2.5q13 0 13 16t-13 16q-4 0 -61 -9q39 45 39 58q0 15 -16 15q-12 0 -19 -22l-15 -49l-15 49
q-7 22 -19 22q-16 0 -16 -15z" />
    <glyph glyph-name="plus" unicode="+" horiz-adv-x="339" 
d="M27 153v-21h132v-132h22v132h131v21h-131v131h-22v-131h-132z" />
    <glyph glyph-name="comma" unicode="," horiz-adv-x="88" 
d="M30 52q-24 0 -24 -24q0 -14 13 -21q2 -2 2 -7q0 -2 -0.5 -6t-1.5 -9q-5 -21 -21 -33q10 5 23 22q33 40 33 54q0 24 -24 24z" />
    <glyph glyph-name="hyphen" unicode="-" horiz-adv-x="142" 
d="M136 108q5 22 7 23h-89q-2 -8 -4 -13.5t-3 -9.5h89z" />
    <glyph glyph-name="period" unicode="." horiz-adv-x="88" 
d="M48 52q-24 0 -24 -24t24 -24q23 0 23 24t-23 24z" />
    <glyph glyph-name="slash" unicode="/" horiz-adv-x="234" 
d="M54 -8q49 96 150 212q37 43 68 87t56 90q1 5 1.5 7t0.5 3l-1 1q0 1 -1 2q-2 0 -23 -34l-24 -39l-54 -65.5l-37 -44.5l-41.5 -50t-44.5 -59q-61 -88 -61 -119q0 -1 1 -2q4 0 10 11z" />
    <glyph glyph-name="zero" unicode="0" horiz-adv-x="206" 
d="M169 262q-68 -24 -112 -78q-46 -55 -46 -127q0 -57 50 -57q26 0 79 32q39 22 67 79q26 54 26 101q0 7 -0.5 13.5t-1.5 11.5q-1 12 -16.5 20t-29.5 8q-7 0 -16 -3zM167 241q31 0 34 -22q0 -51 -25 -107q-42 -94 -106 -94q-23 14 -23 45q0 16 15 66q29 57 40 71
q26 36 65 41z" />
    <glyph glyph-name="one" unicode="1" horiz-adv-x="131" 
d="M115 200q1 0 8 3t10 1l-67 -103l-32 -50.5l-29 -49.5l41 -1q14 9 14 33q28 34 69 113q43 81 70 114q-6 3 -12 3q-16 0 -38 -27q-25 -30 -34 -36zM23 146q73 37 89 52l-56 -30t-41 -21z" />
    <glyph glyph-name="two" unicode="2" horiz-adv-x="264" 
d="M146 226q-26 -32 -26 -46q0 -34 39 -34q41 0 58 56q-3 -2 -8 -6.5t-10 -10.5t-10 -11t-9 -6q-25 -3 -34 14q-3 21 12 41q26 35 53 35q30 0 48 -34q0 -49 -37 -85q-27 -28 -83 -54l-45 -20l-45 -20l-24 -18q-13 -10 -11 -24q10 0 17 13q8 14 23 14q76 -27 90 -27
q40 0 86 40q0 4 11 13q6 4 6 10q0 4 -3 7q-18 -12 -18 -25q-16 -25 -46 -25q-16 0 -52 12q-35 13 -52 13l111 48q63 31 93 73q8 22 8 41q0 22 -11 39q-22 14 -49 14q-51 0 -82 -37z" />
    <glyph glyph-name="three" unicode="3" horiz-adv-x="238" 
d="M203 263q40 0 60 -32q5 -26 -17 -45q-7 -10 -26 -17q-21 -7 -29 -13q28 -18 28 -49q0 -44 -42 -75q-41 -32 -78 -32q-50 0 -80 31q15 -22 50 -22q5 0 14 1t20 3q15 4 28.5 14t24.5 23t19.5 28.5t11.5 30.5q0 29 -31 44q-38 0 -57 -12q6 15 24 16l43 5q46 0 63 42
q4 7 4 15q0 15 -11 24.5t-26 9.5q-18 0 -37 -13q0 -3 -3 -10t-3 -10q0 -5 4 -9q7 -22 35 -18l6 6q3 3 8 2q-19 -25 -42 -25q-29 0 -29 31q0 9 6 21t27 22l18 6t17 7zM28 98l-8 -15q-6 -12 -6 -24q0 -13 4 -25q-1 2 -1 7v9q0 39 29 39q21 0 45 -18l9 14t8 11q-35 15 -51 15
q-19 0 -29 -13z" />
    <glyph glyph-name="four" unicode="4" horiz-adv-x="247" 
d="M203 260q-35 -72 -132 -171q74 42 120 100q41 41 41 72q-2 1 -7 1q-1 0 -3.5 -0.5l-7.5 -1.5q-6 -2 -11 0zM75 86q21 -9 36 -9q22 0 61 40q39 41 59 41l-22.5 -38l-22.5 -38q6 -3 10 -3q6 0 19 10t21 10q0 -23 -26 -23h-15q-11 0 -17 -2q-3 -8 -20 -34q-14 -22 -17 -37
q-5 -3 -18 -3h-24l43 66q-4 4 -31 9t-36 11zM11 66v-15q4 13 29 21q23 8 29 14z" />
    <glyph glyph-name="five" unicode="5" horiz-adv-x="249" 
d="M179 263q-28 -66 -82 -131l2 -4q45 38 70 34q25 -5 29 -41q-15 -56 -67 -102q-29 -12 -53 -12t-39 14t-11 38q7 28 24 28q6 0 25 -8t26 -8q15 0 21 18q-2 7 -10 11q-18 8 -35 8t-30 -7q-27 -14 -27 -43q0 -20 9 -38q23 -16 60 -20q46 0 81 29q58 48 58 94q0 15 -9 29
q-20 29 -41 29q-7 0 -23 -4q-13 -3 -22 -1q12 14 22 35q4 18 24 18q8 0 23 -3t23 -3q7 0 19 5q26 11 26 23q0 3 -2 9l-23 -3q-5 -1 -11.5 -1.5t-14.5 -0.5q-21 0 -42 8z" />
    <glyph glyph-name="six" unicode="6" horiz-adv-x="225" 
d="M109 229q-96 -81 -96 -166q0 -16 3 -32q8 -23 28 -29q5 -1 16 -1.5t28 -0.5q29 8 58 34q30 27 39.5 55t9.5 41q0 12 -5 25q-10 22 -34 22q-8 -2 -16 -3l-16 -2q-40 -22 -48 -71q5 2 10 16t12 20q19 14 36 14q7 0 10 -1q18 -8 18 -32q-1 -4 -1 -8v-8q-2 -9 0 -14
q-10 -20 -17.5 -33t-14.5 -21q-23 -26 -55 -26q-30 9 -30 46q8 63 41 114q10 14 21.5 27.5t25.5 25.5q35 32 62 32q11 0 19 -27q7 -27 20 -27q10 0 23 7q1 2 1 7q0 7 -5.5 18.5t-5.5 14.5q-20 18 -47 18q-40 0 -90 -35z" />
    <glyph glyph-name="seven" unicode="7" horiz-adv-x="143" 
d="M41 206l47 39q64 -27 86 -25q-44 -38 -84 -94l-79 -108v-18h21q9 0 14 3q62 141 175 254q-15 -17 -33 -17q-8 0 -36 11q-27 12 -39 12q-14 0 -27 -10l-8 6q-2 2 0 4q-10 -3 -20 -27q-10 -23 -17 -30z" />
    <glyph glyph-name="eight" unicode="8" horiz-adv-x="206" 
d="M169 261q-63 0 -63 -56q0 -20 10 -41q0 -17 -31 -27q-20 -7 -31.5 -12t-14.5 -7q-28 -25 -28 -52q0 -3 5 -21q6 -21 29 -33q19 -12 43 -12q33 0 58 16q42 25 42 64q0 22 -22 69l37 15q36 15 36 48q0 56 -70 49zM130 216q0 35 36 35q30 0 42 -25q2 -10 2 -12
q0 -26 -18 -41q-4 -1 -12.5 -7.5t-15.5 -6.5h-3t-3.5 2t-6.5 8t-11 18q-10 17 -10 29zM121 139q37 -38 37 -68q-4 -14 -6 -23t-3 -11q-12 -27 -55 -27q-26 0 -36 16q-17 23 -17 40t10 30q17 39 70 43z" />
    <glyph glyph-name="nine" unicode="9" horiz-adv-x="245" 
d="M192 263q-46 -7 -85 -46q-36 -38 -36 -86q0 -26 9 -36.5t35 -10.5q11 0 26 5q53 32 53 67l-12 -18q-29 -33 -48 -33q-8 0 -12 4q-20 11 -20 39q0 2 5 27q3 11 9.5 22.5t15.5 22t20 18.5t22 11q4 4 12 4q19 0 30 -16.5t11 -36.5q0 -25 -18 -58l-20 -37.5t-8 -16.5
q-59 -80 -103 -80q-2 0 -6 0.5t-9 1.5q-19 12 -19 34q0 7 1 10l-31 2q-1 -2 -1 -9q0 -9 5 -18t13.5 -15.5t18.5 -11t19 -4.5q26 0 82 30q44 23 74 71t30 97q0 22 -4 37q-12 30 -59 30z" />
    <glyph glyph-name="colon" unicode=":" horiz-adv-x="128" 
d="M38 52q-24 0 -24 -24t24 -24t24 24t-24 24zM96 198q-23 0 -23 -24q0 -23 24 -23q23 0 23 23q0 24 -24 24z" />
    <glyph glyph-name="semicolon" unicode=";" horiz-adv-x="111" 
d="M95 198q-24 0 -24 -24q0 -23 25 -23q23 0 23 23q0 24 -24 24zM43 52q-23 0 -23 -24q0 -13 7.5 -18.5t7.5 -10.5q0 -31 -24 -47q11 5 26 24q5 8 10.5 15l10.5 14q2 5 5 11t5 12q0 24 -25 24z" />
    <glyph glyph-name="equal" unicode="=" horiz-adv-x="298" 
d="M27 163v-19h245v19h-245zM27 76v-19h245v19h-245z" />
    <glyph glyph-name="question" unicode="?" horiz-adv-x="322" 
d="M385 389q-12 32 -42 50t-65 18q-29 0 -63 -14t-58 -39q-28 -28 -28 -63q0 -27 3 -40q5 -23 36 -23q44 0 44 36q0 11 -9 20.5t-20 9.5t-29 -12q-1 5 -1.5 9t-0.5 6q0 38 37 71t75 33q17 0 37 -6q47 -15 47 -51q0 -67 -53 -123q-10 -10 -99 -79q-54 -41 -52 -73
q1 -24 27 -24q16 0 31 14t19 30q-7 -7 -20 -23q-12 -12 -24 -12q-3 0 -11.5 3.5t-8.5 15.5t13 28q10 14 78 49q69 34 93 66q47 62 47 102q0 10 -3 21zM133 66q-14 0 -26 -10t-14 -23q-2 -14 6 -23.5t22 -9.5t25.5 9.5t13.5 23.5q4 33 -27 33z" />
    <glyph glyph-name="A" unicode="A" horiz-adv-x="835" 
d="M1076 613q-14 10 -24 11t-21 1q-56 0 -94 -29q-19 -14 -41 -36t-48 -52l-49.5 -56.5t-34.5 -34.5l-33.5 37.5t-16.5 17.5q-21 15 -49 15q-32 0 -60 -28q-22 -43 -22 -99q0 -80 38 -139q-38 -110 -186 -183q-57 -19 -119 -19q-106 0 -165 59q-69 69 -69 145q0 21 9 63
q10 42 57 90q48 48 91 63q39 10 77 10q97 0 141 -54q30 -38 30 -85v-11q0 -38 -40 -82q-41 -44 -102 -44q-27 0 -54 11q-50 20 -50 53q0 14 10 26.5t24 15.5q-13 16 -32 13q-34 -10 -34 -47q0 -14 7 -28t22 -26t37.5 -19.5t53.5 -7.5q90 0 157 70q33 40 33 97q0 30 -13 55
q-20 25 -42 42q-47 35 -119 35q-100 0 -217 -90q-77 -77 -77 -164q0 -4 1.5 -15.5t3.5 -30.5q6 -46 53 -93q42 -42 90 -59q35 -11 87 -11q186 0 353 201q47 -38 86 -38l1 25q-53 0 -74 31l61 86.5t43 55.5q20 -45 20 -89q0 -66 -36 -136l-39 -73.5l-28 -51.5q-4 0 1 0t18 -1
q11 0 19 5q14 31 32.5 65.5l41.5 74.5l88 156l45.5 83t30.5 58l33 52.5l24 38.5q30 46 70 70zM1039 603l4 -4q-72 -67 -148 -191l-61 -104l-61 -105q8 35 12 65t4 53q0 40 -11 73l60 93q20 28 39 49.5t37 35.5q46 37 100 37q4 0 10 -0.5t15 -1.5zM660 454q41 0 81 -64
q-24 -59 -107 -151q-44 58 -44 117q0 37 14 62q6 10 10.5 16.5t10.5 10t14.5 5.5t20.5 4z" />
    <glyph glyph-name="B" unicode="B" horiz-adv-x="768" 
d="M534 624q-255 -39 -327 -203q-10 -31 -10 -62q0 -53 34 -80q27 -21 64 -21q24 0 84 15q46 22 74 65.5t28 94.5q-5 18 -21.5 26.5t-35.5 5.5q-20 -9 -20 -29q0 -4 1 -7q5 0 11.5 0.5t14.5 1.5q10 0 20 -8q5 -18 5 -29q0 -46 -48 -88q-32 -27 -87 -27h-8q-4 0 -10 1h-18
q-56 30 -56 88q15 150 200 224q63 18 126 18q118 0 183 -54l-80 -64q-62 -50 -143 -188q-85 -144 -101 -167q-62 -84 -148 -119q-26 -6 -53 -6q-37 0 -66 10q-64 21 -64 52q0 26 19 39q-2 8 -12 8h-13q-24 -8 -24 -40v-9q0 -4 1 -11q10 -30 60 -53q20 -4 38 -6t35 -2
q107 0 190 72q38 33 76 78.5t76 105.5q1 2 32 53l93 154l48 52q26 27 55 33q35 -47 35 -93q0 -30 -16 -58q-17 -41 -70 -56l-95 -18v-8l60 -2q52 -33 52 -95v-15q0 -60 -37 -110q-37 -51 -92 -70q-15 -3 -32 -3q-40 0 -62 18q-18 28 -18 52q0 15 8 28h-8q-29 -21 -29 -55
q0 -21 18 -37q25 -24 65 -24q58 0 138 62q40 49 56 76q26 47 26 90q0 32 -13 59q-23 25 -30 42q7 1 15.5 5t19.5 11q7 4 33 21q33 27 47 104q-6 53 -45 98q66 24 142 24q82 0 151 -26q7 0 18 -11q13 -11 14 -11q3 0 8 3q-30 33 -89 57q-39 16 -95 16q-93 0 -168 -45
q-45 36 -110 43q-14 2 -44 3t-76 1z" />
    <glyph glyph-name="C" unicode="C" horiz-adv-x="577" 
d="M590 623q-130 -30 -236 -116q-105 -87 -157 -209q-5 -1 -21 -1q-29 0 -50 10q-60 24 -60 98q0 27 9 53q16 27 44 46q13 9 57 30q-23 -5 -44 -14.5t-40 -22.5q-55 -40 -55 -97q0 -42 37 -80q17 -15 58 -23q47 -9 61 -15q-21 -63 -21 -117q0 -89 55 -138q49 -27 109 -27
q94 0 198 65v11q-57 -45 -103 -55q-7 -1 -13 -1h-13h-27q-95 0 -131 38q-42 43 -42 112q0 61 31 124q57 0 119 35q36 20 103 74q10 -3 26 -31q17 -28 29 -29q30 -12 59 -12q59 0 126 43q66 58 66 133q0 14 -1 18q8 8 8 13q0 2 -8.5 11.5t-8.5 16.5q-47 59 -137 59
q-5 0 -11.5 -0.5t-15.5 -1.5zM543 601h33q91 0 128 -34q30 -50 30 -84q0 -37 -38 -87q-25 -32 -57 -44q-26 -9 -73 -9h-12q-30 15 -42 45q-3 10 -3 19l2 21t3 21q-11 3 -38 -22l-18 -16.5l-17 -16.5q-77 -65 -197 -86q46 105 117 182q84 88 182 111z" />
    <glyph glyph-name="D" unicode="D" horiz-adv-x="671" 
d="M1056 544q-27 80 -165 80q-136 0 -232 -98q121 71 236 71q66 0 115 -25q10 -2 23 -15t23 -13zM408 625q-91 0 -185 -42q-108 -49 -137 -123q-24 -63 -24 -92q0 -71 37 -114q30 -35 92 -35q14 0 31.5 2t40.5 6q60 27 94 76t34 112q-4 23 -22 39t-41 16q-62 -11 -78 -54
q43 31 71 31q24 -15 32 -22q17 -15 17 -53q0 -49 -65 -112q-41 -18 -85 -18q-41 0 -68 13q-29 13 -57 78q-1 5 -1 24q0 135 139 228q89 31 141 31q147 0 247 -115q-29 -26 -57 -62.5t-54 -82.5l-58.5 -103l-40.5 -72q-52 -88 -127 -142q-14 0 -36.5 2t-51.5 6t-51 6t-36 2
q-11 0 -20 -0.5t-16 -1.5q-23 -5 -23 -18q0 -4 1 -6q32 -29 97 -29q36 0 80 9q25 -4 49 -5.5t47 -1.5q220 0 319 147q68 83 68 197q0 56 -16 104q-39 85 -116 132q-73 43 -171 43zM625 488q50 -67 50 -160q0 -80 -38 -154q-35 -68 -90 -108q-62 -44 -132 -44l-55 8
q-47 6 -57 9q79 44 123 107q17 25 41.5 68t56.5 106q58 114 101 168zM80 29q16 19 39 19l100 -30q-29 -10 -69 -10q-49 0 -70 21z" />
    <glyph glyph-name="E" unicode="E" horiz-adv-x="509" 
d="M488 623q-138 -43 -159 -157q-25 -31 -110 -31h-18q-22 0 -41.5 7.5t-34 20.5t-23 31.5t-8.5 39.5q0 37 29 55q3 3 10 6t14 5t13 4t8 4q-8 2 -10 2q-5 0 -16 -2t-17 -2q-27 -8 -45.5 -28.5t-18.5 -47.5q0 -43 32 -66q53 -40 129 -40q48 0 98 14l4 -30l-57 -14l-57 -14
q-68 -21 -102 -50q-78 -71 -78 -168q0 -35 12 -68q32 -61 91 -77q43 -17 89 -17q110 0 206 81q81 55 81 145q0 16 -3 33q-23 60 -117 67q-54 -5 -98.5 -37t-68.5 -81q-3 -26 -3 -36q0 -40 22 -56q53 -17 57 -17q2 0 6 0.5t9 1.5q43 22 39 48q1 19 -19 19q-7 0 -11 -3v-22
q-9 -12 -34 -12h-14q-47 23 -40 67q4 31 34 61q53 52 97 52q29 0 93 -38q23 -35 23 -72q0 -57 -57 -111q-77 -75 -171 -75q-97 0 -158 64q-28 37 -28 93q0 49 31 99q34 57 117 95q73 33 148 33q-5 17 -5 27q0 41 39 50q15 15 23 15q5 0 14 -26q11 -27 25 -28q19 -10 40 -10
q41 0 88 47q41 41 41 76q0 17 -12 37q-23 38 -93 38q-5 0 -14 -0.5t-21 -1.5zM394 551q35 62 106 62q46 0 68 -20q28 -27 28 -53q0 -18 -7 -38q-14 -16 -22.5 -24.5l-10.5 -10.5q-21 -18 -43 -18q-16 0 -30 7q-16 13 -16 35q0 10 3 18q12 19 12 25q0 4 -3 7q-12 -4 -53 -34
q-33 -26 -58 -31q8 44 26 75z" />
    <glyph glyph-name="F" unicode="F" horiz-adv-x="551" 
d="M126 458q-5 -20 -5 -33q0 -51 39 -81q28 -28 89 -28q10 0 29.5 1t29.5 1q80 14 158 121q5 12 5 22q0 12 -6 23q-11 18 -35 18h-13q-49 0 -84 -31l25 13q18 5 29 5q26 0 44 -15q9 -5 9 -18q0 -11 -4 -22l-9 5l-7 -15l7 7l4 -3q-56 -105 -142 -105q-91 0 -121 68q0 4 -8 25
q-8 22 -8 30q0 13 25 44q65 79 122 88q81 23 186 23q31 0 76 -3t106 -8t106 -7.5t76 -2.5q96 0 160 16q22 10 22 30q0 2 -2 8q-86 -23 -212 -23q-23 0 -57.5 1t-81.5 3t-81.5 3t-57.5 1q-139 0 -229 -29q-113 -37 -184 -132zM543 336q-5 -24 -43 -24h-10q-5 0 -12 1
q-134 -39 -191 -225q-4 -7 -4 -21v-7q0 -4 1 -9v-16q0 -12 -5 -22q-12 -21 -93 -21q-97 0 -150 59q-4 7 -4 17q0 11 8 27l8 17.5t4 8.5l-24 4q-31 -19 -31 -49q0 -6 1 -9q2 -26 24 -44l72 -39h18h13t19 -1h33q19 0 42 3q4 0 11.5 2.5l15 5t14.5 4.5t10 2q14 0 24 -37
q11 -41 25 -46q0 11 -12 46q-11 32 -8 46q133 42 257 262q7 -4 7 -18v-10t-1 -12q18 -3 29 11q3 9 3 18q0 31 -27 49q20 62 73 137q26 36 51.5 66t51.5 53q-62 -36 -120 -99q-66 -71 -80 -130zM434 268q5 0 13 2.5l17 5.5t17.5 5.5t14.5 2.5q9 0 12 -1q-23 -49 -43.5 -86
t-39.5 -63q-56 -79 -126 -109q0 75 35.5 139.5t99.5 103.5z" />
    <glyph glyph-name="G" unicode="G" horiz-adv-x="698" 
d="M794 589q-64 26 -130 26q-89 0 -188 -47q-70 -33 -167 -103q-4 -3 -19.5 -18l-43.5 -43q-43 -41 -60 -41q-9 0 -37 9q-40 10 -70 37q-35 30 -35 67q0 43 47 70q6 6 35 16q28 9 33 17q-64 0 -123 -53q-25 -40 -25 -60q0 -13 4 -21q49 -76 188 -95q-19 -35 -29.5 -56.5
t-13.5 -29.5q-21 -50 -21 -93q0 -72 42 -121q42 -50 124 -50q72 0 150 42q26 14 58.5 36t72.5 53l4 -4l-147 -214q-124 -181 -370 -181q-50 0 -88 7q-153 58 -153 152q0 66 31 84q4 2 10.5 4t17.5 4q19 5 21 7q-18 18 -49 18q-32 -6 -48 -36q-8 -15 -19 -60q0 -100 94 -152
q89 -34 189 -34q113 0 214 39q114 44 175 126q16 21 42.5 62t63.5 104q32 54 60.5 94.5t52.5 67.5l-181 -137q-81 -43 -112 -52q-56 -17 -76 -17q-31 -1 -58 12.5t-46.5 36.5t-30 52.5t-8.5 59.5q0 37 10 63q6 21 28 54q24 38 29 55l240 57l-4 -19q9 -71 55 -83
q36 -10 66 -10q122 0 245 157q2 10 3.5 18.5t1.5 16.5q0 37 -20 66zM507 567q43 23 80.5 28t53.5 5q119 0 157 -80q14 -19 14 -45q0 -18 -8 -42q-96 -131 -187 -131q-25 0 -44 6q-49 16 -55 68q0 39 36 66l-180 -58l-116 -19q13 21 33.5 42t48.5 43l48 37l47 36l53 32.5
t19 11.5z" />
    <glyph glyph-name="H" unicode="H" horiz-adv-x="1047" 
d="M1148 551q-11 -8 -36 -39q-22 -27 -41 -33l4 -2l-64 -71l-63 -73.5l-46 -53.5q-58 -67 -93 -74q-50 -12 -70 -12q-30 0 -43 9l117 191q12 0 25 -5q29 -15 29 -30q0 -7 -9 -20.5t-10 -19.5l19 -9q35 14 35 52q-9 19 -31 31q-8 5 -42 16l50 97q18 70 139 116
q-40 -22 -98 -22q-37 0 -108 13t-109 13q-90 0 -143 -65v-9q0 -45 15 -63q25 -25 102 -25q22 10 35 16.5t18 10.5q28 17 37 44l-51 -43q-14 -2 -26.5 -3t-23.5 -1q-31 0 -55 11q-29 14 -29 56v12q40 46 108 46q32 0 100 -14q34 -7 59 -10.5t42 -3.5q16 0 33 3
q-2 -2 -3.5 -9.5t-5.5 -9.5l-61 -78l-60 -78l-37 -4q-46 -4 -94 -37q-43 -29 -50 -75q-5 -18 -5 -30q0 -51 38 -78q-10 -28 -32 -51l-25 -26l-18 -18q-107 -88 -235 -88q-62 0 -113 25q-53 16 -84 66q-32 47 -36 103q0 75 80 155q62 38 138 38q146 0 146 -108q0 -12 -1 -15
q-3 -50 -50 -97q-41 -23 -77 -23q-18 0 -30 4q-42 22 -42 51q0 36 47 47q-5 5 -10 5q-3 0 -12.5 -3.5t-16.5 -1.5q-40 -27 -40 -51q0 -11 7 -25q13 -31 80 -37q130 14 179 125q1 13 1.5 23.5t0.5 18.5q0 43 -22 62q-61 34 -144 34q-109 0 -179 -51l-25 -28.5l-20 -23.5
q-44 -53 -44 -106q0 -14 1 -19q0 -54 41 -101q37 -44 92 -61q28 -5 53.5 -8t50.5 -3q220 0 363 168h9h5q4 0 9 -1q124 0 228 116l4 -5l-60 -108q-16 -28 -26.5 -48t-15.5 -31q-15 -33 -15 -49q0 -19 13 -26q12 -3 24 -3q43 0 69 22q58 40 69 63l-37 -32t-18 -15
q-36 -27 -64 -27q-21 9 -21 31q0 1 11 31q14 38 56 103l33 50l33 50l42 70.5l29 50.5q115 196 284 196q23 0 47 -3q9 -3 27 -21q21 -18 28 -19q8 5 8 18q0 11 -4 22q-38 22 -89 22q-93 0 -200 -74zM939 591h-6v5h6v-5zM635 291q0 68 49 84q31 10 90 18q-24 -23 -57 -91
q-31 -67 -55 -89q-27 30 -27 78z" />
    <glyph glyph-name="I" unicode="I" horiz-adv-x="618" 
d="M803 589l3 -3q-54 -44 -109 -134q-13 -22 -36 -64.5l-56 -107.5q-28 -55 -50.5 -94.5t-40.5 -64.5q-41 -57 -89 -80q-16 -8 -44 -16t-70 -16h-36q-61 0 -107.5 21t-73.5 67q-25 43 -25 95q0 49 24 84q54 98 185 98q50 -13 79 -29q22 -12 27 -32t9 -41v-11q0 -51 -36 -90
t-87 -39q-18 0 -30 4q-44 23 -44 53q0 13 10 30q5 10 8.5 16t4.5 9q-22 -14 -43 -41q-3 -9 -3 -19q0 -30 21.5 -46t52.5 -16q26 0 101 29q74 65 74 130q0 53 -62 88q-31 20 -69 20q-54 0 -133 -40q-50 -26 -83 -80q-33 -53 -33 -109q0 -91 81 -133q40 -27 101 -27
q40 0 159 25q119 39 172 114q14 20 48 81.5l88 164.5q82 157 155 223q34 7 33 17q-9 0 -39 -14q-29 -14 -37 -22zM486 596q18 6 36 6q32 0 98 -25t94 -25q42 0 78 30q-24 -10 -52 -10q-29 0 -93 21q-63 22 -92 22q-38 0 -69 -19zM479 588q-51 -39 -51 -77q0 -33 24 -48
l33 -15q13 -3 27 -3q54 0 119 56l-2 8q-2 -7 -4 -9q-30 -36 -91 -36q-31 0 -55.5 13.5t-24.5 47.5q0 35 25 63z" />
    <glyph glyph-name="J" unicode="J" horiz-adv-x="908" 
d="M686 579q-27 -11 -27 -50q0 -15 4 -24q16 -30 47 -40q19 -6 63 -6h18q67 28 76 48q-8 -2 -22 -13q-14 -13 -21 -14q-5 -1 -10 -1h-10h-21q-35 0 -59 8q-43 13 -43 54q0 25 25 51q29 19 61 19q34 0 90 -27q63 -31 86 -36q13 -6 30 -6q20 0 49 10q37 13 48 14
q-39 -34 -72 -69.5t-61 -73.5q-22 -30 -53 -77l-71 -111l-71 -111.5t-54 -78.5q-39 30 -39 68q0 4 3 18q6 32 44 32q5 0 13 -3q9 -3 12 -18t10 -16q14 12 11 32q2 19 -29 38q-3 1 -11 1q-16 0 -50 -19q-21 -37 -19 -57q0 -42 55 -88q-35 -54 -76.5 -105t-90.5 -100
q-116 -116 -261 -116q-27 0 -49 3q-93 15 -141 79q-56 74 -56 145q0 97 86 183q-114 -74 -114 -240q9 -61 58 -109q75 -72 199 -72q141 0 275 99q109 81 201 218q7 -1 12 -1.5t9 -0.5q67 0 137 62l-6 5l-37.5 -24t-37.5 -23q-8 0 -23 -3.5t-22 -3.5q-11 0 -21 8
q37 57 108 180l60 103.5l32 54.5q29 48 56.5 84t52.5 62q17 19 32.5 32t28.5 21q18 11 73 34q-28 3 -76 -18q-56 -25 -78 -25q-39 0 -117 30t-116 30q-57 0 -100 -46zM109 132q76 58 181 58q98 0 138 -52q28 -38 28 -83t-24 -99q-71 -99 -183 -99q-54 0 -79 25t-25 56
q0 28 15 48q23 24 53 32q-2 -5 -26 -22q-19 -16 -19 -33q-1 -2 -1 -9q0 -28 24 -52q19 -25 77 -39q46 0 87 29q77 57 77 130q0 72 -57 114q-52 38 -125 38q-55 0 -99 -23q-27 -18 -42 -19z" />
    <glyph glyph-name="K" unicode="K" horiz-adv-x="746" 
d="M986 625q-64 -10 -112 -52q-41 -35 -96 -108q-60 -79 -92 -111l-30 -12q-21 -9 -35 -9q-13 0 -21 4q47 105 72 145q44 74 107 118q4 4 24 4q12 0 13 10q-21 0 -61 -23q-51 -30 -80 -30q-34 0 -106 28q-75 29 -109 29q-42 -13 -73 -33q-49 -31 -49 -66q0 -29 10 -53
q33 -37 90 -37q12 0 16 1q82 27 97 66q-5 -1 -17 -13q-26 -29 -79 -29q-34 0 -70 14q-2 4 -6.5 10l-10.5 14q-8 15 -7 29q21 78 78 78q24 0 99 -29t107 -29q19 0 34 5q12 12 22 12q5 0 9 -4q-68 -78 -143 -204l-129 -213q-105 -127 -226 -127q-38 0 -73 13q-8 7 -17 13.5
t-18 14.5q-21 16 -21 42q0 36 33 59l-13 10q-3 1 -12 1q-41 0 -41 -49q0 -11 9 -48q34 -66 147 -66q45 0 84 12t73.5 34.5t66 54.5t61.5 73q6 8 31.5 45l71.5 104q6 2 10 2q10 0 32 -13q16 -22 16 -50q0 -32 -40 -99q-22 -37 -33.5 -60t-13.5 -33h-4q-1 -3 -1 -11
q0 -10 7 -23q10 -20 12 -21q13 -7 29 -7q19 0 50 19l33 20t15 8v18q-35 -48 -87 -48q-25 12 -21 49q68 131 75 175q0 47 -39 77l58 27q48 23 108 107q64 87 78 101q47 46 114 46q18 -8 18 -26q0 -8 -4 -23h22q20 15 15 32q-4 19 -22 26q-8 5 -35 9z" />
    <glyph glyph-name="L" unicode="L" horiz-adv-x="564" 
d="M509 599q-97 -39 -115 -97q-13 -40 -27 -140q-15 -104 -27 -152q-23 -82 -59 -120h-31q-149 0 -214 -41q-3 -27 18 -38q17 -4 40 -4q59 0 114 31q23 26 56 26q22 0 57 -12q21 -7 35 -11t21 -5q13 3 48 -17q34 -19 41 -19q18 0 30 26q-44 23 -100 39q-13 4 -39 10l-67 15
q70 58 94 164q15 67 15 193q17 58 57 101q43 47 98 58q28 5 36 5q66 0 106 -52q18 -54 18 -75q0 -15 -8 -33q-12 -50 -40 -82q-30 -36 -76 -47h-15q-25 0 -41 6q-30 10 -30 40q0 13 22 23q24 11 25 18l-13 14q-6 3 -14 3q-15 0 -29 -8q-20 -17 -20 -59q0 -20 43 -45
q15 -3 29 -3q67 0 129 53q68 73 68 142q0 26 -9 53q-35 66 -124 66q-55 0 -102 -26zM89 66q29 7 72 7q45 0 75 -8q-56 -34 -109 -34q-28 0 -49 8q-3 3 2 13.5t9 13.5z" />
    <glyph glyph-name="M" unicode="M" horiz-adv-x="1138" 
d="M1444 625l-38 -29q-6 -1 -10.5 -1.5t-7.5 -0.5q-14 0 -39 7t-41 7q-32 12 -62 12q-87 0 -193 -100q1 7 11 34q8 22 8 37q-12 26 -50 32q-101 -16 -208 -135q-4 3 -4 11q-6 44 -34 78q-39 47 -96 47q-60 0 -124 -52q-63 -51 -63 -126q0 -25 9 -49q43 -57 76 -57
q27 0 51 24t19 50q-6 34 -29 26q3 -9 3 -18q0 -42 -43 -42q-14 0 -29 4q-43 22 -43 92q12 40 40 74q47 56 113 56q56 0 88 -35q24 -42 24 -90q0 -60 -38 -136q-37 -72 -68 -127q-17 -30 -64 -80l-74 -74q52 34 97 76.5t80.5 92t61.5 104.5t41 114q95 155 210 155
q23 -12 23 -28q0 -5 -20 -37l-106 -168l-133.5 -216.5l-90.5 -152.5h37q17 25 44.5 71l67.5 113l70.5 117t53.5 82q75 108 152 178q40 28 95 28q53 0 116 -24l-58.5 -33.5t-40.5 -25.5q-260 -228 -282 -459l3.5 -7t6.5 -15q9 -24 42 -24q60 0 128 78l-2 3q-14 -8 -36 -33
q-35 -38 -64 -38q-44 0 -44 46q2 14 4.5 28t4.5 28q71 208 254 391q12 4 60 41q37 28 65 28q15 0 26 -4q18 5 34.5 20t15.5 32zM169 358q-100 -67 -100 -167q0 -23 7 -47q12 -48 84 -110q67 -34 159 -34q64 0 100 10q11 3 33 12l56 23q10 6 14 18q-21 -11 -38 -19t-30 -15
q-49 -23 -116 -23q-146 0 -209 108q-26 44 -26 98q0 40 18 76q65 98 199 98q75 0 124 -97q3 -15 3 -30q0 -23 -8 -43.5t-22.5 -37t-36 -26t-48.5 -9.5q-19 0 -35 3q-48 36 -48 57q0 2 0.5 5t1.5 8q9 21 36 21q9 0 11 -1v12q-12 15 -33 15q-12 0 -17 -4q-31 -7 -31 -47
q0 -27 19 -46q33 -36 83 -36q64 0 120 53q36 28 36 85q0 19 -5 41q-50 93 -155 93q-81 0 -146 -44z" />
    <glyph glyph-name="N" unicode="N" horiz-adv-x="897" 
d="M376 16q-30 -11 -64 -11q-43 0 -79 13q-147 46 -147 197q4 24 14.5 46.5t25 41t33 33t39.5 21.5q57 17 80 17q51 0 92 -37q42 -36 42 -85q0 -13 -6 -40q-3 -17 -13.5 -31t-24.5 -25t-31 -17t-34 -6q-10 0 -25 3q-9 1 -19 7.5t-18 15t-13 19t-5 19.5v5q0 3 2.5 11t18.5 16
q2 1 7.5 3.5t15.5 6.5q-5 18 -25 18q-8 0 -19 -7q-25 -13 -25 -61q0 -31 28 -50q25 -16 58 -16q56 0 105 43q50 44 50 98q0 17 -14 50q-30 69 -143 69q-21 0 -66 -6q-42 -4 -90 -40q-48 -37 -59 -78q-12 -48 -12 -73q0 -63 42 -111q69 -78 185 -78q56 0 104 16
q69 22 189 116q59 47 100 134l41 94.5l30 68.5q38 85 98 138q41 26 98 26q50 0 109 -18q-60 -42 -109 -86l-80 -100.5t-48 -62.5q-93 -128 -93 -264q0 -16 9 -26q12 -18 54 -18q37 0 64 29q4 4 14 19.5l27 41.5q-8 -24 -39 -51q-31 -26 -54 -26q-25 0 -40 22q-13 19 -13 44
q0 37 46 122l41.5 78l32.5 60q43 76 97 132q63 66 149 95l32 17q16 9 15 27h-10q-23 -24 -57 -24q-10 0 -24 2t-34 6q-38 9 -57 9q-15 0 -19 -1q-101 0 -204 -151q-7 57 -31 92q-35 48 -99 48q-62 0 -127 -62q-48 -62 -48 -117q0 -18 6 -34t17 -28t25.5 -19.5t32.5 -7.5
q16 0 32.5 7.5t24.5 21.5q7 8 14 32q-1 2 -3 6.5t-5 12.5q-5 6 -9 6q-3 0 -7 -3q2 -2 2 -17q0 -13 -25 -35q-8 -3 -17 -3q-26 0 -45 16q-29 23 -29 60q0 112 115 148q2 0 12 2h12q76 0 104 -58q12 -41 12 -78q0 -44 -25 -110q-31 -83 -131 -191q-101 -107 -183 -139z" />
    <glyph glyph-name="O" unicode="O" horiz-adv-x="484" 
d="M507 623q-137 -13 -268 -110q-134 -100 -175 -228q-5 -18 -11 -36l-12 -35q-12 -42 -12 -73q0 -58 38 -105q40 -48 98 -48q80 0 202 93l60.5 64.5l42.5 48.5q85 101 85 207q0 14 -1 25.5t-3 21.5q-17 24 -27 36q-16 19 -54 19q-57 0 -148 -72q-22 -31 -34.5 -50.5
l-17.5 -27.5q-26 -47 -26 -88q0 -30 11 -49t24 -24q9 -3 33 -3q29 18 29 28q0 3 -2 9q-7 1 -18 -4t-16 -5q-8 0 -12 4q-11 4 -19.5 16.5t-9.5 35.5q-2 64 48 126q46 57 109 83q12 3 23 3q35 0 62 -27q17 -39 17 -76q0 -46 -23 -95q-29 -60 -61 -99q-22 -35 -44 -61.5
t-45 -45.5q-54 -45 -119 -62h-9h-7q-5 -1 -11 -1q-40 -1 -72.5 12.5t-51.5 51.5q-16 33 -16 72q0 30 36 131q48 131 161 226q122 101 254 101q64 -9 99 -23q51 -23 71 -68q3 -9 3 -18q0 -28 -24 -50q5 -8 12 -8q16 0 35 19q9 18 9 42q0 21 -8 40q-66 80 -170 80q-7 0 -35 -3
z" />
    <glyph glyph-name="P" unicode="P" horiz-adv-x="681" 
d="M746 621q-14 2 -25 3t-18 1h-30q-274 0 -420 -188q-32 -66 -32 -105q0 -37 24 -67q32 -29 83 -29q43 0 91 17q76 38 77 57q-74 -56 -135 -56q-19 2 -31.5 4t-18.5 4q-25 7 -40 27q-14 26 -14 49q0 16 4 28q29 183 300 244h43q87 0 135 -14q72 -23 99 -85q6 -18 6 -34
q0 -28 -20 -60q-5 -7 -15 -19.5l-26 -31.5q-47 -32 -85 -32q-11 0 -23 3q11 36 44 87l28 41l28 41q2 5 14 14t14 15q-48 -29 -95 -86q-14 -17 -33 -43.5l-43 -61.5h-13q-45 28 -45 67q-2 19 16 29q2 2 11 5l23 8q-2 15 -22 15h-20q-31 -15 -31 -49q0 -12 6 -26t30 -33
q0 -2 36 -27q-40 -85 -92 -159q-122 -171 -282 -171q-48 0 -122 25q-58 37 -51 73q3 12 20 23t19 16q-5 12 -19 12h-8q-4 0 -11 -1q-35 -9 -35 -58q0 -36 34 -60q64 -33 144 -33q128 0 246 70l83.5 91l27.5 30q66 77 89 133q81 0 142 41q68 47 68 126q0 22 -4 37
q-14 37 -49 62t-77 31z" />
    <glyph glyph-name="Q" unicode="Q" horiz-adv-x="489" 
d="M424 611q65 14 110 14q126 0 162 -82q1 -7 1.5 -12t0.5 -9q0 -45 -31 -61h-19q23 20 23 51q0 13 -14 46q-17 34 -72 48q-12 5 -91 15zM399 603q6 0 15 4q0 -4 -4 -4h-11zM391 601q-91 -22 -174 -94q-80 -69 -129 -154q-55 -95 -55 -190q0 -53 17 -99q34 -57 115 -57
q10 0 20.5 1.5l23.5 3.5q21 21 42 21q12 0 48 -17q33 -16 49 -16q15 0 34 10q89 29 89 84q-11 -2 -15 -14q-4 -15 -10 -19l-12 10v-8q2 -5 4 -6q-5 -2 -21 -18q-15 -15 -27 -15q-9 -4 -22 -4q-29 0 -66 30q73 60 124 117q111 123 111 269q-6 44 -59 74q-14 3 -25 3
q-33 0 -100 -35q-124 -93 -124 -214q0 -16 1 -21l18 -29q13 -16 29 -16q4 -4 12 -4q7 0 35 20q6 13 6 22q0 12 -12 17l-14 -19h-11q-5 0 -10 1q-16 1 -25 25q-7 17 -7 37q0 53 60 134q67 64 119 64q12 0 26 -3q48 -38 48 -66v-10v-7q1 -5 1 -11q2 -182 -211 -336l-41 42
q-23 17 -57 17q-24 0 -39 -7q-31 -18 -31 -41q0 -1 2 -9q8 1 13.5 13.5t10.5 15.5q14 10 31 10q7 0 15 -3q37 -20 59 -60q-36 -18 -77 -18q-73 0 -97 63l-18 68q0 145 97 270q90 117 229 178z" />
    <glyph glyph-name="R" unicode="R" horiz-adv-x="697" 
d="M911 625q-54 0 -110 -22q-17 -7 -42.5 -19t-59.5 -30q-66 60 -182 60q-51 0 -134 -16q-69 -13 -135 -70q-65 -56 -84 -122q-1 -4 -1 -11v-15q0 -56 32 -82q38 -23 73 -23q16 0 27 4q63 10 114 66q48 51 63 117q-2 1 -6 1q-5 0 -14 -5.5t-13 -4.5q-11 -53 -22 -83
q-31 -79 -129 -79q-29 0 -49 7q-47 41 -47 80q0 74 56 128q106 101 237 101q120 0 192 -74q-57 -49 -121 -152l-99 -171q-31 -54 -58.5 -90.5t-52.5 -58.5l-17 -15q62 37 128 121l47 87q22 40 46 40q18 0 43 -20q1 -4 1 -18q0 -40 -47 -160l-2 -16q-1 -4 -1 -8v-9
q0 -35 20 -50q47 0 70 14l33 27q17 14 17 29q0 5 -3 11q-7 -15 -26 -34l-13 -12.5t-19 -16.5q-9 -3 -18 -3q-25 0 -32 21q0 27 18 86q19 57 19 87q0 40 -27 72q53 9 99 35q68 39 68 117q0 61 -39 100q89 46 198 46q70 0 130 -23q7 -1 20 -16q14 -14 21 -14t11 4
q-23 44 -78 62q-8 2 -33 7t-69 13zM57 98q-5 -13 -5 -21q0 -25 24 -49q38 -28 92 -28q65 0 155 44q-62 -30 -122 -30q-29 0 -53 7q-61 16 -61 53q0 21 20 30q-6 12 -24 12q-23 0 -26 -18zM689 519q13 -14 19 -38q1 -2 2.5 -12.5t5.5 -30.5q0 -39 -23.5 -73t-59.5 -49
q-50 -14 -68 -14q-12 0 -16 1q55 113 58 117q38 67 82 99zM593 326v-5h6v5h-6zM675 504l2 -8q4 7 4 8h-6z" />
    <glyph glyph-name="S" unicode="S" horiz-adv-x="526" 
d="M464 619q-106 -43 -106 -131q0 -45 39 -148q40 -102 40 -153q0 -27 -7 -48l-17 -29.5t-12 -20.5q-12 -18 -35 -35q-11 -8 -42 -27q-42 -20 -95 -20q-58 0 -104 30q-33 22 -50 61t-17 78q3 20 11.5 38.5t21.5 33t29.5 23t36.5 8.5q30 0 52 -25q1 -3 1 -8q0 -7 -4.5 -20
t-4.5 -18q17 -6 27 -5q16 9 16 32q0 19 -9 42q-13 31 -79 31h-14q-8 0 -19 -1q-33 -7 -56.5 -36.5t-30.5 -65.5q-6 -20 -6 -37q0 -53 47 -111q46 -57 150 -57q41 0 85 11q30 11 56 26.5t48 35.5q60 55 60 131q0 49 -43 142t-43 138q0 59 48 109q34 26 72 26q68 0 97 -68
q3 -11 3 -22q0 -22 -11 -39t-32 -17q-6 0 -22 14q-15 14 -22 15q-13 -9 -10 -29q0 -14 24 -32q8 -4 21 -4q39 0 63 31q16 26 16 58q0 20 -12 46t-48 40q-29 13 -64 13q-25 0 -49 -6z" />
    <glyph glyph-name="T" unicode="T" horiz-adv-x="654" 
d="M552 588q-192 30 -260 30q-86 0 -151 -22l-48 -33t-17 -12q-36 -30 -36 -65q0 -4 0.5 -9t1.5 -12q1 -15 24 -32q4 -3 12.5 -8.5t22.5 -13.5q13 -3 26 -3q80 0 139 81q-3 1 -3 11q-2 6 -3.5 12.5t-3.5 13.5q-6 19 -36 19q-39 0 -56 -29q4 -2 14 8q10 3 20 3q20 0 33 -16
q3 -9 3 -18q0 -24 -14 -41q-38 -31 -66 -31q-52 7 -75 47q-3 12 -3 24q0 34 23 66q58 50 144 50l239 -42l9 -7q-296 -180 -296 -398q0 -19 3 -40q28 -92 105 -114q31 -6 64 -6q81 0 155 38q78 40 121 108q28 43 28 104q0 36 -12 71q-20 32 -60 41q-23 6 -76 6
q-63 -20 -102 -63q-43 -47 -43 -110q0 -54 37 -72q12 -3 23 -3q44 0 83 46q-4 -2 -10.5 -6.5t-14.5 -11.5q-15 -9 -31 -9q-7 0 -16 3q-19 0 -29 12q-14 13 -25 41v16q0 31 32 87q49 55 115 55h14q43 -11 75 -51q16 -31 16 -72q0 -58 -40 -117q-32 -47 -92 -75
q-59 -28 -119 -28q-14 0 -25.5 1t-21.5 3q-79 30 -103 83q-13 38 -13 80q0 61 27 118q43 93 164 211q39 51 114 51q13 0 31 -2t42 -6q25 -4 43 -5.5t31 -1.5q41 0 67 14q-2 0 -6 -0.5t-9 -1.5h-15q-45 0 -159 29q63 28 140 28q64 0 101 -22q0 -19 -38 -33l43 6q30 7 30 31
q0 5 -3 10q-45 21 -102 21q-80 0 -182 -37z" />
    <glyph glyph-name="U" unicode="U" horiz-adv-x="669" 
d="M385 618q-22 7 -63 7q-56 0 -104 -21q-28 -12 -53 -27t-47 -34q-35 -29 -57 -69q-21 -35 -21 -75q0 -24 10 -51q18 -52 100 -61q77 0 151 93q18 28 18 57q0 26 -13 42q-5 11 -19.5 14t-27.5 6q-55 -10 -84 -58l31 23q20 14 39 14q25 -7 29 -7q12 -8 18 -25
q1 -4 2.5 -11.5t3.5 -20.5q-2 -6 -4 -15.5t-6 -22.5q-7 -19 -25 -32q-23 -29 -75 -29q-34 0 -68 10q-54 15 -54 115q11 60 66 109q53 49 113 59q146 0 180 -46q32 -44 32 -90q0 -18 -3 -31q-8 -31 -51 -107l-94 -158.5l-68 -112.5q-1 -8 -1 -15v-15q0 -26 19 -33
q66 0 127 34q45 24 107 80q-2 -12 -17 -36q-16 -25 -16 -41q0 -17 16 -30q16 -6 32 -6q32 0 73 27l32 23t33 23l1 9l-48 -34.5l-16 -11.5q-38 -26 -72 -26q-7 1 -11.5 9.5l-8.5 16.5l56 88l60 98l144 237t98 149l-63 -10q-23 -36 -111 -192l-76 -127.5t-63 -91.5
q-87 -112 -191 -174q-11 -3 -24 -3q-34 0 -47 22q7 23 16 45t22 44q2 3 15 24l38 60l56 88.5l25 39.5q48 87 48 139q0 45 -21 80q-29 48 -88 65z" />
    <glyph glyph-name="V" unicode="V" horiz-adv-x="500" 
d="M1150 542q-28 45 -118 74q-47 9 -89 9q-130 0 -232 -75q-86 -64 -176 -178q-11 -14 -47 -65.5l-99 -139.5l-57 -81q-43 -56 -69 -68q-16 4 -16 21q0 2 96 181q69 128 128.5 220t110.5 150l19.5 12.5t11.5 13.5q-9 -1 -16.5 -2.5t-18.5 -13.5q-35 -38 -99 -38
q-37 0 -118 25t-122 25q-78 0 -127 -46q-57 -53 -57 -98q0 -21 29 -68q44 -35 106 -35q32 0 59 11q94 40 111 99l-57 -54q-40 -31 -100 -31q-47 0 -82 20q-47 38 -47 82q0 31 34 61q36 38 97 38q46 0 173 -40q13 -11 47 -11h18q20 0 32 -4q40 22 68 22l-63 -83.5t-53 -75.5
q-77 -113 -168 -273q-47 -83 -47 -97q0 -8 4 -13q10 -16 25 -16l40 16q26 28 68 82l100 135q111 156 184 224q116 107 252 134h48q77 0 119 -9q63 -14 104 -53v13h-6z" />
    <glyph glyph-name="W" unicode="W" horiz-adv-x="646" 
d="M703 618q35 -26 33 -97v-6q0 -3 -1 -8v-13v-25q-13 -54 -25.5 -99.5t-26.5 -83.5q-68 -184 -207 -248q-17 -4 -36 -4q-37 0 -49 24q-20 20 -20 73q0 49 19 102q20 60 32 78q24 38 67 45q6 -21 6 -40q0 -51 -40 -115l-46 -75.5t-18 -31.5q67 71 96 122q43 71 43 147
q-8 27 -28 27q-8 0 -15 -4q-140 -129 -140 -284q0 -21 3 -42q-61 -29 -86 -29q-18 0 -34.5 7t-26.5 25l-15 33q0 144 89 290q74 122 204 229h-11q-34 -43 -88 -43l-184 46q-94 0 -128 -40q-33 -39 -33 -74q0 -12 1 -15q0 -39 66 -66q13 -4 33 -4q72 0 138 68l1 17
q-3 -5 -5 -8t-4 -5q-20 -26 -34 -26q-5 0 -9 4q-8 -18 -37 -21q-11 -1 -23 -1.5t-23 -1.5q-44 5 -78 44q-6 12 -6 24q0 28 24 60q18 25 68 25q5 -1 15 -1h15q114 -44 174 -44q32 0 57 7q-127 -121 -150 -157q-106 -164 -106 -268q0 -61 29 -111q29 -19 63 -19q27 0 48 12
q34 33 59 33q9 0 35 -24q25 -24 41 -24q11 0 80 36q85 44 161 180q58 106 96 228q0 8 1 19.5t3 27.5l3.5 28t1.5 20q0 35 -16 57q-26 27 -39 27q-10 0 -17 -7z" />
    <glyph glyph-name="X" unicode="X" horiz-adv-x="765" 
d="M482 592q-54 33 -121 33q-76 0 -128 -37q-45 -31 -73 -80q-30 -51 -30 -104q0 -5 0.5 -12.5t1.5 -17.5q13 -46 56 -68q33 -10 60 -10q34 0 56 13q93 55 93 130q0 10 -3 24q-8 24 -43 24q-17 0 -30 -3q-43 -20 -44 -56q4 9 18 23q19 19 36 19q27 0 44 -24q6 -15 6 -32
q0 -19 -13 -41q-16 -27 -50.5 -42t-68.5 -15h-15q-47 17 -71 62q-10 23 -10 53q0 63 42 111q58 66 152 66q43 0 78 -13l59 -45q29 -28 38 -61l3.5 -35.5t1.5 -27.5q0 -97 -51 -200q-55 -108 -132 -157q-97 -61 -168 -61q-54 0 -88 28q-16 16 -16 35t17 30q3 1 8.5 0
t10.5 -3.5t10 -4t8 -1.5q0 21 -22 36q-36 3 -57 -22q-6 -12 -6 -24q0 -32 38 -64q48 -18 93 -18q136 0 285 156q0 -101 40 -132q39 -18 80 -18q48 0 74 22q128 104 128 196q0 14 -5 36q-18 42 -51 42q-6 0 -12 -3q-50 0 -84 -70q2 -1 5 -1q4 0 6 11q16 34 59 34q4 0 10 -0.5
t14 -1.5q22 -10 33 -40q5 -23 5 -35q0 -78 -81 -136q-49 -35 -88 -35q-22 0 -41 9q-34 0 -51 47q0 163 80 305q81 142 223 217q-154 -65 -236 -181q0 19 -7 43q-5 18 -7 28.5t-3 14.5l-14 23t-15 23q-20 28 -37 38zM843 616q6 2 10.5 2.5t8.5 1.5q-4 1 -19 -4zM809 606
q15 3 26 7q-13 1 -26 -7z" />
    <glyph glyph-name="Y" unicode="Y" horiz-adv-x="571" 
d="M128 -263l51 17.5t32 14.5q26 14 74 57q112 103 253 382l66 131.5t24 46.5q59 102 128 152q43 31 86 42q35 8 94 8q24 0 38 -7q26 -14 26 -57v-13q27 0 27 32q0 14 -9 35q-20 44 -99 44q-71 0 -142 -47q-79 -53 -147 -155l-76 -118l-54 -86q-34 -54 -68 -95.5t-68 -72.5
q-7 6 -12.5 11.5l-10.5 10.5q-20 18 -47 18q-60 0 -85 -17q77 62 145 142q108 127 108 228q0 67 -46 119q-56 62 -150 62q-100 0 -158 -50q-23 -21 -39 -37.5t-25 -27.5q-30 -41 -30 -83q0 -23 12 -54q24 -67 122 -67q54 0 98 30q70 48 70 108q0 29 -21 50.5t-50 21.5
q-13 0 -18 -1l-22 -4q-31 -6 -49 -47h8q16 39 52 39q18 0 43 -17q41 -29 41 -62q0 -44 -41 -73q-40 -28 -87 -28q-13 0 -29 3q-48 6 -82 45q-20 42 -20 73q0 53 47 103q58 61 158 61q99 0 143 -66q32 -52 32 -110q0 -106 -95 -228q-38 -48 -100 -104l-56.5 -48.5
l-41.5 -34.5l40.5 29.5t19.5 13.5q36 21 69 21q18 0 45 -9q33 -11 33 -47q23 5 47 26q5 4 14.5 13l25.5 25l4 -3l-51 -92l-28 -49q-49 -79 -100 -127q-68 -63 -139 -80q-29 -7 -51.5 -10t-37.5 -3q-39 0 -72 11q-58 22 -58 54q0 7 4 16.5t15 12.5q1 1 20 4q-5 17 -25 17
q-44 0 -44 -39q0 -15 9 -30t27 -27.5t43.5 -20t58.5 -7.5q54 0 131 24z" />
    <glyph glyph-name="Z" unicode="Z" horiz-adv-x="691" 
d="M822 621l-12 4h-16q-61 0 -140 -91l-124 54q-76 32 -148 32h-12q-69 0 -124.5 -35.5t-82.5 -98.5q-5 -25 -5 -42q0 -26 10 -46q13 -29 51 -46q33 -14 69 -14q39 0 72 18q79 52 79 114l-11 21q-8 12 -13 14q-1 1 -17 7h-16q-45 0 -72 -32q6 -1 28 7q21 9 31 9q8 0 20 -4
q23 -8 23 -53v-20q-31 -58 -104 -65q-39 0 -71 22q-12 7 -19.5 13.5t-13 13t-9.5 15.5t-9 23v16q0 25 12 51q1 2 7.5 13.5l19.5 33.5q52 61 129 61q60 0 144 -39l68 -32l69 -32l-58.5 -85l-58.5 -85q-10 2 -17 3t-12 2q-15 -11 -19 -30h21q9 0 16 -7l-76 -138
q-29 -51 -53 -71q-32 -26 -82 -26q-13 0 -31 2t-43 6q-24 4 -42 6t-31 2q-49 0 -81 -19q-28 -6 -28 -32q0 -6 1 -9q41 -32 99 -32q52 0 160 36q91 -27 165 -27q100 0 168 47q71 77 71 126q0 10 -3 25q-7 31 -50 31q-13 0 -23 -3q-20 -11 -36 -30q-17 -23 -17 -43l31 41
q13 9 30 9q20 0 33.5 -15t13.5 -35q0 -37 -28 -68l-21 -22.5l-15 -15.5q-44 -28 -108 -28q-76 0 -170 36q105 76 207 250q-3 0 2 0t18 -1q26 -2 32 21l-41 13l84 165q4 -1 8 -1h9h17q10 0 20 2q18 3 87 35q42 19 50 58zM84 60q9 6 17 7.5t23 1.5q35 0 143 -28
q-43 -20 -92 -20q-55 0 -93 25q-8 5 2 14zM668 534q49 60 105 60q15 0 30 -6q-10 -34 -51 -46l-71 -12q-1 4 -13 4z" />
    <glyph glyph-name="bracketleft" unicode="[" horiz-adv-x="250" 
d="M250 535l-247 -695l117 26l10 26l-76 -17l229 643l83 17l9 26z" />
    <glyph glyph-name="bracketright" unicode="]" horiz-adv-x="250" 
d="M128 -134l247 695l-118 -25l-10 -26l77 16l-230 -642l-82 -18l-9 -26z" />
    <glyph glyph-name="asciicircum" unicode="^" horiz-adv-x="301" 
d="M327 356l16 15l15 -15q21 -19 42.5 -32.5t43.5 -23.5l20 -8v27l-23 18q-58 46 -79 105l-4 9h-30l-5 -9q-27 -65 -79 -105l-23 -18v-27l21 8q47 20 85 56z" />
    <glyph glyph-name="underscore" unicode="_" horiz-adv-x="301" 
d="M134 -131v-18h245v18h-245z" />
    <glyph glyph-name="grave" unicode="`" 
d="M78 304l76 -53l7 -4q0 -1 5 1l2 1v2q1 3 -2 6l-64 61l-7 7q-6 6 -11 7q-15 2 -16 -10q-2 -11 10 -18z" />
    <glyph glyph-name="a" unicode="a" 
d="M48 93q20 35 64 82q19 21 42 21q2 0 12 -2q22 -14 29 -24q-56 -117 -107 -154q2 1 11 8t15 4q4 -2 5 -9q3 -19 26 -19q28 0 67 21q40 23 56 45q-51 -47 -103 -58q-9 -2 -14.5 6t-3.5 17l89 147v14q-6 -1 -19 -6q-1 1 -7 5t-18 9t-24 5q-28 0 -65 -22q-33 -19 -54 -43
l-25 -29.5t-11 -14.5q-19 -28 -19 -50q0 -20 13 -39q7 -7 25 -7q27 0 47 14q-8 -4 -15 -5q-10 -2 -14 2q-12 3 -14.5 16.5t-4.5 26.5l9 21.5t8 17.5z" />
    <glyph glyph-name="b" unicode="b" horiz-adv-x="228" 
d="M241 420q-2 1 -9 1q-19 0 -33 -10l-79.5 -139l-58.5 -97q-71 -121 -71 -141q0 -15 10 -28q12 -5 27 -5q8 0 23.5 2t23.5 2q127 55 127 163q0 29 -35 29l-35 -3q-8 -1 -13.5 -1.5t-9.5 0.5q90 141 132 213zM230 71q-9 -4 -25 -18q-18 -16 -24 -20q-8 -5 -30 -15
q-23 -9 -27 -18q60 25 60 27q37 19 46 44zM34 61q28 60 39 78q24 44 53 44q19 0 42 -20q-11 -105 -100 -149h-10q-36 0 -36 21q0 8 12 26z" />
    <glyph glyph-name="c" unicode="c" horiz-adv-x="156" 
d="M64 8q23 0 59 27q31 22 48 45q-8 -13 -18.5 -24.5t-24.5 -21.5q-45 -33 -84 -33q-11 0 -23 4q-24 6 -24 37q0 15 12 47q20 47 53 76q40 35 84 35q27 0 31 -19q3 -10 -5 -18t-18 -8q-3 -1 -8 -1q-5 -2 -7 1q2 2 3.5 5t3.5 5q24 12 20 21q-5 11 -20 11q-20 0 -57 -25
q-27 -19 -47 -61q-19 -39 -19 -77q0 -11 15 -19.5t26 -6.5z" />
    <glyph glyph-name="d" unicode="d" horiz-adv-x="262" 
d="M336 406q-55 -105 -128 -220l-24.5 3.5t-18.5 1.5h-13q-50 0 -81 -27q-36 -31 -64 -90q-7 -13 -7 -34q0 -40 41 -40q24 0 80 31q-1 -1 -1 -4v-8q0 -8 3 -14q17 -5 26 -5q13 0 24 4q76 32 86 78q-21 -44 -51 -57q-42 -18 -44 -18q-10 0 -20 12l50.5 91.5l59.5 102.5
l43.5 69l75.5 120q-5 4 -17 4h-20zM148 179q7 3 13 3q12 0 26 -21l-58 -96q-32 -50 -66 -50q-37 0 -37 24q0 17 17 45l16 24.5l12 17.5q38 44 77 53z" />
    <glyph glyph-name="e" unicode="e" horiz-adv-x="150" 
d="M117 196q-52 -16 -88 -54q-40 -41 -40 -92q0 -14 3 -27q7 -24 38 -24q14 0 41 9q80 30 80 76q-11 -32 -29 -44q-41 -30 -63 -30q-28 0 -38 22q-3 10 -3 23q0 26 19 39q27 6 46 12t30 11q39 22 43 61q2 20 -24 20q-2 0 -6 -0.5t-9 -1.5zM114 179q5 1 8.5 -2t1.5 -8
q0 -23 -26 -43q-20 -16 -47 -22l-8 4q27 63 71 71z" />
    <glyph glyph-name="f" unicode="f" horiz-adv-x="142" 
d="M500 579q-170 -48 -263 -159q-74 -91 -201 -316q-116 -210 -202 -302l39 -2q70 93 125.5 183t97.5 178q13 48 60 48q12 0 26 -6v8q-5 3 -9 3q-5 0 -14 -3t-13 -3q-9 0 -14 11l52 91q40 70 57 93q117 156 276 156q11 0 25 -1.5t30 -3.5l30 -18q16 -11 14 -30q8 -2 18 7
q4 7 4 15q0 10 -7 25q-19 24 -62 25h-35q-17 0 -34 1zM154 94q-35 -43 -98 -81q26 6 57 31q32 26 41 50z" />
    <glyph glyph-name="g" unicode="g" horiz-adv-x="261" 
d="M175 210q-63 -14 -108 -47q-52 -37 -67 -93q-3 -9 -3 -21q0 -22 12.5 -36.5t33.5 -14.5q5 0 12.5 1.5t15.5 4t15 4t11 1.5q0 -6 -19 -24l-82.5 -31t-30.5 -12q-66 -32 -93 -72q-8 -8 -8 -18q0 -41 36 -41q8 0 22.5 3.5t22.5 3.5q58 17 101 63q31 31 69 99q63 23 97 51
q51 42 51 65h-4q-38 -61 -131 -94l51 88l39.5 68t24.5 45q-11 -8 -22 -8q-6 0 -22 6q-21 7 -24 9zM119 186q36 6 31 6q26 0 36 -19l-46 -83q-29 -52 -71 -72q-40 0 -41 27q8 69 91 141zM-103 -122q26 38 79 58l53.5 18.5l38.5 12.5l-33 -50l-24 -35q-33 -49 -78 -49
q-18 0 -29 4q-11 11 -11 25q0 9 4 16z" />
    <glyph glyph-name="h" unicode="h" horiz-adv-x="248" 
d="M209 438l-249 -437l34 -1l45.5 83t18.5 34q47 77 100 77q25 0 25 -16q0 -17 -27 -59q-31 -47 -36 -59q-13 -33 -13 -35q0 -22 23 -22q19 0 49 11q54 20 71 61q-20 -26 -33 -36q-34 -25 -65 -25q-12 0 -13 6q5 27 39 79q35 51 40 75q-5 30 -38 30q-15 0 -33 -5
q-6 -2 -26 -12q-18 -8 -24 -7q30 57 67 121l82 136z" />
    <glyph glyph-name="i" unicode="i" horiz-adv-x="105" 
d="M123 281q-19 0 -19 -17q0 -2 2 -6q5 -11 14 -11q3 0 9 2q13 7 12 18q0 14 -18 14zM71 196l-91 -162q-3 -3 -3 -9q0 -21 19 -24q5 -1 9.5 -1.5t8.5 -0.5q32 0 64 26q7 7 48 54l-67 -57q-24 -11 -29 -11q-12 0 -16 12l86 172z" />
    <glyph glyph-name="j" unicode="j" horiz-adv-x="177" 
d="M173 308q-25 0 -25 -21q3 -22 23 -17q22 4 22 22q0 16 -20 16zM114 216q-17 -45 -54 -109l-31.5 -52l-30.5 -52q-75 -40 -102 -61q-53 -44 -66 -96q5 -20 27 -20q35 0 101 74q25 28 44.5 54.5t35.5 51.5q94 43 138 98l-7 5q-50 -69 -121 -77l51 85q23 38 37.5 64t21.5 42
q-2 1 -9 1l-18 -4t-17 -4zM-4 -10l-20.5 -34t-16.5 -28q-38 -61 -82 -83q-22 -1 -22 13q0 5 11 29q15 28 57 61t73 42z" />
    <glyph glyph-name="k" unicode="k" horiz-adv-x="226" 
d="M267 444h-6t-19 1q-11 0 -54 -72l-24 -43l-24 -43l-159 -269l-6 -14q4 0 9 -0.5t12 -1.5q10 0 17 5l56 102q20 -8 27 -25q2 -6 7 -39q4 -45 40 -45q53 0 81 61q-29 -31 -60 -47q-24 4 -33 42q-11 44 -23 53l65 23q51 18 51 56q0 16 -13 20h-16q-11 0 -14 -9q-2 -5 6 -15
q2 -8 2 -9q0 -13 -29 -39q-42 -18 -56 -18q-11 0 -21 6l180 307z" />
    <glyph glyph-name="l" unicode="l" horiz-adv-x="164" 
d="M356 486q-83 -35 -138 -114l-56.5 -85.5t-37.5 -58.5l-74 -114q-35 -55 -35 -88q0 -10 4 -17q13 -9 32 -9q26 0 60 23q50 36 77 68q-1 -1 -10.5 -8.5t-26.5 -22.5q-57 -48 -80 -48q-15 0 -25 15q50 121 105 176l50.5 36l53.5 39q116 86 134 189q4 22 -19 22q-7 0 -14 -3z
M329 464q12 5 16 5q14 0 15 -16q-51 -134 -207 -238l82 141q44 74 94 108z" />
    <glyph glyph-name="m" unicode="m" horiz-adv-x="368" 
d="M119 171q19 16 48 16q15 0 19 -13q-22 -45 -46 -87.5t-52 -83.5q6 0 18 -1t18 -1l97 162l34 18q16 8 29 8q19 0 27 -17q-8 -23 -26 -52l-16 -25l-16 -24q-21 -35 -21 -49q0 -11 7 -18q9 -4 22 -4q18 0 44 12q42 20 71 73l-22 -25l-22 -25q-27 -24 -58 -24q-7 1 -7 11v15
q23 31 42 63.5t35 66.5q0 29 -60 29q-7 0 -26 -10q-17 -10 -26 -10q-8 0 -15 6q-13 16 -33 16q-17 0 -65 -21q-8 -5 -11 3q3 1 3 14l-30 1q-7 -13 -21 -36l-36 -58q-36 -59 -54 -96l33 -1l37 64t15 25q34 53 64 78z" />
    <glyph glyph-name="n" unicode="n" horiz-adv-x="264" 
d="M81 191l-109 -182q5 -5 13 -5q13 3 24 6l43 74l18 31q37 60 90 78q-16 3 -45 -11q3 15 -15 15q-13 0 -19 -6zM163 194h9q26 -8 26 -26q0 -2 -2 -6q-38 -51 -58 -93l-16 -26q-8 -14 -6 -27q3 -16 23 -16q35 0 85 33q37 25 44 52q-19 -33 -43 -47q-39 -24 -63 -24
q-16 0 -13 12q8 27 40 75q33 49 39 73q-4 22 -40 22q-5 0 -11.5 -0.5t-13.5 -1.5z" />
    <glyph glyph-name="o" unicode="o" horiz-adv-x="234" 
d="M136 197q-51 -19 -83 -47q-53 -47 -53 -106q0 -13 5 -25q11 -20 44 -20q17 0 56 21q43 24 69 63q29 44 29 90q-4 28 -44 28q-14 0 -23 -4zM196 41l-32 -24t-24 -16q80 27 98 80zM111 175q11 7 25 7q35 0 35 -34q0 -37 -26 -75q-43 -61 -77 -61q-21 0 -27.5 8.5t-6.5 30.5
q0 62 77 124z" />
    <glyph glyph-name="p" unicode="p" horiz-adv-x="272" 
d="M130 202q-4 7 -16 7h-23l-86 -153l-40.5 -74.5l-34.5 -65.5l-39 -73.5t-28 -47.5q-3 0 2 0q4 0 16 -1q12 0 17 5q31 61 62.5 116.5t65.5 107.5q15 -22 45 -22q11 0 20 3q59 27 98 71q46 50 46 108q-12 31 -46 31q-19 0 -59 -12zM272 93q-67 -67 -109 -80q43 12 67 30.5
t42 49.5zM43 44l12.5 31.5l22.5 56.5q30 58 70 58q22 0 48 -17q0 -99 -100 -150q-18 -6 -28 -6q-18 0 -25 27z" />
    <glyph glyph-name="q" unicode="q" horiz-adv-x="284" 
d="M178 217q-51 -12 -100 -52q-77 -65 -77 -109q0 -15 12 -42q16 -14 35 -14q22 0 71 26q-5 -23 -24 -56q-17 -29 -31 -56l-13 -22.5l-25 -41.5q-13 -20 -20.5 -36.5t-11.5 -27.5q11 -2 35 19q34 70 108 138l107 100q33 30 42 41q2 5 -2 9l-164 -153l-2 5l149 270
q-11 -11 -25 -11q-10 0 -31 7q-23 7 -33 6zM159 204q20 7 29 7t15 -7q-8 -51 -38 -99t-72 -75q-8 -3 -17 -3q-40 0 -40 30q0 39 44 86q37 40 79 61z" />
    <glyph glyph-name="r" unicode="r" horiz-adv-x="141" 
d="M194 184q3 9 -9.5 11.5t-22.5 2.5q-9 0 -26 -2.5t-26 -2.5q-20 0 -27 4q-11 -14 -25.5 -38t-33.5 -59q-17 -32 -32 -55.5t-27 -39.5q12 -5 19 -5q11 0 16 4l54 97q25 45 36 58q27 34 56 34q16 0 20 -7q1 -1 1 -5q0 -3 -2 -8l-4.5 -11t-4 -11t-0.5 -8q11 2 23 3.5t23 3.5
q-1 2 -6.5 8.5t-5.5 11.5q0 7 4 14z" />
    <glyph glyph-name="s" unicode="s" horiz-adv-x="153" 
d="M8 64q2 1 5 2l6 2q-6 -17 -6 -27q0 -40 34 -40q10 0 32 8q29 17 38 46q6 19 6 61v24q0 44 8 74q-47 -50 -123 -150zM84 146q18 -41 18 -70q0 -27 -13.5 -47t-39.5 -20q-4 0 -10 2q-16 7 -12 31q2 3 22 8q15 3 15 17q0 11 -13 18l-23 -7z" />
    <glyph glyph-name="t" unicode="t" horiz-adv-x="137" 
d="M133 300l-72 -136t-79 -133q-7 -13 0 -19q16 -12 35 -12q30 0 65 28q19 14 32.5 25t22.5 19v8l-29 -25l-23 -20q-29 -24 -59 -24q-13 7 -13 17q0 8 7 18l52 82l16.5 27l5.5 9q17 23 33 23h10q5 -1 8 -1h8h13v4l-55 4l63 109q-5 3 -10 3t-15.5 -3t-15.5 -3z" />
    <glyph glyph-name="u" unicode="u" horiz-adv-x="258" 
d="M93 197q-22 -29 -38.5 -54l-29.5 -46q-33 -56 -33 -73q0 -25 29 -25q21 0 93 32l13 -23q11 -10 28 -10q13 0 22 3q72 31 86 70q-17 -21 -46 -41q-36 -24 -56 -19q-5 1 -7 12q-1 4 -1 8v8l64 102.5t29 51.5l-32 1l-40 -68q-30 -50 -60 -87q-60 -29 -75 -29q-14 0 -12 14
q4 31 39 85l26 42l26 42q-3 4 -11 4h-14z" />
    <glyph glyph-name="v" unicode="v" horiz-adv-x="204" 
d="M145 185q5 -1 9.5 -2t9.5 -2q18 -5 23 -14q0 -80 -90 -147q-22 -8 -35 -8q-22 0 -35 18q13 39 40 84l52 78q-8 5 -17 5q-12 0 -16 -4q-2 -5 -15.5 -25.5l-39.5 -57.5q-33 -50 -33 -92q14 -17 43 -17q36 0 78 22.5t71 61.5q31 43 31 86q-10 25 -39 25q-20 0 -37 -11z
M146 0q19 9 33.5 16.5t24.5 14.5q-48 -12 -58 -31z" />
    <glyph glyph-name="w" unicode="w" horiz-adv-x="351" 
d="M268 193q-26 -15 -26 -24q0 -3 2 -5h4q4 -4 7 -4q2 0 4 3t6.5 7t12 7t19.5 3q29 0 29 -31q0 -27 -34 -65q-36 -42 -48 -52q-29 -24 -64 -24q-12 0 -15 1q-19 10 -19 29q0 7 1 10l89 141l-21 5l-79 -107q-35 -48 -58 -59q-30 -15 -47 -15t-13 10q28 65 102 166q-7 4 -18 4
h-20l-33 -50l-27 -39q-30 -47 -35 -91q-2 -14 20 -14q26 0 59 13q35 14 47 32q7 -32 22 -42q5 -1 21 -1q92 0 151 77q38 52 38 76q0 19 -14.5 31.5t-34.5 12.5q-11 0 -28 -5zM351 63l-21.5 -18l-21.5 -18q-13 -10 -25.5 -15.5t-23.5 -7.5q21 -2 47 14l42 30z" />
    <glyph glyph-name="x" unicode="x" horiz-adv-x="273" 
d="M186 161q-21 24 -22 24q-14 12 -29 12q-35 0 -59 -34q-5 -22 -5 -27q0 -16 8 -24q7 -4 15 -4q21 0 33 22l-28 -6q-17 0 -17 18q0 12 3 26q9 13 43 13l17 -17q8 -11 8 -20l-2 -10l-20 -39.5l-20 -39.5q-29 -41 -72 -41q-15 7 -15 13q0 2 15 16q16 13 16 25l-2 10
q-5 9 -23 9q-33 -12 -33 -46q0 -10 4 -19q9 -22 31 -22q14 0 40 13q28 14 37 14q17 0 27 -19q7 -7 23 -7q26 0 47 10q13 10 24 17.5t20 14.5q26 20 26 40q-54 -64 -91 -64t-37 32q0 10 9 36q27 86 91 99q13 -4 13 -16q0 -9 -7 -19q8 -2 14 -2q11 0 20.5 7.5t4.5 17.5
q-12 22 -34 22q-27 0 -73 -35z" />
    <glyph glyph-name="y" unicode="y" horiz-adv-x="260" 
d="M-113 -173q-3 6 -3 12q0 18 61 73l106 67q-76 -34 -132 -82l-28.5 -25t-10.5 -9q-20 -23 -20 -45q0 -16 14.5 -19l28.5 -6q71 20 128 77q43 44 90 124q57 13 141 75v4q0 3 1 7q2 8 -3 8q-44 -55 -123 -80q35 86 112 189q-5 9 -11 9q-3 0 -10.5 -2t-11.5 -2q-5 0 -6 1
q-45 -86 -62 -110q-39 -55 -94 -79q-9 -3 -17.5 3l-16.5 12l96 170q-5 1 -9.5 1.5t-8.5 0.5q-11 0 -16 -5l-89 -146q-3 -6 -3 -21q0 -29 30 -29q21 0 74 21q0 -13 -17 -24q-22 -14 -23 -17l29 8q-53 -91 -54 -92q-40 -66 -65 -74q-39 -10 -50 -10q-21 0 -27 15z" />
    <glyph glyph-name="z" unicode="z" horiz-adv-x="192" 
d="M158 166q-4 -1 -18 -1q-36 0 -49 24l-50 -61.5l-35 -45.5l2 -4l65 81q31 -14 70 -14v-4q-9 -18 -38 -26q-35 -11 -41 -17q-1 -5 2 -7t7.5 -3.5t8.5 -2t4 -1.5q-54 -57 -89 -80l7 -6q18 23 37 23q7 0 32 -11q24 -10 36 -10q11 0 27 10q38 23 55 76l-10 -4q0 -20 -34 -48
q-13 -7 -27 -7l-66 15l42 46q4 3 10 3q3 0 8 -0.5t13 -1.5q16 0 21 17l-19 8l78 77q-6 6 -11 6t-17 -16q-11 -15 -21 -15z" />
    <glyph glyph-name="asciitilde" unicode="~" horiz-adv-x="517" 
d="M512 165l-8 9l-10 -10q-25 -23 -51 -23q-25 4 -43.5 8t-29.5 8l-35 10q-32 9 -56 9q-30 0 -54 -21q-17 -14 -22 -23l-12 -17l8 -9l8 7q31 26 58 25q16 0 46 -9l36 -9l41 -11q25 -5 42 -5q55 0 82 61z" />
    <glyph glyph-name="quotesinglbase" unicode="&#x201a;" horiz-adv-x="86" 
d="M61 52q24 0 24 -24q0 -6 -14 -28q-25 -40 -43 -48q15 11 23 31t-1 24q-13 6 -13 21q0 24 24 24z" />
    <glyph glyph-name="florin" unicode="&#x192;" horiz-adv-x="142" 
d="M500 579q-170 -48 -263 -159q-74 -91 -201 -316q-116 -210 -202 -302l39 -2q70 93 125.5 183t97.5 178q13 48 60 48q12 0 26 -6v8q-5 3 -9 3q-5 0 -14 -3t-13 -3q-9 0 -14 11l52 91q40 70 57 93q117 156 276 156q11 0 25 -1.5t30 -3.5l30 -18q16 -11 14 -30q8 -2 18 7
q4 7 4 15q0 10 -7 25q-19 24 -62 25h-35q-17 0 -34 1zM154 94q-35 -43 -98 -81q26 6 57 31q32 26 41 50z" />
    <glyph glyph-name="quotedblbase" unicode="&#x201e;" horiz-adv-x="123" 
d="M44 52q24 0 24 -24q0 -6 -14 -28q-25 -40 -43 -48q27 19 27 47q0 7 -4 8q-14 6 -14 21q0 24 24 24zM98 52q24 0 24 -24q0 -6 -14 -28q-25 -40 -43 -48q22 17 23 35t-1 20q-13 7 -13 21q0 24 24 24z" />
    <glyph glyph-name="ellipsis" unicode="&#x2026;" horiz-adv-x="264" 
d="M221 52q-24 0 -24 -24t24 -24q23 0 23 24t-23 24zM48 52q-24 0 -24 -24t24 -24q23 0 23 24t-23 24zM133 52q-24 0 -24 -24t24 -24q23 0 23 24t-23 24z" />
    <glyph glyph-name="dagger" unicode="&#x2020;" horiz-adv-x="213" 
d="M90 251l2 -15q6 -47 6 -58l1 -211h17v167l1 44q3 40 6 58l2 15q-6 14 -9 25l-3 12l12 -1l18 -3l19 -4q5 -1 8.5 -1.5t6.5 -0.5q15 0 15 16t-16 16q-6 1 -14 -2l-19 -4l-18 -3l-12 -1v28l1 8q1 9 1.5 15t0.5 10l4 20q3 21 3 22q0 17 -15 17q-16 0 -16 -17q0 -1 3 -22
l4 -20q1 -4 1.5 -10t0.5 -15v-8v-28l-11 1q-5 1 -9.5 1.5t-9.5 1.5l-18 4q-10 2 -14 2q-17 0 -17 -17q1 -16 16 -15q5 0 15 2l18 4l19 3l11 1l-2 -12q-4 -13 -9 -25z" />
    <glyph glyph-name="daggerdbl" unicode="&#x2021;" horiz-adv-x="213" 
d="M94 253l8 -48l-28 4l-19 4q-5 1 -8.5 1.5t-7.5 0.5q-15 0 -15 -16q0 -17 16 -16q5 0 15 2l19 4l20 3h8l2 -225h16v167l1 45l1 13h7l21 -3l19 -4q5 -1 8.5 -1.5t5.5 -0.5q18 0 18 16q-2 17 -16 16q-3 -1 -7 -1t-9 -1l-19 -4l-21 -3l-7 -1l5 32l3 16q-7 13 -9 23l-3 12
l11 -1l19 -3l18 -4q5 -1 8.5 -1.5t6.5 -0.5q16 0 16 16t-17 16q-6 1 -14 -2l-18 -4q-5 -1 -9.5 -1.5t-9.5 -1.5l-11 -1v36l3 25l4 20q3 19 3 22q0 18 -16 17q-17 -2 -16 -18l3 -21l4 -20l3 -25v-36l-12 1q-8 0 -18 3l-19 4q-10 2 -14 2q-16 1 -16 -17q0 -16 16 -16q6 0 14 3
l19 4l18 3l12 1l-3 -12q-1 -2 -3 -7.5t-6 -15.5z" />
    <glyph glyph-name="circumflex" unicode="&#x2c6;" 
d="M127 249q3 0 82 32q37 -30 43 -32l3 1l2 4q-2 6 -15 25l-11.5 16.5t-7.5 8.5q-1 1 -17 1q-6 0 -16 -6q-66 -40 -67 -43l-1 -2q0 -5 5 -5z" />
    <glyph glyph-name="Scaron" unicode="&#x160;" horiz-adv-x="526" 
d="M464 619q-106 -43 -106 -131q0 -45 39 -148q40 -102 40 -153q0 -27 -7 -48l-17 -29.5t-12 -20.5q-12 -18 -35 -35q-11 -8 -42 -27q-42 -20 -95 -20q-58 0 -104 30q-33 22 -50 61t-17 78q3 20 11.5 38.5t21.5 33t29.5 23t36.5 8.5q30 0 52 -25q1 -3 1 -8q0 -7 -4.5 -20
t-4.5 -18q17 -6 27 -5q16 9 16 32q0 19 -9 42q-13 31 -79 31h-14q-8 0 -19 -1q-33 -7 -56.5 -36.5t-30.5 -65.5q-6 -20 -6 -37q0 -53 47 -111q46 -57 150 -57q41 0 85 11q30 11 56 26.5t48 35.5q60 55 60 131q0 49 -43 142t-43 138q0 59 48 109q34 26 72 26q68 0 97 -68
q3 -11 3 -22q0 -22 -11 -39t-32 -17q-6 0 -22 14q-15 14 -22 15q-13 -9 -10 -29q0 -14 24 -32q8 -4 21 -4q39 0 63 31q16 26 16 58q0 20 -12 46t-48 40q-29 13 -64 13q-25 0 -49 -6zM468 743q-5 0 -5 -5v-2q3 -3 68 -43q9 -6 16 -6q16 0 17 1q5 5 19 25q13 19 15 25l-3 4
l-2 1q-2 -1 -13 -8.5t-30 -23.5q-79 32 -82 32z" />
    <glyph glyph-name="guilsinglleft" unicode="&#x2039;" horiz-adv-x="122" 
d="M71 176l-44 -70l23 -82h21l-22 82l45 70h-23z" />
    <glyph glyph-name="OE" unicode="&#x152;" horiz-adv-x="943" 
d="M547 336q4 16 6 32t2 33q0 13 -1 24.5t-3 21.5q44 -23 103 -23q48 0 98 14l4 -30q-28 -7 -55 -13t-54 -13q-66 -20 -100 -46zM487 260q-21 -41 -48 -72q-50 -75 -89 -107q-54 -45 -119 -62h-9h-7q-5 -1 -11 -1q-40 -1 -72.5 12.5t-51.5 51.5q-16 33 -16 72q0 30 36 131
q48 131 161 226q122 101 254 101q11 -2 20.5 -3.5t19.5 -3.5q-62 -20 -62 -75q0 -16 5 -31q-15 4 -28 4q-57 0 -148 -72q-22 -31 -34.5 -50.5l-17.5 -27.5q-26 -47 -26 -88q0 -30 11 -49t24 -24q9 -3 33 -3q29 18 29 28q0 3 -2 9q-7 1 -18 -4t-16 -5q-8 0 -12 4
q-11 4 -19.5 16.5t-9.5 35.5q-2 64 48 126q46 57 109 83q12 3 23 3q35 0 62 -27q17 -39 17 -76q0 -53 -34 -117zM920 623q-138 -43 -159 -157q-25 -31 -110 -31h-18q-22 0 -41.5 7.5t-34 20.5t-23 31.5t-8.5 39.5q0 37 29 55q6 6 23 11q82 -21 107 -79q3 -9 3 -18
q0 -28 -24 -50q5 -8 12 -8q16 0 35 19q9 18 9 42q0 21 -8 40q-66 80 -170 80q-7 0 -35 -3q-137 -13 -268 -110q-134 -100 -175 -228q-5 -18 -11 -36l-12 -35q-12 -42 -12 -73q0 -58 38 -105q40 -48 98 -48q80 0 202 93q63 64 96 105q-1 -6 -1 -12v-12q0 -35 12 -68
q32 -61 91 -77q43 -17 89 -17q110 0 206 81q81 55 81 145q0 16 -3 33q-23 60 -117 67q-54 -5 -98.5 -37t-68.5 -81l-2 -17q-1 -5 -1 -10v-9q0 -40 22 -56q53 -17 57 -17q2 0 6 0.5t9 1.5q43 22 39 48q1 19 -19 19q-7 0 -11 -3v-22q-9 -12 -34 -12h-14q-47 23 -40 67
q4 31 34 61q53 52 97 52q29 0 93 -38q23 -35 23 -72q0 -57 -57 -111q-77 -75 -171 -75q-97 0 -158 64q-28 37 -28 93q0 49 31 99q34 57 117 95q73 33 148 33q-5 17 -5 27q0 41 39 50q15 15 23 15q5 0 14 -26q11 -27 25 -28q19 -10 40 -10q41 0 88 47q41 41 41 76
q0 17 -12 37q-23 38 -93 38q-5 0 -14 -0.5t-21 -1.5zM826 551q35 62 106 62q46 0 68 -20q28 -27 28 -53q0 -18 -7 -38q-14 -16 -22.5 -24.5l-10.5 -10.5q-21 -18 -43 -18q-16 0 -30 7q-16 13 -16 35q0 10 3 18q12 19 12 25q0 4 -3 7q-12 -4 -53 -34q-33 -26 -58 -31
q8 44 26 75z" />
    <glyph glyph-name="quoteleft" unicode="&#x2018;" horiz-adv-x="77" 
d="M52 457q-24 0 -24 -24q0 -6 14 -29q25 -40 43 -48q-15 11 -23 32q-8 20 1 24q13 6 13 21q0 24 -24 24z" />
    <glyph glyph-name="quoteright" unicode="&#x2019;" horiz-adv-x="86" 
d="M61 457q24 0 24 -24q0 -6 -14 -29q-25 -40 -43 -48q15 11 23 32q8 20 -1 24q-13 6 -13 21q0 24 24 24z" />
    <glyph glyph-name="quotedblleft" unicode="&#x201c;" horiz-adv-x="123" 
d="M89 457q-24 0 -24 -24q0 -6 14 -29q25 -40 43 -48q-27 19 -27 47q0 6 4 9q14 6 14 21q0 24 -24 24zM35 457q-24 0 -24 -24q0 -6 14 -29q25 -40 43 -48q-20 16 -22 36q-1 19 0 20q13 7 13 21q0 24 -24 24z" />
    <glyph glyph-name="quotedblright" unicode="&#x201d;" horiz-adv-x="123" 
d="M44 457q24 0 24 -24q0 -6 -14 -29q-25 -40 -43 -48q27 19 27 47q0 8 -4 9q-14 6 -14 21q0 24 24 24zM98 457q24 0 24 -24q0 -6 -14 -29q-25 -40 -43 -48q22 17 23 36q1 18 -1 20q-13 7 -13 21q0 24 24 24z" />
    <glyph glyph-name="endash" unicode="&#x2013;" horiz-adv-x="191" 
d="M117 108q5 22 7 23h-134q-2 -8 -4 -13.5t-3 -9.5h134z" />
    <glyph glyph-name="emdash" unicode="&#x2014;" horiz-adv-x="264" 
d="M184 108q5 22 7 23h-201q-2 -8 -4 -13.5t-3 -9.5h201z" />
    <glyph glyph-name="tilde" unicode="&#x2dc;" 
d="M127 261l-2 -4v-1l1 -2l3 -1l4 2l8 7q17 14 28 14q6 0 19 -7l25 -12l13 -6q6 -2 11 -2q15 0 32 17l16 16l2 3l-1 4l-4 1l-3 -1q-17 -16 -31 -16l-7 2l-7.5 2.5t-9.5 5.5q-26 16 -43 16q-18 1 -37 -19l-11 -11z" />
    <glyph glyph-name="trademark" unicode="&#x2122;" horiz-adv-x="413" 
d="M31 457l-4 -65h12l6 15q14 36 41 39v-122q0 -26 -17 -29h-10v-12h84v12h-10q-11 2 -14 11q-1 3 -1 18v122q29 -5 39 -37l6 -17h11l-3 65h-140zM184 295v-12h66v12l-10 2q-16 3 -16 26v114l46 -154h8l52 159v-119q0 -15 -1 -17q-3 -9 -15 -10l-10 -1v-12h84v12h-9
q-13 4 -15 9t-2 19v97q0 22 17 24l9 2v11h-66l-38 -115l-34 115h-66v-11l13 -2q13 -1 13 -22v-99q0 -23 -18 -27z" />
    <glyph glyph-name="scaron" unicode="&#x161;" horiz-adv-x="153" 
d="M8 64q2 1 5 2l6 2q-6 -17 -6 -27q0 -40 34 -40q10 0 32 8q29 17 38 46q6 19 6 61v24q0 44 8 74q-47 -50 -123 -150zM84 146q18 -41 18 -70q0 -27 -13.5 -47t-39.5 -20q-4 0 -10 2q-16 7 -12 31q2 3 22 8q15 3 15 17q0 11 -13 18l-23 -7zM43 304q-6 0 -6 -5l1 -2
q1 -1 17.5 -12t50.5 -31q9 -6 15 -6q17 0 18 1q2 3 6.5 9l11.5 16q13 19 15 25l-2 4l-3 1q-6 -2 -42 -32q-79 32 -82 32z" />
    <glyph glyph-name="guilsinglright" unicode="&#x203a;" horiz-adv-x="122" 
d="M50 176l44 -70l-23 -82h-21l22 82l-45 70h23z" />
    <glyph glyph-name="oe" unicode="&#x153;" horiz-adv-x="312" 
d="M153 86q-2 -4 -4 -7l-4 -6q-43 -61 -77 -61q-21 0 -27.5 8.5t-6.5 30.5q0 62 77 124q11 7 25 7q35 0 35 -34q0 -15 -5 -33q-8 -12 -13 -29zM277 198q-44 -14 -75 -41q1 4 1 8v8q-4 28 -44 28q-14 0 -23 -4q-51 -19 -83 -47q-53 -47 -53 -106q0 -13 5 -25q11 -20 44 -20
q17 0 56 21l22 14.5t21 17.5q0 -15 4 -27q6 -25 38 -25q15 0 41 10q80 30 80 76q-11 -32 -29 -44q-41 -30 -63 -30q-28 0 -38 22q-3 10 -3 23q0 26 19 39q27 6 46 12t30 11q39 22 43 61q2 20 -24 20q-2 0 -6 -0.5t-9 -1.5zM274 181q5 1 8.5 -2t1.5 -8q0 -23 -26 -43
q-20 -16 -47 -22l-8 4q27 63 71 71z" />
    <glyph glyph-name="Ydieresis" unicode="&#x178;" horiz-adv-x="571" 
d="M128 -263l51 17.5t32 14.5q26 14 74 57q112 103 253 382l66 131.5t24 46.5q59 102 128 152q43 31 86 42q35 8 94 8q24 0 38 -7q26 -14 26 -57v-13q27 0 27 32q0 14 -9 35q-20 44 -99 44q-71 0 -142 -47q-79 -53 -147 -155l-76 -118l-54 -86q-34 -54 -68 -95.5t-68 -72.5
q-7 6 -12.5 11.5l-10.5 10.5q-20 18 -47 18q-60 0 -85 -17q77 62 145 142q108 127 108 228q0 67 -46 119q-56 62 -150 62q-100 0 -158 -50q-23 -21 -39 -37.5t-25 -27.5q-30 -41 -30 -83q0 -23 12 -54q24 -67 122 -67q54 0 98 30q70 48 70 108q0 29 -21 50.5t-50 21.5
q-13 0 -18 -1l-22 -4q-31 -6 -49 -47h8q16 39 52 39q18 0 43 -17q41 -29 41 -62q0 -44 -41 -73q-40 -28 -87 -28q-13 0 -29 3q-48 6 -82 45q-20 42 -20 73q0 53 47 103q58 61 158 61q99 0 143 -66q32 -52 32 -110q0 -106 -95 -228q-38 -48 -100 -104l-56.5 -48.5
l-41.5 -34.5l40.5 29.5t19.5 13.5q36 21 69 21q18 0 45 -9q33 -11 33 -47q23 5 47 26q5 4 14.5 13l25.5 25l4 -3l-51 -92l-28 -49q-49 -79 -100 -127q-68 -63 -139 -80q-29 -7 -51.5 -10t-37.5 -3q-39 0 -72 11q-58 22 -58 54q0 7 4 16.5t15 12.5q1 1 20 4q-5 17 -25 17
q-44 0 -44 -39q0 -15 9 -30t27 -27.5t43.5 -20t58.5 -7.5q54 0 131 24zM642 720q-19 0 -19 -17q0 -2 2 -6q5 -11 14 -11q3 0 9 2q13 7 12 18q0 14 -18 14zM572 720q-19 0 -19 -17q0 -2 2 -6q5 -11 14 -11q3 0 9 2q13 7 12 18q0 14 -18 14z" />
    <glyph glyph-name="exclamdown" unicode="&#xa1;" horiz-adv-x="196" 
d="M41 9q0 -13 28 -13q27 0 42 37l46 133q41 119 60 158h-6q-28 -54 -57 -102.5t-60 -93.5q-53 -77 -53 -119zM249 391q33 0 38 33q4 33 -27 33q-34 0 -38 -33q-5 -33 27 -33z" />
    <glyph glyph-name="currency" unicode="&#xa4;" horiz-adv-x="340" 
d="M47 328l-20 -19l42 -40q-29 -43 -29 -83q0 -46 29 -84l-41 -40l18 -19l41 40q43 -28 84 -28t84 28l40 -40l19 19l-40 40q28 35 28 84q0 45 -28 83l40 40l-19 19l-40 -40q-40 28 -84 28t-84 -28zM69 185q0 45 28.5 73.5t73.5 28.5q21 0 39.5 -8t32.5 -22t22 -32.5t8 -39.5
t-8 -40t-22 -32.5t-32.5 -21.5t-39.5 -8q-43 0 -72.5 29.5t-29.5 72.5z" />
    <glyph glyph-name="section" unicode="&#xa7;" horiz-adv-x="200" 
d="M55 271l9 -9l-7 -6q-21 -16 -23 -53q0 -49 46 -71l30 -15q40 -19 40 -55q0 -30 -15 -52q-17 -26 -43 -25q-32 0 -39 19l-4 11h13q16 3 14 20q0 22 -20 22q-25 0 -27 -35q-1 -49 56 -50q16 0 30 7q42 18 54 73q1 7 1.5 13.5t0.5 14.5q0 35 -21 52l-18 14l4 5q23 27 22 58
q0 35 -24 53l-14 10l-30 19q-19 13 -28.5 24t-10.5 31q-1 25 16 45.5t42 20.5q33 0 39 -28v-5h-9q-21 0 -19 -21q1 -21 21 -21q28 1 28 36q0 21 -16 36t-38 15q-19 0 -35 -8.5t-27 -22.5t-17.5 -32.5t-6.5 -37.5q0 -23 26 -52zM57 224q-2 26 24 26q24 0 39.5 -20.5
t15.5 -44.5q0 -27 -20 -27q-6 0 -12 3q-47 20 -47 63z" />
    <glyph glyph-name="dieresis" unicode="&#xa8;" 
d="M232 281q-19 0 -19 -17q0 -2 2 -6q5 -11 14 -11q3 0 9 2q13 7 12 18q0 14 -18 14zM162 281q-19 0 -19 -17q0 -2 2 -6q5 -11 14 -11q3 0 9 2q13 7 12 18q0 14 -18 14z" />
    <glyph glyph-name="copyright" unicode="&#xa9;" horiz-adv-x="196" 
d="M31 316q0 -61 40 -101t101 -40q59 0 100 41t41 100t-41 100t-100 41q-60 0 -101 -41q-40 -40 -40 -100zM52 316q0 50 35 85t85 35t85 -35t35 -85t-35 -85t-85 -35q-26 0 -47.5 9t-38 25.5t-25.5 38t-9 47.5zM237 293h-12q-8 -48 -42 -48q-45 0 -45 73q0 76 40 76
q19 0 30 -18q3 -5 6.5 -13.5t7.5 -20.5l12 1v64h-12q-8 -9 -10 -9q-5 0 -18.5 5t-20.5 5q-16 0 -29.5 -7.5t-23 -20.5t-15 -29t-5.5 -33q0 -36 20.5 -61.5t55.5 -25.5q55 0 61 62z" />
    <glyph glyph-name="guillemotleft" unicode="&#xab;" horiz-adv-x="172" 
d="M72 176l-45 -70l23 -82h22l-23 82l45 70h-22zM129 176l-44 -70l23 -82h21l-22 82l45 70h-23z" />
    <glyph glyph-name="logicalnot" unicode="&#xac;" horiz-adv-x="1000" 
 />
    <glyph glyph-name="registered" unicode="&#xae;" horiz-adv-x="335" 
d="M24 316q0 -61 40 -101t101 -40q59 0 100 41t41 100t-41 100t-100 41q-60 0 -101 -41q-40 -40 -40 -100zM45 316q0 50 35 85t85 35t85 -35t35 -85t-35 -85t-85 -35q-26 0 -47.5 9t-38 25.5t-25.5 38t-9 47.5zM119 275q0 -22 -26 -25v-12h84v12q-16 1 -21 4q-6 4 -6 20v43
q19 0 24 -5q5 -4 10 -27q2 -11 5 -18.5l5 -12.5q10 -16 27 -16q30 0 32 44h-11q-2 -21 -11 -21q-6 0 -13 22q-9 25 -26 36q42 10 42 41q0 41 -64 41h-77v-12q8 -1 13 -2t7 -2q6 -5 6 -18v-92zM150 329v36q0 24 22 24q26 0 26 -29q0 -31 -34 -31h-14z" />
    <glyph glyph-name="acute" unicode="&#xb4;" 
d="M262 305q12 7 10 18q-1 13 -16 10q-6 -1 -11 -6l-71 -69q-4 -4 -2 -5v-3l2 -1q3 -1 5 -1z" />
    <glyph glyph-name="paragraph" unicode="&#xb6;" horiz-adv-x="289" 
d="M281 425v25h-55q-17 0 -33.5 -1.5t-30.5 -3.5q-58 -9 -92 -45q-38 -38 -38 -93q1 -52 32 -87.5t82 -46.5l19 -4v-262h23v518h30v-518h23v518h40z" />
    <glyph glyph-name="cedilla" unicode="&#xb8;" horiz-adv-x="156" 
d="M38 -31l-10 -3l21 41l-13 -3l-25 -49v-4v-2l1 -1h2l6 2l7 1l8 2q18 3 18 -16q0 -22 -34 -26q-21 -5 -47 0h-5q-5 -2 -3 -6q3 -9 30 -10q14 -1 32 2q21 4 35 17q19 15 14 35q-5 21 -28 21q-6 0 -9 -1z" />
    <glyph glyph-name="guillemotright" unicode="&#xbb;" horiz-adv-x="172" 
d="M107 176l45 -70l-23 -82h-22l23 82l-45 70h22zM50 176l44 -70l-23 -82h-21l22 82l-45 70h23z" />
    <glyph glyph-name="questiondown" unicode="&#xbf;" horiz-adv-x="322" 
d="M96 67q12 -32 42 -49.5t65 -17.5q29 0 63 13.5t58 38.5q28 28 28 63q0 27 -3 41q-4 22 -36 22q-44 0 -44 -36q0 -11 9 -20.5t20 -9.5t29 12q1 -5 1.5 -9t0.5 -6q0 -38 -37 -71q-38 -33 -75 -33q-18 0 -36 6q-48 15 -48 51q0 67 53 123q6 6 30.5 25.5l68.5 53.5
q54 41 52 73q-2 24 -27 24q-16 0 -31 -14t-19 -30q6 6 20 23q12 12 24 12q1 0 11 -2q9 -5 9 -17q0 -11 -12 -27q-10 -16 -80 -51q-34 -17 -57 -33t-35 -32q-47 -62 -47 -102q0 -11 3 -21zM348 390q14 0 26 10t14 23q2 14 -6 24t-22 10t-25.5 -10t-13.5 -24q-5 -33 27 -33z
" />
    <glyph glyph-name="Agrave" unicode="&#xc0;" horiz-adv-x="835" 
d="M1076 613q-14 10 -24 11t-21 1q-56 0 -94 -29q-19 -14 -41 -36t-48 -52l-49.5 -56.5t-34.5 -34.5l-33.5 37.5t-16.5 17.5q-21 15 -49 15q-32 0 -60 -28q-22 -43 -22 -99q0 -80 38 -139q-38 -110 -186 -183q-57 -19 -119 -19q-106 0 -165 59q-69 69 -69 145q0 21 9 63
q10 42 57 90q48 48 91 63q39 10 77 10q97 0 141 -54q30 -38 30 -85v-11q0 -38 -40 -82q-41 -44 -102 -44q-27 0 -54 11q-50 20 -50 53q0 14 10 26.5t24 15.5q-13 16 -32 13q-34 -10 -34 -47q0 -14 7 -28t22 -26t37.5 -19.5t53.5 -7.5q90 0 157 70q33 40 33 97q0 30 -13 55
q-20 25 -42 42q-47 35 -119 35q-100 0 -217 -90q-77 -77 -77 -164q0 -4 1.5 -15.5t3.5 -30.5q6 -46 53 -93q42 -42 90 -59q35 -11 87 -11q186 0 353 201q47 -38 86 -38l1 25q-53 0 -74 31l61 86.5t43 55.5q20 -45 20 -89q0 -66 -36 -136l-39 -73.5l-28 -51.5q-4 0 1 0t18 -1
q11 0 19 5q14 31 32.5 65.5l41.5 74.5l88 156l45.5 83t30.5 58l33 52.5l24 38.5q30 46 70 70zM1039 603l4 -4q-72 -67 -148 -191l-61 -104l-61 -105q8 35 12 65t4 53q0 40 -11 73l60 93q20 28 39 49.5t37 35.5q46 37 100 37q4 0 10 -0.5t15 -1.5zM660 454q41 0 81 -64
q-24 -59 -107 -151q-44 58 -44 117q0 37 14 62q6 10 10.5 16.5t10.5 10t14.5 5.5t20.5 4zM903 743l76 -53l7 -4q0 -1 5 1l2 1v2q1 3 -2 6l-64 61l-7 7q-6 6 -11 7q-15 2 -16 -10q-2 -11 10 -18z" />
    <glyph glyph-name="Aacute" unicode="&#xc1;" horiz-adv-x="835" 
d="M1076 613q-14 10 -24 11t-21 1q-56 0 -94 -29q-19 -14 -41 -36t-48 -52l-49.5 -56.5t-34.5 -34.5l-33.5 37.5t-16.5 17.5q-21 15 -49 15q-32 0 -60 -28q-22 -43 -22 -99q0 -80 38 -139q-38 -110 -186 -183q-57 -19 -119 -19q-106 0 -165 59q-69 69 -69 145q0 21 9 63
q10 42 57 90q48 48 91 63q39 10 77 10q97 0 141 -54q30 -38 30 -85v-11q0 -38 -40 -82q-41 -44 -102 -44q-27 0 -54 11q-50 20 -50 53q0 14 10 26.5t24 15.5q-13 16 -32 13q-34 -10 -34 -47q0 -14 7 -28t22 -26t37.5 -19.5t53.5 -7.5q90 0 157 70q33 40 33 97q0 30 -13 55
q-20 25 -42 42q-47 35 -119 35q-100 0 -217 -90q-77 -77 -77 -164q0 -4 1.5 -15.5t3.5 -30.5q6 -46 53 -93q42 -42 90 -59q35 -11 87 -11q186 0 353 201q47 -38 86 -38l1 25q-53 0 -74 31l61 86.5t43 55.5q20 -45 20 -89q0 -66 -36 -136l-39 -73.5l-28 -51.5q-4 0 1 0t18 -1
q11 0 19 5q14 31 32.5 65.5l41.5 74.5l88 156l45.5 83t30.5 58l33 52.5l24 38.5q30 46 70 70zM1039 603l4 -4q-72 -67 -148 -191l-61 -104l-61 -105q8 35 12 65t4 53q0 40 -11 73l60 93q20 28 39 49.5t37 35.5q46 37 100 37q4 0 10 -0.5t15 -1.5zM660 454q41 0 81 -64
q-24 -59 -107 -151q-44 58 -44 117q0 37 14 62q6 10 10.5 16.5t10.5 10t14.5 5.5t20.5 4zM1157 744q12 7 10 18q-1 13 -16 10q-6 -1 -11 -6l-71 -69q-4 -4 -2 -5v-3l2 -1q5 2 6 1q1 0 0 -1l-1 -1z" />
    <glyph glyph-name="Acircumflex" unicode="&#xc2;" horiz-adv-x="835" 
d="M1076 613q-14 10 -24 11t-21 1q-56 0 -94 -29q-19 -14 -41 -36t-48 -52l-49.5 -56.5t-34.5 -34.5l-33.5 37.5t-16.5 17.5q-21 15 -49 15q-32 0 -60 -28q-22 -43 -22 -99q0 -80 38 -139q-38 -110 -186 -183q-57 -19 -119 -19q-106 0 -165 59q-69 69 -69 145q0 21 9 63
q10 42 57 90q48 48 91 63q39 10 77 10q97 0 141 -54q30 -38 30 -85v-11q0 -38 -40 -82q-41 -44 -102 -44q-27 0 -54 11q-50 20 -50 53q0 14 10 26.5t24 15.5q-13 16 -32 13q-34 -10 -34 -47q0 -14 7 -28t22 -26t37.5 -19.5t53.5 -7.5q90 0 157 70q33 40 33 97q0 30 -13 55
q-20 25 -42 42q-47 35 -119 35q-100 0 -217 -90q-77 -77 -77 -164q0 -4 1.5 -15.5t3.5 -30.5q6 -46 53 -93q42 -42 90 -59q35 -11 87 -11q186 0 353 201q47 -38 86 -38l1 25q-53 0 -74 31l61 86.5t43 55.5q20 -45 20 -89q0 -66 -36 -136l-39 -73.5l-28 -51.5q-4 0 1 0t18 -1
q11 0 19 5q14 31 32.5 65.5l41.5 74.5l88 156l45.5 83t30.5 58l33 52.5l24 38.5q30 46 70 70zM1039 603l4 -4q-72 -67 -148 -191l-61 -104l-61 -105q8 35 12 65t4 53q0 40 -11 73l60 93q20 28 39 49.5t37 35.5q46 37 100 37q4 0 10 -0.5t15 -1.5zM660 454q41 0 81 -64
q-24 -59 -107 -151q-44 58 -44 117q0 37 14 62q6 10 10.5 16.5t10.5 10t14.5 5.5t20.5 4zM995 687q3 0 82 32q36 -30 42 -32l3 1l2 4q-2 4 -15 24l-11.5 16.5l-6.5 9.5q-2 1 -18 1q-6 0 -15 -6q-34 -20 -50.5 -31t-17.5 -12l-1 -2q0 -5 6 -5z" />
    <glyph glyph-name="Atilde" unicode="&#xc3;" horiz-adv-x="835" 
d="M1076 613q-14 10 -24 11t-21 1q-56 0 -94 -29q-19 -14 -41 -36t-48 -52l-49.5 -56.5t-34.5 -34.5l-33.5 37.5t-16.5 17.5q-21 15 -49 15q-32 0 -60 -28q-22 -43 -22 -99q0 -80 38 -139q-38 -110 -186 -183q-57 -19 -119 -19q-106 0 -165 59q-69 69 -69 145q0 21 9 63
q10 42 57 90q48 48 91 63q39 10 77 10q97 0 141 -54q30 -38 30 -85v-11q0 -38 -40 -82q-41 -44 -102 -44q-27 0 -54 11q-50 20 -50 53q0 14 10 26.5t24 15.5q-13 16 -32 13q-34 -10 -34 -47q0 -14 7 -28t22 -26t37.5 -19.5t53.5 -7.5q90 0 157 70q33 40 33 97q0 30 -13 55
q-20 25 -42 42q-47 35 -119 35q-100 0 -217 -90q-77 -77 -77 -164q0 -4 1.5 -15.5t3.5 -30.5q6 -46 53 -93q42 -42 90 -59q35 -11 87 -11q186 0 353 201q47 -38 86 -38l1 25q-53 0 -74 31l61 86.5t43 55.5q20 -45 20 -89q0 -66 -36 -136l-39 -73.5l-28 -51.5q-4 0 1 0t18 -1
q11 0 19 5q14 31 32.5 65.5l41.5 74.5l88 156l45.5 83t30.5 58l33 52.5l24 38.5q30 46 70 70zM1039 603l4 -4q-72 -67 -148 -191l-61 -104l-61 -105q8 35 12 65t4 53q0 40 -11 73l60 93q20 28 39 49.5t37 35.5q46 37 100 37q4 0 10 -0.5t15 -1.5zM660 454q41 0 81 -64
q-24 -59 -107 -151q-44 58 -44 117q0 37 14 62q6 10 10.5 16.5t10.5 10t14.5 5.5t20.5 4zM979 700l-2 -4v-1l1 -2l3 -1l4 2l8 7q17 14 28 14q6 0 19 -7l25 -12l13 -6q6 -2 11 -2q15 0 32 17l16 16l2 3l-1 4l-4 1l-3 -1q-17 -16 -31 -16l-7 2l-7.5 2.5t-9.5 5.5
q-26 16 -43 16q-18 1 -37 -19l-11 -11z" />
    <glyph glyph-name="Adieresis" unicode="&#xc4;" horiz-adv-x="835" 
d="M1076 613q-14 10 -24 11t-21 1q-56 0 -94 -29q-19 -14 -41 -36t-48 -52l-49.5 -56.5t-34.5 -34.5l-33.5 37.5t-16.5 17.5q-21 15 -49 15q-32 0 -60 -28q-22 -43 -22 -99q0 -80 38 -139q-38 -110 -186 -183q-57 -19 -119 -19q-106 0 -165 59q-69 69 -69 145q0 21 9 63
q10 42 57 90q48 48 91 63q39 10 77 10q97 0 141 -54q30 -38 30 -85v-11q0 -38 -40 -82q-41 -44 -102 -44q-27 0 -54 11q-50 20 -50 53q0 14 10 26.5t24 15.5q-13 16 -32 13q-34 -10 -34 -47q0 -14 7 -28t22 -26t37.5 -19.5t53.5 -7.5q90 0 157 70q33 40 33 97q0 30 -13 55
q-20 25 -42 42q-47 35 -119 35q-100 0 -217 -90q-77 -77 -77 -164q0 -4 1.5 -15.5t3.5 -30.5q6 -46 53 -93q42 -42 90 -59q35 -11 87 -11q186 0 353 201q47 -38 86 -38l1 25q-53 0 -74 31l61 86.5t43 55.5q20 -45 20 -89q0 -66 -36 -136l-39 -73.5l-28 -51.5q-4 0 1 0t18 -1
q11 0 19 5q14 31 32.5 65.5l41.5 74.5l88 156l45.5 83t30.5 58l33 52.5l24 38.5q30 46 70 70zM1039 603l4 -4q-72 -67 -148 -191l-61 -104l-61 -105q8 35 12 65t4 53q0 40 -11 73l60 93q20 28 39 49.5t37 35.5q46 37 100 37q4 0 10 -0.5t15 -1.5zM660 454q41 0 81 -64
q-24 -59 -107 -151q-44 58 -44 117q0 37 14 62q6 10 10.5 16.5t10.5 10t14.5 5.5t20.5 4zM1107 720q-19 0 -19 -17q0 -2 2 -6q5 -11 14 -11q3 0 9 2q13 7 12 18q0 14 -18 14zM1037 720q-19 0 -19 -17q0 -2 2 -6q5 -11 14 -11q3 0 9 2q13 7 12 18q0 14 -18 14z" />
    <glyph glyph-name="Aring" unicode="&#xc5;" horiz-adv-x="835" 
d="M1076 613q-14 10 -24 11t-21 1q-56 0 -94 -29q-19 -14 -41 -36t-48 -52l-49.5 -56.5t-34.5 -34.5l-33.5 37.5t-16.5 17.5q-21 15 -49 15q-32 0 -60 -28q-22 -43 -22 -99q0 -80 38 -139q-38 -110 -186 -183q-57 -19 -119 -19q-106 0 -165 59q-69 69 -69 145q0 21 9 63
q10 42 57 90q48 48 91 63q39 10 77 10q97 0 141 -54q30 -38 30 -85v-11q0 -38 -40 -82q-41 -44 -102 -44q-27 0 -54 11q-50 20 -50 53q0 14 10 26.5t24 15.5q-13 16 -32 13q-34 -10 -34 -47q0 -14 7 -28t22 -26t37.5 -19.5t53.5 -7.5q90 0 157 70q33 40 33 97q0 30 -13 55
q-20 25 -42 42q-47 35 -119 35q-100 0 -217 -90q-77 -77 -77 -164q0 -4 1.5 -15.5t3.5 -30.5q6 -46 53 -93q42 -42 90 -59q35 -11 87 -11q186 0 353 201q47 -38 86 -38l1 25q-53 0 -74 31l61 86.5t43 55.5q20 -45 20 -89q0 -66 -36 -136l-39 -73.5l-28 -51.5q-4 0 1 0t18 -1
q11 0 19 5q14 31 32.5 65.5l41.5 74.5l88 156l45.5 83t30.5 58l33 52.5l24 38.5q30 46 70 70zM1039 603l4 -4q-72 -67 -148 -191l-61 -104l-61 -105q8 35 12 65t4 53q0 40 -11 73l60 93q20 28 39 49.5t37 35.5q46 37 100 37q4 0 10 -0.5t15 -1.5zM660 454q41 0 81 -64
q-24 -59 -107 -151q-44 58 -44 117q0 37 14 62q6 10 10.5 16.5t10.5 10t14.5 5.5t20.5 4zM1035 726q0 -38 38 -38t38 38q0 15 -11.5 26.5t-26.5 11.5q-16 0 -27 -11.5t-11 -26.5zM1047 726q-1 25 26 25q25 0 25 -25q0 -24 -25 -25t-26 25z" />
    <glyph glyph-name="AE" unicode="&#xc6;" horiz-adv-x="1444" 
d="M660 454q41 0 81 -64q-24 -59 -107 -151q-44 58 -44 117q0 37 14 62q6 10 10.5 16.5t10.5 10t14.5 5.5t20.5 4zM996 550q-57 -66 -119 -171l-52 -90l-52 -90q8 35 12 65t4 53q0 40 -11 73l60 93q20 28 39 49.5t37 35.5q46 37 100 37q4 0 10 -0.5t15 -1.5l3 -3
q-36 -16 -46 -50zM1420 623q-138 -43 -159 -157q-25 -31 -110 -31h-18q-22 0 -41.5 7.5t-34 20.5t-23 31.5t-8.5 39.5q0 37 29 55q3 3 10 6t14 5t13 4t8 4q-8 2 -10 2q3 0 -24 -3q2 2 5 3t5 3q-14 10 -24 11t-21 1q-56 0 -94 -29q-19 -14 -41 -36t-48 -52l-49.5 -56.5
t-34.5 -34.5l-33.5 37.5t-16.5 17.5q-21 15 -49 15q-32 0 -60 -28q-22 -43 -22 -99q0 -80 38 -139q-38 -110 -186 -183q-57 -19 -119 -19q-106 0 -165 59q-69 69 -69 145v10t1 10q6 62 60 127q43 51 96 69q39 10 77 10q97 0 141 -54q30 -38 30 -85v-11q0 -38 -40 -82
q-41 -44 -102 -44q-27 0 -54 11q-50 20 -50 53q0 14 10 26.5t24 15.5q-13 16 -32 13q-34 -10 -34 -47q0 -14 7 -28t22 -26t37.5 -19.5t53.5 -7.5q90 0 157 70q33 40 33 97q0 30 -13 55q-20 25 -42 42q-47 35 -119 35q-100 0 -217 -90q-77 -77 -77 -164q0 -4 1.5 -15.5
t3.5 -30.5q6 -46 53 -93q42 -42 90 -59q35 -11 87 -11q186 0 353 201q47 -38 86 -38l1 25q-53 0 -74 31l61 86.5t43 55.5q20 -45 20 -89q0 -66 -36 -136l-39 -73.5l-28 -51.5q-4 0 1 0t18 -1q11 0 19 5q14 31 32.5 65.5l41.5 74.5l88 156l45.5 83t30.5 58l25 41l19 30
q3 -38 32 -59q53 -40 129 -40q48 0 98 14l4 -30l-57 -14l-57 -14q-68 -21 -102 -50q-78 -71 -78 -168q0 -35 12 -68q32 -61 91 -77q43 -17 89 -17q110 0 206 81q81 55 81 145q0 16 -3 33q-23 60 -117 67q-54 -5 -98.5 -37t-68.5 -81l-2 -17q-1 -5 -1 -10v-9q0 -40 22 -56
q53 -17 57 -17q2 0 6 0.5t9 1.5q43 22 39 48q1 19 -19 19q-7 0 -11 -3v-22q-9 -12 -34 -12h-14q-47 23 -40 67q4 31 34 61q53 52 97 52q29 0 93 -38q23 -35 23 -72q0 -57 -57 -111q-77 -75 -171 -75q-97 0 -158 64q-28 37 -28 93q0 49 31 99q34 57 117 95q73 33 148 33
q-5 17 -5 27q0 41 39 50q15 15 23 15q5 0 14 -26q11 -27 25 -28q19 -10 40 -10q41 0 88 47q41 41 41 76q0 17 -12 37q-23 38 -93 38q-5 0 -14 -0.5t-21 -1.5zM1326 551q35 62 106 62q46 0 68 -20q28 -27 28 -53q0 -18 -7 -38q-14 -16 -22.5 -24.5l-10.5 -10.5
q-21 -18 -43 -18q-16 0 -30 7q-16 13 -16 35q0 10 3 18q12 19 12 25q0 4 -3 7q-12 -4 -53 -34q-33 -26 -58 -31q8 44 26 75z" />
    <glyph glyph-name="Ccedilla" unicode="&#xc7;" horiz-adv-x="577" 
d="M543 601h33q91 0 128 -34q30 -50 30 -84q0 -37 -38 -87q-25 -32 -57 -44q-26 -9 -73 -9h-12q-30 15 -42 45q-3 10 -3 19l2 21t3 21q-11 3 -38 -22l-18 -16.5l-17 -16.5q-77 -65 -197 -86q46 105 117 182q84 88 182 111zM328 -28l-10 -3l16 31h2q94 0 198 65v11
q-57 -45 -103 -55q-7 -1 -13 -1h-13h-27q-95 0 -131 38q-42 43 -42 112q0 61 31 124q57 0 119 35q36 20 103 74q10 -3 26 -31q17 -28 29 -29q30 -12 59 -12q59 0 126 43q66 58 66 133q0 14 -1 18q8 8 8 13q0 2 -8.5 11.5t-8.5 16.5q-47 59 -137 59q-5 0 -11.5 -0.5
t-15.5 -1.5q-130 -30 -236 -116q-105 -87 -157 -209q-5 -1 -21 -1q-29 0 -50 10q-60 24 -60 98q0 27 9 53q16 27 44 46q13 9 57 30q-23 -5 -44 -14.5t-40 -22.5q-55 -40 -55 -97q0 -42 37 -80q17 -15 58 -23q47 -9 61 -15q-21 -63 -21 -117q0 -89 55 -138q43 -24 96 -27
l-22 -42v-4v-2l1 -1h2l6 2l7 1l8 2q18 3 18 -16q0 -22 -34 -26q-23 -5 -48 0h-5q-5 -2 -3 -6q3 -9 30 -10q15 -1 33 2q21 4 35 17q19 15 14 35q-5 21 -28 21q-6 0 -9 -1z" />
    <glyph glyph-name="Egrave" unicode="&#xc8;" horiz-adv-x="509" 
d="M488 623q-138 -43 -159 -157q-25 -31 -110 -31h-18q-22 0 -41.5 7.5t-34 20.5t-23 31.5t-8.5 39.5q0 37 29 55q3 3 10 6t14 5t13 4t8 4q-8 2 -10 2q-5 0 -16 -2t-17 -2q-27 -8 -45.5 -28.5t-18.5 -47.5q0 -43 32 -66q53 -40 129 -40q48 0 98 14l4 -30l-57 -14l-57 -14
q-68 -21 -102 -50q-78 -71 -78 -168q0 -35 12 -68q32 -61 91 -77q43 -17 89 -17q110 0 206 81q81 55 81 145q0 16 -3 33q-23 60 -117 67q-54 -5 -98.5 -37t-68.5 -81q-3 -26 -3 -36q0 -40 22 -56q53 -17 57 -17q2 0 6 0.5t9 1.5q43 22 39 48q1 19 -19 19q-7 0 -11 -3v-22
q-9 -12 -34 -12h-14q-47 23 -40 67q4 31 34 61q53 52 97 52q29 0 93 -38q23 -35 23 -72q0 -57 -57 -111q-77 -75 -171 -75q-97 0 -158 64q-28 37 -28 93q0 49 31 99q34 57 117 95q73 33 148 33q-5 17 -5 27q0 41 39 50q15 15 23 15q5 0 14 -26q11 -27 25 -28q19 -10 40 -10
q41 0 88 47q41 41 41 76q0 17 -12 37q-23 38 -93 38q-5 0 -14 -0.5t-21 -1.5zM394 551q35 62 106 62q46 0 68 -20q28 -27 28 -53q0 -18 -7 -38q-14 -16 -22.5 -24.5l-10.5 -10.5q-21 -18 -43 -18q-16 0 -30 7q-16 13 -16 35q0 10 3 18q12 19 12 25q0 4 -3 7q-12 -4 -53 -34
q-33 -26 -58 -31q8 44 26 75zM461 743l76 -53l7 -4q0 -1 5 1l2 1v2q1 3 -2 6l-64 61l-7 7q-6 6 -11 7q-15 2 -16 -10q-2 -11 10 -18z" />
    <glyph glyph-name="Eacute" unicode="&#xc9;" horiz-adv-x="509" 
d="M488 623q-138 -43 -159 -157q-25 -31 -110 -31h-18q-22 0 -41.5 7.5t-34 20.5t-23 31.5t-8.5 39.5q0 37 29 55q3 3 10 6t14 5t13 4t8 4q-8 2 -10 2q-5 0 -16 -2t-17 -2q-27 -8 -45.5 -28.5t-18.5 -47.5q0 -43 32 -66q53 -40 129 -40q48 0 98 14l4 -30l-57 -14l-57 -14
q-68 -21 -102 -50q-78 -71 -78 -168q0 -35 12 -68q32 -61 91 -77q43 -17 89 -17q110 0 206 81q81 55 81 145q0 16 -3 33q-23 60 -117 67q-54 -5 -98.5 -37t-68.5 -81q-3 -26 -3 -36q0 -40 22 -56q53 -17 57 -17q2 0 6 0.5t9 1.5q43 22 39 48q1 19 -19 19q-7 0 -11 -3v-22
q-9 -12 -34 -12h-14q-47 23 -40 67q4 31 34 61q53 52 97 52q29 0 93 -38q23 -35 23 -72q0 -57 -57 -111q-77 -75 -171 -75q-97 0 -158 64q-28 37 -28 93q0 49 31 99q34 57 117 95q73 33 148 33q-5 17 -5 27q0 41 39 50q15 15 23 15q5 0 14 -26q11 -27 25 -28q19 -10 40 -10
q41 0 88 47q41 41 41 76q0 17 -12 37q-23 38 -93 38q-5 0 -14 -0.5t-21 -1.5zM394 551q35 62 106 62q46 0 68 -20q28 -27 28 -53q0 -18 -7 -38q-14 -16 -22.5 -24.5l-10.5 -10.5q-21 -18 -43 -18q-16 0 -30 7q-16 13 -16 35q0 10 3 18q12 19 12 25q0 4 -3 7q-12 -4 -53 -34
q-33 -26 -58 -31q8 44 26 75zM648 745q12 7 10 18q-1 13 -16 10q-5 -1 -11 -7l-71 -68q-3 -3 -2 -6v-2l2 -1q3 1 6 1q1 0 0 -1l-1 -1z" />
    <glyph glyph-name="Ecircumflex" unicode="&#xca;" horiz-adv-x="509" 
d="M488 623q-138 -43 -159 -157q-25 -31 -110 -31h-18q-22 0 -41.5 7.5t-34 20.5t-23 31.5t-8.5 39.5q0 37 29 55q3 3 10 6t14 5t13 4t8 4q-8 2 -10 2q-5 0 -16 -2t-17 -2q-27 -8 -45.5 -28.5t-18.5 -47.5q0 -43 32 -66q53 -40 129 -40q48 0 98 14l4 -30l-57 -14l-57 -14
q-68 -21 -102 -50q-78 -71 -78 -168q0 -35 12 -68q32 -61 91 -77q43 -17 89 -17q110 0 206 81q81 55 81 145q0 16 -3 33q-23 60 -117 67q-54 -5 -98.5 -37t-68.5 -81q-3 -26 -3 -36q0 -40 22 -56q53 -17 57 -17q2 0 6 0.5t9 1.5q43 22 39 48q1 19 -19 19q-7 0 -11 -3v-22
q-9 -12 -34 -12h-14q-47 23 -40 67q4 31 34 61q53 52 97 52q29 0 93 -38q23 -35 23 -72q0 -57 -57 -111q-77 -75 -171 -75q-97 0 -158 64q-28 37 -28 93q0 49 31 99q34 57 117 95q73 33 148 33q-5 17 -5 27q0 41 39 50q15 15 23 15q5 0 14 -26q11 -27 25 -28q19 -10 40 -10
q41 0 88 47q41 41 41 76q0 17 -12 37q-23 38 -93 38q-5 0 -14 -0.5t-21 -1.5zM394 551q35 62 106 62q46 0 68 -20q28 -27 28 -53q0 -18 -7 -38q-14 -16 -22.5 -24.5l-10.5 -10.5q-21 -18 -43 -18q-16 0 -30 7q-16 13 -16 35q0 10 3 18q12 19 12 25q0 4 -3 7q-12 -4 -53 -34
q-33 -26 -58 -31q8 44 26 75zM521 688q3 0 82 32q37 -30 43 -32l3 1l2 4q-2 6 -15 25l-11.5 16.5t-7.5 8.5q-1 1 -17 1q-6 0 -16 -6q-66 -40 -67 -43l-1 -2q0 -5 5 -5z" />
    <glyph glyph-name="Edieresis" unicode="&#xcb;" horiz-adv-x="509" 
d="M488 623q-138 -43 -159 -157q-25 -31 -110 -31h-18q-22 0 -41.5 7.5t-34 20.5t-23 31.5t-8.5 39.5q0 37 29 55q3 3 10 6t14 5t13 4t8 4q-8 2 -10 2q-5 0 -16 -2t-17 -2q-27 -8 -45.5 -28.5t-18.5 -47.5q0 -43 32 -66q53 -40 129 -40q48 0 98 14l4 -30l-57 -14l-57 -14
q-68 -21 -102 -50q-78 -71 -78 -168q0 -35 12 -68q32 -61 91 -77q43 -17 89 -17q110 0 206 81q81 55 81 145q0 16 -3 33q-23 60 -117 67q-54 -5 -98.5 -37t-68.5 -81q-3 -26 -3 -36q0 -40 22 -56q53 -17 57 -17q2 0 6 0.5t9 1.5q43 22 39 48q1 19 -19 19q-7 0 -11 -3v-22
q-9 -12 -34 -12h-14q-47 23 -40 67q4 31 34 61q53 52 97 52q29 0 93 -38q23 -35 23 -72q0 -57 -57 -111q-77 -75 -171 -75q-97 0 -158 64q-28 37 -28 93q0 49 31 99q34 57 117 95q73 33 148 33q-5 17 -5 27q0 41 39 50q15 15 23 15q5 0 14 -26q11 -27 25 -28q19 -10 40 -10
q41 0 88 47q41 41 41 76q0 17 -12 37q-23 38 -93 38q-5 0 -14 -0.5t-21 -1.5zM394 551q35 62 106 62q46 0 68 -20q28 -27 28 -53q0 -18 -7 -38q-14 -16 -22.5 -24.5l-10.5 -10.5q-21 -18 -43 -18q-16 0 -30 7q-16 13 -16 35q0 10 3 18q12 19 12 25q0 4 -3 7q-12 -4 -53 -34
q-33 -26 -58 -31q8 44 26 75zM619 720q-19 0 -19 -17q0 -2 2 -6q5 -11 14 -11q3 0 9 2q13 7 12 18q0 14 -18 14zM549 720q-19 0 -19 -17q0 -2 2 -6q5 -11 14 -11q3 0 9 2q13 7 12 18q0 14 -18 14z" />
    <glyph glyph-name="Igrave" unicode="&#xcc;" horiz-adv-x="618" 
d="M803 589l3 -3q-54 -44 -109 -134q-13 -22 -36 -64.5l-56 -107.5q-28 -55 -50.5 -94.5t-40.5 -64.5q-41 -57 -89 -80q-16 -8 -44 -16t-70 -16h-36q-61 0 -107.5 21t-73.5 67q-25 43 -25 95q0 49 24 84q54 98 185 98q50 -13 79 -29q22 -12 27 -32t9 -41v-11q0 -51 -36 -90
t-87 -39q-18 0 -30 4q-44 23 -44 53q0 13 10 30q5 10 8.5 16t4.5 9q-22 -14 -43 -41q-3 -9 -3 -19q0 -30 21.5 -46t52.5 -16q26 0 101 29q74 65 74 130q0 53 -62 88q-31 20 -69 20q-54 0 -133 -40q-50 -26 -83 -80q-33 -53 -33 -109q0 -91 81 -133q40 -27 101 -27
q40 0 159 25q119 39 172 114q14 20 48 81.5l88 164.5q82 157 155 223q34 7 33 17q-9 0 -39 -14q-29 -14 -37 -22zM486 596q18 6 36 6q32 0 98 -25t94 -25q42 0 78 30q-24 -10 -52 -10q-29 0 -93 21q-63 22 -92 22q-38 0 -69 -19zM479 588q-51 -39 -51 -77q0 -33 24 -48
l33 -15q13 -3 27 -3q54 0 119 56l-2 8q-2 -7 -4 -9q-30 -36 -91 -36q-31 0 -55.5 13.5t-24.5 47.5q0 35 25 63zM624 743l76 -53l7 -4q0 -1 5 1l2 1v2q1 3 -2 6l-64 61l-7 7q-6 6 -11 7q-15 2 -16 -10q-2 -11 10 -18z" />
    <glyph glyph-name="Iacute" unicode="&#xcd;" horiz-adv-x="618" 
d="M803 589l3 -3q-54 -44 -109 -134q-13 -22 -36 -64.5l-56 -107.5q-28 -55 -50.5 -94.5t-40.5 -64.5q-41 -57 -89 -80q-16 -8 -44 -16t-70 -16h-36q-61 0 -107.5 21t-73.5 67q-25 43 -25 95q0 49 24 84q54 98 185 98q50 -13 79 -29q22 -12 27 -32t9 -41v-11q0 -51 -36 -90
t-87 -39q-18 0 -30 4q-44 23 -44 53q0 13 10 30q5 10 8.5 16t4.5 9q-22 -14 -43 -41q-3 -9 -3 -19q0 -30 21.5 -46t52.5 -16q26 0 101 29q74 65 74 130q0 53 -62 88q-31 20 -69 20q-54 0 -133 -40q-50 -26 -83 -80q-33 -53 -33 -109q0 -91 81 -133q40 -27 101 -27
q40 0 159 25q119 39 172 114q14 20 48 81.5l88 164.5q82 157 155 223q34 7 33 17q-9 0 -39 -14q-29 -14 -37 -22zM486 596q18 6 36 6q32 0 98 -25t94 -25q42 0 78 30q-24 -10 -52 -10q-29 0 -93 21q-63 22 -92 22q-38 0 -69 -19zM479 588q-51 -39 -51 -77q0 -33 24 -48
l33 -15q13 -3 27 -3q54 0 119 56l-2 8q-2 -7 -4 -9q-30 -36 -91 -36q-31 0 -55.5 13.5t-24.5 47.5q0 35 25 63zM782 744q12 7 10 18q-1 13 -16 10q-6 -1 -11 -6l-71 -69q-4 -4 -2 -5v-3l2 -1q5 2 6 1q1 0 0 -1l-1 -1z" />
    <glyph glyph-name="Icircumflex" unicode="&#xce;" horiz-adv-x="618" 
d="M803 589l3 -3q-54 -44 -109 -134q-13 -22 -36 -64.5l-56 -107.5q-28 -55 -50.5 -94.5t-40.5 -64.5q-41 -57 -89 -80q-16 -8 -44 -16t-70 -16h-36q-61 0 -107.5 21t-73.5 67q-25 43 -25 95q0 49 24 84q54 98 185 98q50 -13 79 -29q22 -12 27 -32t9 -41v-11q0 -51 -36 -90
t-87 -39q-18 0 -30 4q-44 23 -44 53q0 13 10 30q5 10 8.5 16t4.5 9q-22 -14 -43 -41q-3 -9 -3 -19q0 -30 21.5 -46t52.5 -16q26 0 101 29q74 65 74 130q0 53 -62 88q-31 20 -69 20q-54 0 -133 -40q-50 -26 -83 -80q-33 -53 -33 -109q0 -91 81 -133q40 -27 101 -27
q40 0 159 25q119 39 172 114q14 20 48 81.5l88 164.5q82 157 155 223q34 7 33 17q-9 0 -39 -14q-29 -14 -37 -22zM486 596q18 6 36 6q32 0 98 -25t94 -25q42 0 78 30q-24 -10 -52 -10q-29 0 -93 21q-63 22 -92 22q-38 0 -69 -19zM479 588q-51 -39 -51 -77q0 -33 24 -48
l33 -15q13 -3 27 -3q54 0 119 56l-2 8q-2 -7 -4 -9q-30 -36 -91 -36q-31 0 -55.5 13.5t-24.5 47.5q0 35 25 63zM649 688q3 0 82 32q37 -30 43 -32l3 1l2 4q-2 6 -15 25l-11.5 16.5t-7.5 8.5q-1 1 -17 1q-6 0 -16 -6q-66 -40 -67 -43l-1 -2q0 -5 5 -5z" />
    <glyph glyph-name="Idieresis" unicode="&#xcf;" horiz-adv-x="618" 
d="M803 589l3 -3q-54 -44 -109 -134q-13 -22 -36 -64.5l-56 -107.5q-28 -55 -50.5 -94.5t-40.5 -64.5q-41 -57 -89 -80q-16 -8 -44 -16t-70 -16h-36q-61 0 -107.5 21t-73.5 67q-25 43 -25 95q0 49 24 84q54 98 185 98q50 -13 79 -29q22 -12 27 -32t9 -41v-11q0 -51 -36 -90
t-87 -39q-18 0 -30 4q-44 23 -44 53q0 13 10 30q5 10 8.5 16t4.5 9q-22 -14 -43 -41q-3 -9 -3 -19q0 -30 21.5 -46t52.5 -16q26 0 101 29q74 65 74 130q0 53 -62 88q-31 20 -69 20q-54 0 -133 -40q-50 -26 -83 -80q-33 -53 -33 -109q0 -91 81 -133q40 -27 101 -27
q40 0 159 25q119 39 172 114q14 20 48 81.5l88 164.5q82 157 155 223q34 7 33 17q-9 0 -39 -14q-29 -14 -37 -22zM486 596q18 6 36 6q32 0 98 -25t94 -25q42 0 78 30q-24 -10 -52 -10q-29 0 -93 21q-63 22 -92 22q-38 0 -69 -19zM479 588q-51 -39 -51 -77q0 -33 24 -48
l33 -15q13 -3 27 -3q54 0 119 56l-2 8q-2 -7 -4 -9q-30 -36 -91 -36q-31 0 -55.5 13.5t-24.5 47.5q0 35 25 63zM765 720q-19 0 -19 -17q0 -2 2 -6q5 -11 14 -11q3 0 9 2q13 7 12 18q0 14 -18 14zM695 720q-19 0 -19 -17q0 -2 2 -6q5 -11 14 -11q3 0 9 2q13 7 12 18
q0 14 -18 14z" />
    <glyph glyph-name="Eth" unicode="&#xd0;" horiz-adv-x="671" 
d="M1056 544q-27 80 -165 80q-136 0 -232 -98q121 71 236 71q66 0 115 -25q10 -2 23 -15t23 -13zM80 29q16 19 39 19l100 -30q-29 -10 -69 -10q-49 0 -70 21zM478 300l-42 -75.5l-25 -43.5q-52 -88 -127 -142q-14 0 -36.5 2t-51.5 6t-51 6t-36 2q-11 0 -20 -0.5t-16 -1.5
q-23 -5 -23 -18q0 -4 1 -6q32 -29 97 -29q36 0 80 9q25 -4 49 -5.5t47 -1.5q220 0 319 147q68 83 68 197q0 56 -16 104q-39 85 -116 132q-73 43 -171 43q-91 0 -185 -42q-108 -49 -137 -123q-24 -63 -24 -92q0 -71 37 -114q30 -35 92 -35q14 0 31.5 2t40.5 6q58 26 92 73
h123zM524 315l4 9q29 57 53 98t44 66q50 -67 50 -160q0 -80 -38 -154q-35 -68 -90 -108q-62 -44 -132 -44l-55 8q-47 6 -57 9q75 41 127 113q31 43 86 148h106v15h-98zM180 315v-15h162q-17 -20 -37 -40q-41 -18 -85 -18q-41 0 -68 13q-29 13 -57 78q-1 5 -1 24
q0 135 139 228q89 31 141 31q147 0 247 -115q-29 -26 -57 -62.5t-54 -82.5l-11 -19.5t-13 -21.5h-121q26 44 26 100q-4 23 -22 39t-41 16q-62 -11 -78 -54q43 31 71 31q24 -15 32 -22q17 -15 17 -53q0 -31 -17 -57h-173z" />
    <glyph glyph-name="Ntilde" unicode="&#xd1;" horiz-adv-x="897" 
d="M376 16q-30 -11 -64 -11q-43 0 -79 13q-147 46 -147 197q4 24 14.5 46.5t25 41t33 33t39.5 21.5q57 17 80 17q51 0 92 -37q42 -36 42 -85q0 -13 -6 -40q-3 -17 -13.5 -31t-24.5 -25t-31 -17t-34 -6q-10 0 -25 3q-9 1 -19 7.5t-18 15t-13 19t-5 19.5v5q0 3 2.5 11t18.5 16
q2 1 7.5 3.5t15.5 6.5q-5 18 -25 18q-8 0 -19 -7q-25 -13 -25 -61q0 -31 28 -50q25 -16 58 -16q56 0 105 43q50 44 50 98q0 17 -14 50q-30 69 -143 69q-21 0 -66 -6q-42 -4 -90 -40q-48 -37 -59 -78q-12 -48 -12 -73q0 -63 42 -111q69 -78 185 -78q56 0 104 16
q69 22 189 116q59 47 100 134l41 94.5l30 68.5q38 85 98 138q41 26 98 26q50 0 109 -18q-60 -42 -109 -86l-80 -100.5t-48 -62.5q-93 -128 -93 -264q0 -16 9 -26q12 -18 54 -18q37 0 64 29q4 4 14 19.5l27 41.5q-8 -24 -39 -51q-31 -26 -54 -26q-25 0 -40 22q-13 19 -13 44
q0 37 46 122l41.5 78l32.5 60q20 37 44 69t50 60q65 69 152 98l32 17q16 9 15 27h-10q-23 -24 -57 -24q-10 0 -24 2t-34 6q-38 9 -57 9q-15 0 -19 -1q-101 0 -204 -151q-7 57 -31 92q-35 48 -99 48q-62 0 -127 -62q-48 -62 -48 -117q0 -18 6 -34t17 -28t25.5 -19.5
t32.5 -7.5q16 0 32.5 7.5t24.5 21.5q7 8 14 32q-1 2 -3 6.5t-5 12.5q-5 6 -9 6q-3 0 -7 -3q2 -2 2 -17q0 -13 -25 -35q-8 -3 -17 -3q-26 0 -45 16q-29 23 -29 60q0 112 115 148q2 0 12 2h12q76 0 104 -58q12 -41 12 -78q0 -44 -25 -110q-31 -83 -131 -191
q-101 -107 -183 -139zM787 700l-2 -4v-1l1 -2l3 -1l4 2l8 7q17 14 28 14q6 0 19 -7l25 -12l13 -6q6 -2 11 -2q15 0 32 17l16 16l2 3l-1 4l-4 1l-3 -1q-17 -16 -31 -16l-7 2l-7.5 2.5t-9.5 5.5q-26 16 -43 16q-18 1 -37 -19l-11 -11z" />
    <glyph glyph-name="Ograve" unicode="&#xd2;" horiz-adv-x="484" 
d="M507 623q-137 -13 -268 -110q-134 -100 -175 -228q-5 -18 -11 -36l-12 -35q-12 -42 -12 -73q0 -58 38 -105q40 -48 98 -48q80 0 202 93l60.5 64.5l42.5 48.5q85 101 85 207q0 14 -1 25.5t-3 21.5q-17 24 -27 36q-16 19 -54 19q-57 0 -148 -72q-22 -31 -34.5 -50.5
l-17.5 -27.5q-26 -47 -26 -88q0 -30 11 -49t24 -24q9 -3 33 -3q29 18 29 28q0 3 -2 9q-7 1 -18 -4t-16 -5q-8 0 -12 4q-11 4 -19.5 16.5t-9.5 35.5q-2 64 48 126q46 57 109 83q12 3 23 3q35 0 62 -27q17 -39 17 -76q0 -46 -23 -95q-29 -60 -61 -99q-22 -35 -44 -61.5
t-45 -45.5q-54 -45 -119 -62h-9h-7q-5 -1 -11 -1q-40 -1 -72.5 12.5t-51.5 51.5q-16 33 -16 72q0 30 36 131q48 131 161 226q122 101 254 101q64 -9 99 -23q51 -23 71 -68q3 -9 3 -18q0 -28 -24 -50q5 -8 12 -8q16 0 35 19q9 18 9 42q0 21 -8 40q-66 80 -170 80q-7 0 -35 -3
zM394 743l76 -53l7 -4q0 -1 5 1l2 1v2q1 3 -2 6l-64 61l-7 7q-6 6 -11 7q-15 2 -16 -10q-2 -11 10 -18z" />
    <glyph glyph-name="Oacute" unicode="&#xd3;" horiz-adv-x="484" 
d="M507 623q-137 -13 -268 -110q-134 -100 -175 -228q-5 -18 -11 -36l-12 -35q-12 -42 -12 -73q0 -58 38 -105q40 -48 98 -48q80 0 202 93l60.5 64.5l42.5 48.5q85 101 85 207q0 14 -1 25.5t-3 21.5q-17 24 -27 36q-16 19 -54 19q-57 0 -148 -72q-22 -31 -34.5 -50.5
l-17.5 -27.5q-26 -47 -26 -88q0 -30 11 -49t24 -24q9 -3 33 -3q29 18 29 28q0 3 -2 9q-7 1 -18 -4t-16 -5q-8 0 -12 4q-11 4 -19.5 16.5t-9.5 35.5q-2 64 48 126q46 57 109 83q12 3 23 3q35 0 62 -27q17 -39 17 -76q0 -46 -23 -95q-29 -60 -61 -99q-22 -35 -44 -61.5
t-45 -45.5q-54 -45 -119 -62h-9h-7q-5 -1 -11 -1q-40 -1 -72.5 12.5t-51.5 51.5q-16 33 -16 72q0 30 36 131q48 131 161 226q122 101 254 101q64 -9 99 -23q51 -23 71 -68q3 -9 3 -18q0 -28 -24 -50q5 -8 12 -8q16 0 35 19q9 18 9 42q0 21 -8 40q-66 80 -170 80q-7 0 -35 -3
zM656 743q12 7 10 18q-1 12 -16 10q-5 -1 -11 -7l-71 -68q-3 -3 -2 -6v-2l2 -1q3 1 6 1q1 0 0 -1l-1 -1z" />
    <glyph glyph-name="Ocircumflex" unicode="&#xd4;" horiz-adv-x="484" 
d="M507 623q-137 -13 -268 -110q-134 -100 -175 -228q-5 -18 -11 -36l-12 -35q-12 -42 -12 -73q0 -58 38 -105q40 -48 98 -48q80 0 202 93l60.5 64.5l42.5 48.5q85 101 85 207q0 14 -1 25.5t-3 21.5q-17 24 -27 36q-16 19 -54 19q-57 0 -148 -72q-22 -31 -34.5 -50.5
l-17.5 -27.5q-26 -47 -26 -88q0 -30 11 -49t24 -24q9 -3 33 -3q29 18 29 28q0 3 -2 9q-7 1 -18 -4t-16 -5q-8 0 -12 4q-11 4 -19.5 16.5t-9.5 35.5q-2 64 48 126q46 57 109 83q12 3 23 3q35 0 62 -27q17 -39 17 -76q0 -46 -23 -95q-29 -60 -61 -99q-22 -35 -44 -61.5
t-45 -45.5q-54 -45 -119 -62h-9h-7q-5 -1 -11 -1q-40 -1 -72.5 12.5t-51.5 51.5q-16 33 -16 72q0 30 36 131q48 131 161 226q122 101 254 101q64 -9 99 -23q51 -23 71 -68q3 -9 3 -18q0 -28 -24 -50q5 -8 12 -8q16 0 35 19q9 18 9 42q0 21 -8 40q-66 80 -170 80q-7 0 -35 -3
zM574 683q3 0 82 32q37 -30 43 -32l3 1l2 4q-2 6 -15 25l-11.5 16.5t-7.5 8.5q-1 1 -17 1q-6 0 -16 -6q-66 -40 -67 -43l-1 -2q0 -5 5 -5z" />
    <glyph glyph-name="Otilde" unicode="&#xd5;" horiz-adv-x="484" 
d="M507 623q-137 -13 -268 -110q-134 -100 -175 -228q-5 -18 -11 -36l-12 -35q-12 -42 -12 -73q0 -58 38 -105q40 -48 98 -48q80 0 202 93l60.5 64.5l42.5 48.5q85 101 85 207q0 14 -1 25.5t-3 21.5q-17 24 -27 36q-16 19 -54 19q-57 0 -148 -72q-22 -31 -34.5 -50.5
l-17.5 -27.5q-26 -47 -26 -88q0 -30 11 -49t24 -24q9 -3 33 -3q29 18 29 28q0 3 -2 9q-7 1 -18 -4t-16 -5q-8 0 -12 4q-11 4 -19.5 16.5t-9.5 35.5q-2 64 48 126q46 57 109 83q12 3 23 3q35 0 62 -27q17 -39 17 -76q0 -46 -23 -95q-29 -60 -61 -99q-22 -35 -44 -61.5
t-45 -45.5q-54 -45 -119 -62h-9h-7q-5 -1 -11 -1q-40 -1 -72.5 12.5t-51.5 51.5q-16 33 -16 72q0 30 36 131q48 131 161 226q122 101 254 101q64 -9 99 -23q51 -23 71 -68q3 -9 3 -18q0 -28 -24 -50q5 -8 12 -8q16 0 35 19q9 18 9 42q0 21 -8 40q-66 80 -170 80q-7 0 -35 -3
zM553 700l-2 -4v-1l1 -2l3 -1l4 2l8 7q17 14 28 14q6 0 19 -7l25 -12l13 -6q6 -2 11 -2q15 0 32 17l16 16l2 3l-1 4l-4 1l-3 -1q-17 -16 -31 -16l-7 2l-7.5 2.5t-9.5 5.5q-26 16 -43 16q-18 1 -37 -19l-11 -11z" />
    <glyph glyph-name="Odieresis" unicode="&#xd6;" horiz-adv-x="484" 
d="M507 623q-137 -13 -268 -110q-134 -100 -175 -228q-5 -18 -11 -36l-12 -35q-12 -42 -12 -73q0 -58 38 -105q40 -48 98 -48q80 0 202 93l60.5 64.5l42.5 48.5q85 101 85 207q0 14 -1 25.5t-3 21.5q-17 24 -27 36q-16 19 -54 19q-57 0 -148 -72q-22 -31 -34.5 -50.5
l-17.5 -27.5q-26 -47 -26 -88q0 -30 11 -49t24 -24q9 -3 33 -3q29 18 29 28q0 3 -2 9q-7 1 -18 -4t-16 -5q-8 0 -12 4q-11 4 -19.5 16.5t-9.5 35.5q-2 64 48 126q46 57 109 83q12 3 23 3q35 0 62 -27q17 -39 17 -76q0 -46 -23 -95q-29 -60 -61 -99q-22 -35 -44 -61.5
t-45 -45.5q-54 -45 -119 -62h-9h-7q-5 -1 -11 -1q-40 -1 -72.5 12.5t-51.5 51.5q-16 33 -16 72q0 30 36 131q48 131 161 226q122 101 254 101q64 -9 99 -23q51 -23 71 -68q3 -9 3 -18q0 -28 -24 -50q5 -8 12 -8q16 0 35 19q9 18 9 42q0 21 -8 40q-66 80 -170 80q-7 0 -35 -3
zM639 720q-19 0 -19 -17q0 -2 2 -6q5 -11 14 -11q3 0 9 2q13 7 12 18q0 14 -18 14zM569 720q-19 0 -19 -17q0 -2 2 -6q5 -11 14 -11q3 0 9 2q13 7 12 18q0 14 -18 14z" />
    <glyph glyph-name="multiply" unicode="&#xd7;" horiz-adv-x="339" 
d="M61 49l15 -15l94 93l93 -93l15 15l-93 93l93 93l-15 16l-93 -93l-93 92l-15 -15l92 -93z" />
    <glyph glyph-name="Oslash" unicode="&#xd8;" horiz-adv-x="484" 
d="M507 623q-137 -13 -268 -110q-134 -100 -175 -228q-5 -18 -11 -36l-12 -35q-12 -42 -12 -73q0 -58 38 -105q40 -48 98 -48q80 0 202 93l60.5 64.5l42.5 48.5q85 101 85 207q0 14 -1 25.5t-3 21.5q-17 24 -27 36q-16 19 -54 19q-57 0 -148 -72q-22 -31 -34.5 -50.5
l-17.5 -27.5q-26 -47 -26 -88q0 -30 11 -49t24 -24q9 -3 33 -3q29 18 29 28q0 3 -2 9q-7 1 -18 -4t-16 -5q-8 0 -12 4q-11 4 -19.5 16.5t-9.5 35.5q-2 64 48 126q46 57 109 83q12 3 23 3q35 0 62 -27q17 -39 17 -76q0 -46 -23 -95q-29 -60 -61 -99q-22 -35 -44 -61.5
t-45 -45.5q-54 -45 -119 -62h-9h-7q-5 -1 -11 -1q-40 -1 -72.5 12.5t-51.5 51.5q-16 33 -16 72q0 30 36 131q48 131 161 226q122 101 254 101q64 -9 99 -23q51 -23 71 -68q3 -9 3 -18q0 -28 -24 -50q5 -8 12 -8q16 0 35 19q9 18 9 42q0 21 -8 40q-66 80 -170 80q-7 0 -35 -3
z" />
    <glyph glyph-name="Ugrave" unicode="&#xd9;" horiz-adv-x="669" 
d="M385 618q-22 7 -63 7q-56 0 -104 -21q-28 -12 -53 -27t-47 -34q-35 -29 -57 -69q-21 -35 -21 -75q0 -24 10 -51q18 -52 100 -61q77 0 151 93q18 28 18 57q0 26 -13 42q-5 11 -19.5 14t-27.5 6q-55 -10 -84 -58l31 23q20 14 39 14q25 -7 29 -7q12 -8 18 -25
q1 -4 2.5 -11.5t3.5 -20.5q-2 -6 -4 -15.5t-6 -22.5q-7 -19 -25 -32q-23 -29 -75 -29q-34 0 -68 10q-54 15 -54 115q11 60 66 109q53 49 113 59q146 0 180 -46q32 -44 32 -90q0 -18 -3 -31q-8 -31 -51 -107l-94 -158.5l-68 -112.5q-1 -8 -1 -15v-15q0 -26 19 -33
q66 0 127 34q45 24 107 80q-2 -12 -17 -36q-16 -25 -16 -41q0 -17 16 -30q16 -6 32 -6q32 0 73 27l32 23t33 23l1 9l-48 -34.5l-16 -11.5q-38 -26 -72 -26q-7 1 -11.5 9.5l-8.5 16.5l56 88l60 98l144 237t98 149l-63 -10q-23 -36 -111 -192l-76 -127.5t-63 -91.5
q-87 -112 -191 -174q-11 -3 -24 -3q-34 0 -47 22q7 23 16 45t22 44q2 3 15 24l38 60l56 88.5l25 39.5q48 87 48 139q0 45 -21 80q-29 48 -88 65zM545 743l76 -53l7 -4q0 -1 5 1l2 1v2q1 3 -2 6l-64 61l-7 7q-6 6 -11 7q-15 2 -16 -10q-2 -11 10 -18z" />
    <glyph glyph-name="Uacute" unicode="&#xda;" horiz-adv-x="669" 
d="M385 618q-22 7 -63 7q-56 0 -104 -21q-28 -12 -53 -27t-47 -34q-35 -29 -57 -69q-21 -35 -21 -75q0 -24 10 -51q18 -52 100 -61q77 0 151 93q18 28 18 57q0 26 -13 42q-5 11 -19.5 14t-27.5 6q-55 -10 -84 -58l31 23q20 14 39 14q25 -7 29 -7q12 -8 18 -25
q1 -4 2.5 -11.5t3.5 -20.5q-2 -6 -4 -15.5t-6 -22.5q-7 -19 -25 -32q-23 -29 -75 -29q-34 0 -68 10q-54 15 -54 115q11 60 66 109q53 49 113 59q146 0 180 -46q32 -44 32 -90q0 -18 -3 -31q-8 -31 -51 -107l-94 -158.5l-68 -112.5q-1 -8 -1 -15v-15q0 -26 19 -33
q66 0 127 34q45 24 107 80q-2 -12 -17 -36q-16 -25 -16 -41q0 -17 16 -30q16 -6 32 -6q32 0 73 27l32 23t33 23l1 9l-48 -34.5l-16 -11.5q-38 -26 -72 -26q-7 1 -11.5 9.5l-8.5 16.5l56 88l60 98l144 237t98 149l-63 -10q-23 -36 -111 -192l-76 -127.5t-63 -91.5
q-87 -112 -191 -174q-11 -3 -24 -3q-34 0 -47 22q7 23 16 45t22 44q2 3 15 24l38 60l56 88.5l25 39.5q48 87 48 139q0 45 -21 80q-29 48 -88 65zM757 744q12 7 10 18q-1 13 -16 10q-6 -1 -11 -6l-71 -69q-4 -4 -2 -5v-3l2 -1q5 2 6 1q1 0 0 -1l-1 -1z" />
    <glyph glyph-name="Ucircumflex" unicode="&#xdb;" horiz-adv-x="669" 
d="M385 618q-22 7 -63 7q-56 0 -104 -21q-28 -12 -53 -27t-47 -34q-35 -29 -57 -69q-21 -35 -21 -75q0 -24 10 -51q18 -52 100 -61q77 0 151 93q18 28 18 57q0 26 -13 42q-5 11 -19.5 14t-27.5 6q-55 -10 -84 -58l31 23q20 14 39 14q25 -7 29 -7q12 -8 18 -25
q1 -4 2.5 -11.5t3.5 -20.5q-2 -6 -4 -15.5t-6 -22.5q-7 -19 -25 -32q-23 -29 -75 -29q-34 0 -68 10q-54 15 -54 115q11 60 66 109q53 49 113 59q146 0 180 -46q32 -44 32 -90q0 -18 -3 -31q-8 -31 -51 -107l-94 -158.5l-68 -112.5q-1 -8 -1 -15v-15q0 -26 19 -33
q66 0 127 34q45 24 107 80q-2 -12 -17 -36q-16 -25 -16 -41q0 -17 16 -30q16 -6 32 -6q32 0 73 27l32 23t33 23l1 9l-48 -34.5l-16 -11.5q-38 -26 -72 -26q-7 1 -11.5 9.5l-8.5 16.5l56 88l60 98l144 237t98 149l-63 -10q-23 -36 -111 -192l-76 -127.5t-63 -91.5
q-87 -112 -191 -174q-11 -3 -24 -3q-34 0 -47 22q7 23 16 45t22 44q2 3 15 24l38 60l56 88.5l25 39.5q48 87 48 139q0 45 -21 80q-29 48 -88 65zM587 688q3 0 82 32q37 -30 43 -32l3 1l2 4q-2 6 -15 25l-11.5 16.5t-7.5 8.5q-1 1 -17 1q-6 0 -16 -6q-66 -40 -67 -43l-1 -2
q0 -5 5 -5z" />
    <glyph glyph-name="Udieresis" unicode="&#xdc;" horiz-adv-x="669" 
d="M385 618q-22 7 -63 7q-56 0 -104 -21q-28 -12 -53 -27t-47 -34q-35 -29 -57 -69q-21 -35 -21 -75q0 -24 10 -51q18 -52 100 -61q77 0 151 93q18 28 18 57q0 26 -13 42q-5 11 -19.5 14t-27.5 6q-55 -10 -84 -58l31 23q20 14 39 14q25 -7 29 -7q12 -8 18 -25
q1 -4 2.5 -11.5t3.5 -20.5q-2 -6 -4 -15.5t-6 -22.5q-7 -19 -25 -32q-23 -29 -75 -29q-34 0 -68 10q-54 15 -54 115q11 60 66 109q53 49 113 59q146 0 180 -46q32 -44 32 -90q0 -18 -3 -31q-8 -31 -51 -107l-94 -158.5l-68 -112.5q-1 -8 -1 -15v-15q0 -26 19 -33
q66 0 127 34q45 24 107 80q-2 -12 -17 -36q-16 -25 -16 -41q0 -17 16 -30q16 -6 32 -6q32 0 73 27l32 23t33 23l1 9l-48 -34.5l-16 -11.5q-38 -26 -72 -26q-7 1 -11.5 9.5l-8.5 16.5l56 88l60 98l144 237t98 149l-63 -10q-23 -36 -111 -192l-76 -127.5t-63 -91.5
q-87 -112 -191 -174q-11 -3 -24 -3q-34 0 -47 22q7 23 16 45t22 44q2 3 15 24l38 60l56 88.5l25 39.5q48 87 48 139q0 45 -21 80q-29 48 -88 65zM703 720q-19 0 -19 -17q0 -2 2 -6q5 -11 14 -11q3 0 9 2q13 7 12 18q0 14 -18 14zM633 720q-19 0 -19 -17q0 -2 2 -6
q5 -11 14 -11q3 0 9 2q13 7 12 18q0 14 -18 14z" />
    <glyph glyph-name="Yacute" unicode="&#xdd;" horiz-adv-x="571" 
d="M128 -263l51 17.5t32 14.5q26 14 74 57q112 103 253 382l66 131.5t24 46.5q59 102 128 152q43 31 86 42q35 8 94 8q24 0 38 -7q26 -14 26 -57v-13q27 0 27 32q0 14 -9 35q-20 44 -99 44q-71 0 -142 -47q-79 -53 -147 -155l-76 -118l-54 -86q-34 -54 -68 -95.5t-68 -72.5
q-7 6 -12.5 11.5l-10.5 10.5q-20 18 -47 18q-60 0 -85 -17q77 62 145 142q108 127 108 228q0 67 -46 119q-56 62 -150 62q-100 0 -158 -50q-23 -21 -39 -37.5t-25 -27.5q-30 -41 -30 -83q0 -23 12 -54q24 -67 122 -67q54 0 98 30q70 48 70 108q0 29 -21 50.5t-50 21.5
q-13 0 -18 -1l-22 -4q-31 -6 -49 -47h8q16 39 52 39q18 0 43 -17q41 -29 41 -62q0 -44 -41 -73q-40 -28 -87 -28q-13 0 -29 3q-48 6 -82 45q-20 42 -20 73q0 53 47 103q58 61 158 61q99 0 143 -66q32 -52 32 -110q0 -106 -95 -228q-38 -48 -100 -104l-56.5 -48.5
l-41.5 -34.5l40.5 29.5t19.5 13.5q36 21 69 21q18 0 45 -9q33 -11 33 -47q23 5 47 26q5 4 14.5 13l25.5 25l4 -3l-51 -92l-28 -49q-49 -79 -100 -127q-68 -63 -139 -80q-29 -7 -51.5 -10t-37.5 -3q-39 0 -72 11q-58 22 -58 54q0 7 4 16.5t15 12.5q1 1 20 4q-5 17 -25 17
q-44 0 -44 -39q0 -15 9 -30t27 -27.5t43.5 -20t58.5 -7.5q54 0 131 24zM702 744q12 7 10 18q-1 13 -16 10q-6 -1 -11 -6l-71 -69q-4 -4 -2 -5v-3l2 -1q5 2 6 1q1 0 0 -1l-1 -1z" />
    <glyph glyph-name="Thorn" unicode="&#xde;" horiz-adv-x="246" 
d="M159 323q26 0 41 -4q29 -29 29 -73q0 -15 -5 -37q-38 -89 -49 -109q-34 -60 -79 -85q-11 -3 -21 -3q-26 0 -42 16q-1 3 -1 14q0 37 29 72l30 33l22 23q36 16 52 21q-105 -11 -157 -115l-6 -36q0 -36 48 -36q31 0 89 37q116 105 116 216q0 23 -6 49q-16 31 -53 31
q-23 0 -37 -14zM244 79l-28 -25.5l-28 -25.5q-52 -23 -55 -28q59 19 103 58z" />
    <glyph glyph-name="germandbls" unicode="&#xdf;" horiz-adv-x="186" 
d="M62 92l20 40.5t14 28.5l47 80l41 69q40 70 57 93q117 156 276 156q11 0 25 -1.5t30 -3.5l30 -18q16 -11 14 -30q8 -2 18 7q4 7 4 15q0 10 -7 25q-19 24 -62 25h-35q-17 0 -34 1q-170 -48 -263 -159q-74 -91 -201 -316q-116 -210 -202 -302l39 -2q106 139 174 265l5 2
q-6 -17 -6 -27q0 -40 34 -40q11 0 33 8q29 17 38 43q8 21 8 59q-1 5 -1 11v12v22q0 14 1 27.5t3 24.5l-54 -60zM118 145q17 -39 17 -70q0 -15 -4 -27q-12 -41 -44 -41q-28 0 -28 24q0 6 2 11t17 7q20 3 20 18q0 11 -14 17l-23 -7zM170 37q-26 -23 -39 -33q17 10 37.5 27.5
t43.5 43.5z" />
    <glyph glyph-name="agrave" unicode="&#xe0;" 
d="M48 93q20 35 64 82q19 21 42 21q2 0 12 -2q22 -14 29 -24q-56 -117 -107 -154q2 1 11 8t15 4q4 -2 5 -9q3 -19 26 -19q28 0 67 21q40 23 56 45q-51 -47 -103 -58q-9 -2 -14.5 6t-3.5 17l89 147v14q-6 -1 -19 -6q-1 1 -7 5t-18 9t-24 5q-28 0 -65 -22q-33 -19 -54 -43
l-25 -29.5t-11 -14.5q-19 -28 -19 -50q0 -20 13 -39q7 -7 25 -7q27 0 47 14q-8 -4 -15 -5q-10 -2 -14 2q-12 3 -14.5 16.5t-4.5 26.5l9 21.5t8 17.5zM78 304l76 -53l7 -4q0 -1 5 1l2 1v2q1 3 -2 6l-64 61l-7 7q-6 6 -11 7q-15 2 -16 -10q-2 -11 10 -18z" />
    <glyph glyph-name="aacute" unicode="&#xe1;" 
d="M48 93q20 35 64 82q19 21 42 21q2 0 12 -2q22 -14 29 -24q-56 -117 -107 -154q2 1 11 8t15 4q4 -2 5 -9q3 -19 26 -19q28 0 67 21q40 23 56 45q-51 -47 -103 -58q-9 -2 -14.5 6t-3.5 17l89 147v14q-6 -1 -19 -6q-1 1 -7 5t-18 9t-24 5q-28 0 -65 -22q-33 -19 -54 -43
l-25 -29.5t-11 -14.5q-19 -28 -19 -50q0 -20 13 -39q7 -7 25 -7q27 0 47 14q-8 -4 -15 -5q-10 -2 -14 2q-12 3 -14.5 16.5t-4.5 26.5l9 21.5t8 17.5zM262 305q12 7 10 18q-1 13 -16 10q-6 -1 -11 -6l-71 -69q-4 -4 -2 -5v-3l2 -1q3 -1 5 -1z" />
    <glyph glyph-name="acircumflex" unicode="&#xe2;" 
d="M48 93q20 35 64 82q19 21 42 21q2 0 12 -2q22 -14 29 -24q-56 -117 -107 -154q2 1 11 8t15 4q4 -2 5 -9q3 -19 26 -19q28 0 67 21q40 23 56 45q-51 -47 -103 -58q-9 -2 -14.5 6t-3.5 17l89 147v14q-6 -1 -19 -6q-1 1 -7 5t-18 9t-24 5q-28 0 -65 -22q-33 -19 -54 -43
l-25 -29.5t-11 -14.5q-19 -28 -19 -50q0 -20 13 -39q7 -7 25 -7q27 0 47 14q-8 -4 -15 -5q-10 -2 -14 2q-12 3 -14.5 16.5t-4.5 26.5l9 21.5t8 17.5zM127 249q3 0 82 32q37 -30 43 -32l3 1l2 4q-2 6 -15 25l-11.5 16.5t-7.5 8.5q-1 1 -17 1q-6 0 -16 -6q-66 -40 -67 -43
l-1 -2q0 -5 5 -5z" />
    <glyph glyph-name="atilde" unicode="&#xe3;" 
d="M48 93q20 35 64 82q19 21 42 21q2 0 12 -2q22 -14 29 -24q-56 -117 -107 -154q2 1 11 8t15 4q4 -2 5 -9q3 -19 26 -19q28 0 67 21q40 23 56 45q-51 -47 -103 -58q-9 -2 -14.5 6t-3.5 17l89 147v14q-6 -1 -19 -6q-1 1 -7 5t-18 9t-24 5q-28 0 -65 -22q-33 -19 -54 -43
l-25 -29.5t-11 -14.5q-19 -28 -19 -50q0 -20 13 -39q7 -7 25 -7q27 0 47 14q-8 -4 -15 -5q-10 -2 -14 2q-12 3 -14.5 16.5t-4.5 26.5l9 21.5t8 17.5zM127 261l-2 -4v-1l1 -2l3 -1l4 2l8 7q17 14 28 14q6 0 19 -7l25 -12l13 -6q6 -2 11 -2q15 0 32 17l16 16l2 3l-1 4l-4 1
l-3 -1q-17 -16 -31 -16l-7 2l-7.5 2.5t-9.5 5.5q-26 16 -43 16q-18 1 -37 -19l-11 -11z" />
    <glyph glyph-name="adieresis" unicode="&#xe4;" 
d="M48 93q20 35 64 82q19 21 42 21q2 0 12 -2q22 -14 29 -24q-56 -117 -107 -154q2 1 11 8t15 4q4 -2 5 -9q3 -19 26 -19q28 0 67 21q40 23 56 45q-51 -47 -103 -58q-9 -2 -14.5 6t-3.5 17l89 147v14q-6 -1 -19 -6q-1 1 -7 5t-18 9t-24 5q-28 0 -65 -22q-33 -19 -54 -43
l-25 -29.5t-11 -14.5q-19 -28 -19 -50q0 -20 13 -39q7 -7 25 -7q27 0 47 14q-8 -4 -15 -5q-10 -2 -14 2q-12 3 -14.5 16.5t-4.5 26.5l9 21.5t8 17.5zM232 281q-19 0 -19 -17q0 -2 2 -6q5 -11 14 -11q3 0 9 2q13 7 12 18q0 14 -18 14zM162 281q-19 0 -19 -17q0 -2 2 -6
q5 -11 14 -11q3 0 9 2q13 7 12 18q0 14 -18 14z" />
    <glyph glyph-name="aring" unicode="&#xe5;" 
d="M48 93q20 35 64 82q19 21 42 21q2 0 12 -2q22 -14 29 -24q-56 -117 -107 -154q2 1 11 8t15 4q4 -2 5 -9q3 -19 26 -19q28 0 67 21q40 23 56 45q-51 -47 -103 -58q-9 -2 -14.5 6t-3.5 17l89 147v14q-6 -1 -19 -6q-1 1 -7 5t-18 9t-24 5q-28 0 -65 -22q-33 -19 -54 -43
l-25 -29.5t-11 -14.5q-19 -28 -19 -50q0 -20 13 -39q7 -7 25 -7q27 0 47 14q-8 -4 -15 -5q-10 -2 -14 2q-12 3 -14.5 16.5t-4.5 26.5l9 21.5t8 17.5zM179 287q0 -38 38 -38t38 38q0 15 -11.5 26.5t-26.5 11.5q-16 0 -27 -11.5t-11 -26.5zM191 287q-1 25 26 25q25 0 25 -25
q0 -24 -25 -25t-26 25z" />
    <glyph glyph-name="ae" unicode="&#xe6;" horiz-adv-x="383" 
d="M292 12q-41 0 -41 45q0 26 19 39q55 13 77 25q42 22 42 62q0 17 -24 17q-48 0 -96 -49q-48 -50 -48 -99q0 -5 0.5 -10.5t1.5 -10.5q-35 -23 -61 -23q-16 0 -16 19q0 2 90 151v14q-6 -1 -19 -6q-11 7 -21.5 13t-27.5 6q-46 0 -110 -58q-64 -57 -64 -101q0 -46 38 -46
q27 0 47 14q-11 -6 -21 -6q-5 0 -8 3q-12 3 -14.5 16.5t-4.5 26.5q16 43 49 86q42 56 74 56q18 0 41 -26q-56 -117 -107 -154q11 7 16.5 10l5.5 3q4 0 9 -15q5 -14 26 -14q33 0 79 28q6 -28 39 -28q32 0 75 26q46 28 46 60q-15 -44 -67 -66q-21 -8 -25 -8zM276 110
q29 71 74 71q7 0 7 -9q0 -25 -25 -44q-20 -16 -48 -22z" />
    <glyph glyph-name="ccedilla" unicode="&#xe7;" horiz-adv-x="156" 
d="M35 2l1 2l13 3l-3 -6h-2h-2q-4 0 -7 1zM47 -30q-7 0 -19 -4l18 35q18 1 36.5 8t35 17.5t30.5 24.5t23 29q-19 -25 -50 -47q-35 -25 -62 -25q-10 0 -23 8t-13 18q0 38 19 77q20 42 47 61q37 25 57 25q21 0 21 -13q0 -9 -21 -19q-2 -2 -3.5 -5t-3.5 -5q2 -1 7 -1
q32 0 32 22q0 24 -32 24q-15 0 -40 -7q-36 -9 -73 -61q-36 -53 -36 -90q0 -35 38 -40q-24 -50 -24 -51v-2l1 -1h2q12 5 26 5q13 0 13 -16q0 -28 -56 -28q-33 0 -33 -1q0 -13 38 -13q23 0 47 11q27 13 27 35q0 29 -29 29z" />
    <glyph glyph-name="egrave" unicode="&#xe8;" horiz-adv-x="150" 
d="M117 196q-52 -16 -88 -54q-40 -41 -40 -92q0 -14 3 -27q7 -24 38 -24q14 0 41 9q80 30 80 76q-11 -32 -29 -44q-41 -30 -63 -30q-28 0 -38 22q-3 10 -3 23q0 26 19 39q27 6 46 12t30 11q39 22 43 61q2 20 -24 20q-2 0 -6 -0.5t-9 -1.5zM114 179q5 1 8.5 -2t1.5 -8
q0 -23 -26 -43q-20 -16 -47 -22l-8 4q27 63 71 71zM11 304l76 -53l7 -4q0 -1 5 1l2 1v2q1 3 -2 6l-64 61l-7 7q-6 6 -11 7q-15 2 -16 -10q-1 -10 10 -18z" />
    <glyph glyph-name="eacute" unicode="&#xe9;" horiz-adv-x="150" 
d="M117 196q-52 -16 -88 -54q-40 -41 -40 -92q0 -14 3 -27q7 -24 38 -24q14 0 41 9q80 30 80 76q-11 -32 -29 -44q-41 -30 -63 -30q-28 0 -38 22q-3 10 -3 23q0 26 19 39q27 6 46 12t30 11q39 22 43 61q2 20 -24 20q-2 0 -6 -0.5t-9 -1.5zM114 179q5 1 8.5 -2t1.5 -8
q0 -23 -26 -43q-20 -16 -47 -22l-8 4q27 63 71 71zM208 305q12 7 10 18q-1 13 -16 10q-6 -1 -11 -6l-71 -69q-4 -4 -2 -5v-3l2 -1q3 -1 5 -1z" />
    <glyph glyph-name="ecircumflex" unicode="&#xea;" horiz-adv-x="150" 
d="M117 196q-52 -16 -88 -54q-40 -41 -40 -92q0 -14 3 -27q7 -24 38 -24q14 0 41 9q80 30 80 76q-11 -32 -29 -44q-41 -30 -63 -30q-28 0 -38 22q-3 10 -3 23q0 26 19 39q27 6 46 12t30 11q39 22 43 61q2 20 -24 20q-2 0 -6 -0.5t-9 -1.5zM114 179q5 1 8.5 -2t1.5 -8
q0 -23 -26 -43q-20 -16 -47 -22l-8 4q27 63 71 71zM60 249q3 0 82 32q37 -30 43 -32l3 1l2 4q-2 6 -15 25l-11.5 16.5t-7.5 8.5q-1 1 -17 1q-6 0 -16 -6q-66 -40 -67 -43l-1 -2q0 -5 5 -5z" />
    <glyph glyph-name="edieresis" unicode="&#xeb;" horiz-adv-x="150" 
d="M117 196q-52 -16 -88 -54q-40 -41 -40 -92q0 -14 3 -27q7 -24 38 -24q14 0 41 9q80 30 80 76q-11 -32 -29 -44q-41 -30 -63 -30q-28 0 -38 22q-3 10 -3 23q0 26 19 39q27 6 46 12t30 11q39 22 43 61q2 20 -24 20q-2 0 -6 -0.5t-9 -1.5zM114 179q5 1 8.5 -2t1.5 -8
q0 -23 -26 -43q-20 -16 -47 -22l-8 4q27 63 71 71zM173 281q-19 0 -19 -17q0 -2 2 -6q5 -11 14 -11q3 0 9 2q13 7 12 18q0 14 -18 14zM103 281q-19 0 -19 -17q0 -2 2 -6q5 -11 14 -11q3 0 9 2q13 7 12 18q0 14 -18 14z" />
    <glyph glyph-name="igrave" unicode="&#xec;" horiz-adv-x="105" 
d="M71 196l-91 -162q-3 -3 -3 -9q0 -21 19 -24q5 -1 9.5 -1.5t8.5 -0.5q32 0 64 26q7 7 48 54l-67 -57q-24 -11 -29 -11q-12 0 -16 12l86 172zM2 304l76 -53l7 -4q0 -1 5 1l2 1v2q1 3 -2 6l-64 61l-7 7q-6 6 -11 7q-14 2 -15 -10q-2 -11 9 -18z" />
    <glyph glyph-name="iacute" unicode="&#xed;" horiz-adv-x="105" 
d="M71 196l-91 -162q-3 -3 -3 -9q0 -21 19 -24q5 -1 9.5 -1.5t8.5 -0.5q32 0 64 26q7 7 48 54l-67 -57q-24 -11 -29 -11q-12 0 -16 12l86 172zM195 304q12 7 10 18q-1 12 -16 10q-5 -1 -11 -7l-71 -68q-3 -3 -2 -6v-2l2 -1q4 -2 5 -1z" />
    <glyph glyph-name="icircumflex" unicode="&#xee;" horiz-adv-x="105" 
d="M71 196l-91 -162q-3 -3 -3 -9q0 -21 19 -24q5 -1 9.5 -1.5t8.5 -0.5q32 0 64 26q7 7 48 54l-67 -57q-24 -11 -29 -11q-12 0 -16 12l86 172zM39 249q3 0 82 32q37 -30 43 -32l3 1l2 4q-2 6 -15 25l-11.5 16.5t-7.5 8.5q-1 1 -17 1q-6 0 -16 -6q-66 -40 -67 -43l-1 -2
q0 -5 5 -5z" />
    <glyph glyph-name="idieresis" unicode="&#xef;" horiz-adv-x="105" 
d="M71 196l-91 -162q-3 -3 -3 -9q0 -21 19 -24q5 -1 9.5 -1.5t8.5 -0.5q32 0 64 26q7 7 48 54l-67 -57q-24 -11 -29 -11q-12 0 -16 12l86 172zM143 281q-19 0 -19 -17q0 -2 2 -6q5 -11 14 -11q3 0 9 2q13 7 12 18q0 14 -18 14zM73 281q-19 0 -19 -17q0 -2 2 -6q5 -11 14 -11
q3 0 9 2q13 7 12 18q0 14 -18 14z" />
    <glyph glyph-name="eth" unicode="&#xf0;" horiz-adv-x="246" 
d="M153 237l7 -12l68 39q1 -5 1 -9v-9q0 -15 -5 -37q-19 -45 -31.5 -72l-17.5 -38q-34 -60 -82 -85q-5 -1 -9 -1.5t-9 -0.5q-26 0 -42 16q-1 3 -1 14q0 37 29 72l30 33l22 23q36 16 52 21q-105 -11 -157 -115l-6 -36q0 -36 48 -36q23 0 42 10h1l3 1q11 6 21.5 12.5
l21.5 13.5q116 105 116 216v10q0 6 -1 12l53 31l-7 12l-49 -27q-1 2 -1 5t-1 6q-16 31 -53 31q-23 0 -37 -14q26 0 41 -4q16 -16 24 -40zM244 79l-28 -25.5l-28 -25.5q-52 -23 -55 -28q59 19 103 58z" />
    <glyph glyph-name="ntilde" unicode="&#xf1;" horiz-adv-x="264" 
d="M81 191l-109 -182q5 -5 13 -5q13 3 24 6l43 74l18 31q37 60 90 78q-16 3 -45 -11q3 15 -15 15q-13 0 -19 -6zM163 194h9q26 -8 26 -26q0 -2 -2 -6q-38 -51 -58 -93l-16 -26q-8 -14 -6 -27q3 -16 23 -16q35 0 85 33q37 25 44 52q-19 -33 -43 -47q-39 -24 -63 -24
q-16 0 -13 12q8 27 40 75q33 49 39 73q-4 22 -40 22q-5 0 -11.5 -0.5t-13.5 -1.5zM127 261l-2 -4v-1l1 -2l3 -1l4 2l8 7q17 14 28 14q6 0 19 -7l25 -12l13 -6q6 -2 11 -2q15 0 32 17l16 16l2 3l-1 4l-4 1l-3 -1q-17 -16 -31 -16l-7 2l-7.5 2.5t-9.5 5.5q-26 16 -43 16
q-18 1 -37 -19l-11 -11z" />
    <glyph glyph-name="ograve" unicode="&#xf2;" horiz-adv-x="234" 
d="M136 197q-51 -19 -83 -47q-53 -47 -53 -106q0 -13 5 -25q11 -20 44 -20q17 0 56 21q43 24 69 63q29 44 29 90q-4 28 -44 28q-14 0 -23 -4zM196 41l-32 -24t-24 -16q80 27 98 80zM111 175q11 7 25 7q35 0 35 -34q0 -37 -26 -75q-43 -61 -77 -61q-21 0 -27.5 8.5t-6.5 30.5
q0 62 77 124zM47 304l76 -53l7 -4q0 -1 5 1l2 1v2q1 3 -2 6l-64 61l-7 7q-6 6 -11 7q-15 2 -16 -10q-2 -11 10 -18z" />
    <glyph glyph-name="oacute" unicode="&#xf3;" horiz-adv-x="234" 
d="M136 197q-51 -19 -83 -47q-53 -47 -53 -106q0 -13 5 -25q11 -20 44 -20q17 0 56 21q43 24 69 63q29 44 29 90q-4 28 -44 28q-14 0 -23 -4zM196 41l-32 -24t-24 -16q80 27 98 80zM111 175q11 7 25 7q35 0 35 -34q0 -37 -26 -75q-43 -61 -77 -61q-21 0 -27.5 8.5t-6.5 30.5
q0 62 77 124zM283 304q12 7 10 18q-1 12 -16 10q-5 -1 -11 -7l-71 -68q-3 -3 -2 -6v-2l2 -1q4 -2 5 -1z" />
    <glyph glyph-name="ocircumflex" unicode="&#xf4;" horiz-adv-x="234" 
d="M136 197q-51 -19 -83 -47q-53 -47 -53 -106q0 -13 5 -25q11 -20 44 -20q17 0 56 21q43 24 69 63q29 44 29 90q-4 28 -44 28q-14 0 -23 -4zM196 41l-32 -24t-24 -16q80 27 98 80zM111 175q11 7 25 7q35 0 35 -34q0 -37 -26 -75q-43 -61 -77 -61q-21 0 -27.5 8.5t-6.5 30.5
q0 62 77 124zM127 249q3 0 82 32q37 -30 43 -32l3 1l2 4q-2 6 -15 25l-11.5 16.5t-7.5 8.5q-1 1 -17 1q-6 0 -16 -6q-66 -40 -67 -43l-1 -2q0 -5 5 -5z" />
    <glyph glyph-name="otilde" unicode="&#xf5;" horiz-adv-x="234" 
d="M136 197q-51 -19 -83 -47q-53 -47 -53 -106q0 -13 5 -25q11 -20 44 -20q17 0 56 21q43 24 69 63q29 44 29 90q-4 28 -44 28q-14 0 -23 -4zM196 41l-32 -24t-24 -16q80 27 98 80zM111 175q11 7 25 7q35 0 35 -34q0 -37 -26 -75q-43 -61 -77 -61q-21 0 -27.5 8.5t-6.5 30.5
q0 62 77 124zM108 261l-2 -4v-1l1 -2l3 -1l4 2l8 7q17 14 28 14q6 0 19 -7l25 -12l13 -6q6 -2 11 -2q15 0 32 17l16 16l2 3l-1 4l-4 1l-3 -1q-17 -16 -31 -16l-7 2l-7.5 2.5t-9.5 5.5q-26 16 -43 16q-18 1 -37 -19l-11 -11z" />
    <glyph glyph-name="odieresis" unicode="&#xf6;" horiz-adv-x="234" 
d="M136 197q-51 -19 -83 -47q-53 -47 -53 -106q0 -13 5 -25q11 -20 44 -20q17 0 56 21q43 24 69 63q29 44 29 90q-4 28 -44 28q-14 0 -23 -4zM196 41l-32 -24t-24 -16q80 27 98 80zM111 175q11 7 25 7q35 0 35 -34q0 -37 -26 -75q-43 -61 -77 -61q-21 0 -27.5 8.5t-6.5 30.5
q0 62 77 124zM221 281q-19 0 -19 -17q0 -2 2 -6q5 -11 14 -11q3 0 9 2q13 7 12 18q0 14 -18 14zM151 281q-19 0 -19 -17q0 -2 2 -6q5 -11 14 -11q3 0 9 2q13 7 12 18q0 14 -18 14z" />
    <glyph glyph-name="oslash" unicode="&#xf8;" horiz-adv-x="234" 
d="M136 197q-51 -19 -83 -47q-53 -47 -53 -106q0 -13 5 -25q11 -20 44 -20q17 0 56 21q43 24 69 63q29 44 29 90q-4 28 -44 28q-14 0 -23 -4zM196 41l-32 -24t-24 -16q80 27 98 80zM111 175q11 7 25 7q35 0 35 -34q0 -37 -26 -75q-43 -61 -77 -61q-21 0 -27.5 8.5t-6.5 30.5
q0 62 77 124z" />
    <glyph glyph-name="ugrave" unicode="&#xf9;" horiz-adv-x="258" 
d="M93 197q-22 -29 -38.5 -54l-29.5 -46q-33 -56 -33 -73q0 -25 29 -25q21 0 93 32l13 -23q11 -10 28 -10q13 0 22 3q72 31 86 70q-17 -21 -46 -41q-36 -24 -56 -19q-5 1 -7 12q-1 4 -1 8v8l64 102.5t29 51.5l-32 1l-40 -68q-30 -50 -60 -87q-60 -29 -75 -29q-14 0 -12 14
q4 31 39 85l26 42l26 42q-3 4 -11 4h-14zM78 304l76 -53l7 -4q0 -1 5 1l2 1v2q1 3 -2 6l-64 61l-7 7q-6 6 -11 7q-15 2 -16 -10q-2 -11 10 -18z" />
    <glyph glyph-name="uacute" unicode="&#xfa;" horiz-adv-x="258" 
d="M93 197q-22 -29 -38.5 -54l-29.5 -46q-33 -56 -33 -73q0 -25 29 -25q21 0 93 32l13 -23q11 -10 28 -10q13 0 22 3q72 31 86 70q-17 -21 -46 -41q-36 -24 -56 -19q-5 1 -7 12q-1 4 -1 8v8l64 102.5t29 51.5l-32 1l-40 -68q-30 -50 -60 -87q-60 -29 -75 -29q-14 0 -12 14
q4 31 39 85l26 42l26 42q-3 4 -11 4h-14zM282 305q12 7 10 18q-1 13 -16 10q-6 -1 -11 -6l-71 -69q-4 -4 -2 -5v-3l2 -1q3 -1 5 -1z" />
    <glyph glyph-name="ucircumflex" unicode="&#xfb;" horiz-adv-x="258" 
d="M93 197q-22 -29 -38.5 -54l-29.5 -46q-33 -56 -33 -73q0 -25 29 -25q21 0 93 32l13 -23q11 -10 28 -10q13 0 22 3q72 31 86 70q-17 -21 -46 -41q-36 -24 -56 -19q-5 1 -7 12q-1 4 -1 8v8l64 102.5t29 51.5l-32 1l-40 -68q-30 -50 -60 -87q-60 -29 -75 -29q-14 0 -12 14
q4 31 39 85l26 42l26 42q-3 4 -11 4h-14zM127 249q3 0 82 32q37 -30 43 -32l3 1l2 4q-2 6 -15 25l-11.5 16.5t-7.5 8.5q-1 1 -17 1q-6 0 -16 -6q-66 -40 -67 -43l-1 -2q0 -5 5 -5z" />
    <glyph glyph-name="udieresis" unicode="&#xfc;" horiz-adv-x="258" 
d="M93 197q-22 -29 -38.5 -54l-29.5 -46q-33 -56 -33 -73q0 -25 29 -25q21 0 93 32l13 -23q11 -10 28 -10q13 0 22 3q72 31 86 70q-17 -21 -46 -41q-36 -24 -56 -19q-5 1 -7 12q-1 4 -1 8v8l64 102.5t29 51.5l-32 1l-40 -68q-30 -50 -60 -87q-60 -29 -75 -29q-14 0 -12 14
q4 31 39 85l26 42l26 42q-3 4 -11 4h-14zM232 281q-19 0 -19 -17q0 -2 2 -6q5 -11 14 -11q3 0 9 2q13 7 12 18q0 14 -18 14zM162 281q-19 0 -19 -17q0 -2 2 -6q5 -11 14 -11q3 0 9 2q13 7 12 18q0 14 -18 14z" />
    <glyph glyph-name="yacute" unicode="&#xfd;" horiz-adv-x="260" 
d="M-113 -173q-3 6 -3 12q0 18 61 73l106 67q-76 -34 -132 -82l-28.5 -25t-10.5 -9q-20 -23 -20 -45q0 -16 14.5 -19l28.5 -6q71 20 128 77q43 44 90 124q57 13 141 75v4q0 3 1 7q2 8 -3 8q-44 -55 -123 -80q35 86 112 189q-5 9 -11 9q-3 0 -10.5 -2.5t-11.5 -2.5q-2 0 -6 2
q-45 -86 -62 -110q-39 -55 -94 -79q-9 -3 -17.5 3l-16.5 12l96 170q-5 1 -9.5 1.5t-8.5 0.5q-11 0 -16 -5l-89 -146q-3 -6 -3 -21q0 -29 30 -29q21 0 74 21q0 -13 -17 -24q-22 -14 -23 -17l29 8q-53 -91 -54 -92q-40 -66 -65 -74q-39 -10 -50 -10q-21 0 -27 15zM282 305
q12 7 10 18q-1 13 -16 10q-6 -1 -11 -6l-71 -69q-4 -4 -2 -5v-3l2 -1q3 -1 5 -1z" />
    <glyph glyph-name="ydieresis" unicode="&#xff;" horiz-adv-x="260" 
d="M-113 -173q-3 6 -3 12q0 18 61 73l106 67q-76 -34 -132 -82l-28.5 -25t-10.5 -9q-20 -23 -20 -45q0 -16 14.5 -19l28.5 -6q71 20 128 77q43 44 90 124q57 13 141 75v4q0 3 1 7q2 8 -3 8q-44 -55 -123 -80q35 86 112 189q-5 9 -11 9q-3 0 -10.5 -2.5t-11.5 -2.5q-2 0 -6 2
q-45 -86 -62 -110q-39 -55 -94 -79q-9 -3 -17.5 3l-16.5 12l96 170q-5 1 -9.5 1.5t-8.5 0.5q-11 0 -16 -5l-89 -146q-3 -6 -3 -21q0 -29 30 -29q21 0 74 21q0 -13 -17 -24q-22 -14 -23 -17l29 8q-53 -91 -54 -92q-40 -66 -65 -74q-39 -10 -50 -10q-21 0 -27 15zM222 281
q-19 0 -19 -17q0 -2 2 -6q5 -11 14 -11q3 0 9 2q13 7 12 18q0 14 -18 14zM152 281q-19 0 -19 -17q0 -2 2 -6q5 -11 14 -11q3 0 9 2q13 7 12 18q0 14 -18 14z" />
    <glyph glyph-name=".null" unicode="&#xe000;" horiz-adv-x="0" 
 />
    <glyph glyph-name="nonmarkingreturn" unicode="&#xe001;" horiz-adv-x="248" 
 />
    <glyph glyph-name="nonbreakingspace" unicode="&#xe002;" horiz-adv-x="248" 
 />
    <glyph glyph-name="longs" unicode="&#xe003;" horiz-adv-x="142" 
d="M-127 -200q70 93 125.5 183t97.5 178l47 80l41 69q40 70 57 93q117 156 276 156q11 0 25 -1.5t30 -3.5l30 -18q16 -11 14 -30q8 -2 18 7q4 7 4 15q0 10 -7 25q-19 24 -62 25h-35q-17 0 -34 1q-170 -48 -263 -159q-74 -91 -201 -316q-116 -210 -202 -302z" />
    <glyph glyph-name="partialdiff" unicode="&#xe004;" horiz-adv-x="246" 
d="M159 323q26 0 41 -4q29 -29 29 -73q0 -15 -5 -37q-38 -89 -49 -109q-34 -60 -79 -85q-11 -3 -21 -3q-26 0 -42 16q-1 3 -1 14q0 37 29 72l30 33l22 23q36 16 52 21q-105 -11 -157 -115l-6 -36q0 -36 48 -36q31 0 89 37q116 105 116 216q0 23 -6 49q-16 31 -53 31
q-23 0 -37 -14zM244 79l-28 -25.5l-28 -25.5q-52 -23 -55 -28q59 19 103 58z" />
    <glyph glyph-name="integral" unicode="&#xe005;" horiz-adv-x="228" 
d="M241 420q-2 1 -9 1q-19 0 -33 -10l-79.5 -139l-58.5 -97q-71 -121 -71 -141q0 -15 10 -28q12 -5 27 -5q8 0 23.5 2t23.5 2q127 55 127 163q0 29 -35 29l-35 -3q-8 -1 -13.5 -1.5t-9.5 0.5q90 141 132 213zM230 71q-9 -4 -25 -18q-18 -16 -24 -20q-8 -5 -30 -15
q-23 -9 -27 -18q60 25 60 27q37 19 46 44zM34 61q28 60 39 78q24 44 53 44q19 0 42 -20q-11 -105 -100 -149h-10q-36 0 -36 21q0 8 12 26z" />
    </font>
</defs>
</svg>
